# Units: meters
# Coordinate system: Z up
# Mesh: middle shelf reduced to two 12 mm side rails
mtllib cabinet_body.mtl
o cabinet_body
v -0.08500000 -0.11500000 0.00850000
v -0.08500000 -0.10700000 0.00850000
v -0.08500000 -0.10700000 0.00000000
v -0.08500000 -0.11500000 0.00000000
v -0.08100000 -0.11500000 0.00000000
v -0.08100000 -0.11500000 0.00850000
v -0.08100000 -0.10700000 0.00000000
v -0.08500000 -0.11500000 0.06350000
v -0.08500000 -0.10700000 0.06350000
v -0.08100000 -0.11500000 0.06350000
v -0.08500000 -0.11500000 0.07000000
v -0.08500000 -0.10700000 0.07000000
v -0.08100000 -0.11500000 0.07000000
v -0.08500000 -0.11500000 0.12500000
v -0.08500000 -0.10700000 0.12500000
v -0.08100000 -0.11500000 0.12500000
v -0.08500000 -0.11500000 0.14400000
v -0.08500000 -0.10700000 0.14400000
v -0.08100000 -0.11500000 0.14400000
v -0.08100000 -0.10700000 0.14400000
v -0.08500000 0.11500000 0.00850000
v -0.08500000 0.11500000 0.00000000
v -0.08100000 0.11500000 0.00850000
v -0.08100000 0.11500000 0.00000000
v -0.08500000 0.11500000 0.06350000
v -0.08100000 0.11500000 0.06350000
v -0.08100000 -0.10700000 0.06350000
v -0.08100000 -0.10700000 0.00850000
v -0.08500000 0.11500000 0.07000000
v -0.08100000 0.11500000 0.07000000
v -0.08500000 0.11500000 0.12500000
v -0.08100000 0.11500000 0.12500000
v -0.08100000 -0.10700000 0.12500000
v -0.08100000 -0.10700000 0.07000000
v -0.08500000 0.11500000 0.14400000
v -0.08100000 0.11500000 0.14400000
v -0.06900000 -0.11500000 0.00000000
v -0.06900000 -0.11500000 0.00850000
v -0.06900000 -0.10700000 0.00000000
v -0.06900000 -0.11500000 0.06350000
v -0.06900000 -0.10700000 0.06350000
v -0.06900000 -0.10700000 0.00850000
v -0.06900000 -0.11500000 0.07000000
v -0.06900000 -0.11500000 0.12500000
v -0.06900000 -0.10700000 0.12500000
v -0.06900000 -0.10700000 0.07000000
v -0.06900000 -0.11500000 0.14400000
v -0.06900000 -0.10700000 0.14400000
v -0.06900000 0.11500000 0.00850000
v -0.06900000 0.11500000 0.00000000
v -0.06900000 0.11500000 0.06350000
v -0.06900000 0.11500000 0.07000000
v -0.06900000 0.11500000 0.14400000
v -0.06900000 0.11500000 0.12500000
v 0.06900000 -0.11500000 0.00000000
v 0.06900000 -0.11500000 0.00850000
v 0.06900000 -0.10700000 0.00000000
v 0.06900000 -0.11500000 0.06350000
v 0.06900000 -0.10700000 0.06350000
v 0.06900000 -0.10700000 0.00850000
v 0.06900000 -0.11500000 0.07000000
v 0.06900000 -0.10700000 0.07000000
v 0.06900000 -0.11500000 0.12500000
v 0.06900000 -0.10700000 0.12500000
v 0.06900000 -0.11500000 0.14400000
v 0.06900000 -0.10700000 0.14400000
v 0.06900000 0.11500000 0.00850000
v 0.06900000 0.11500000 0.00000000
v 0.06900000 0.11500000 0.14400000
v 0.06900000 0.11500000 0.12500000
v 0.08100000 -0.11500000 0.00000000
v 0.08100000 -0.11500000 0.00850000
v 0.08100000 -0.10700000 0.00000000
v 0.08100000 -0.11500000 0.06350000
v 0.08100000 -0.10700000 0.06350000
v 0.08100000 -0.10700000 0.00850000
v 0.08100000 -0.11500000 0.07000000
v 0.08100000 -0.11500000 0.12500000
v 0.08100000 -0.10700000 0.12500000
v 0.08100000 -0.10700000 0.07000000
v 0.08100000 -0.11500000 0.14400000
v 0.08100000 -0.10700000 0.14400000
v 0.08100000 0.11500000 0.00850000
v 0.08100000 0.11500000 0.00000000
v 0.06900000 0.11500000 0.07000000
v 0.06900000 0.11500000 0.06350000
v 0.08100000 0.11500000 0.07000000
v 0.08100000 0.11500000 0.06350000
v 0.08100000 0.11500000 0.14400000
v 0.08100000 0.11500000 0.12500000
v 0.08500000 -0.10700000 0.00000000
v 0.08500000 -0.10700000 0.00850000
v 0.08500000 -0.11500000 0.00850000
v 0.08500000 -0.11500000 0.00000000
v 0.08500000 -0.10700000 0.06350000
v 0.08500000 -0.11500000 0.06350000
v 0.08500000 -0.10700000 0.07000000
v 0.08500000 -0.11500000 0.07000000
v 0.08500000 -0.10700000 0.12500000
v 0.08500000 -0.11500000 0.12500000
v 0.08500000 -0.10700000 0.14400000
v 0.08500000 -0.11500000 0.14400000
v 0.08500000 0.11500000 0.00000000
v 0.08500000 0.11500000 0.00850000
v 0.08500000 0.11500000 0.06350000
v 0.08500000 0.11500000 0.07000000
v 0.08500000 0.11500000 0.12500000
v 0.08500000 0.11500000 0.14400000
usemtl wood
f 1 2 3 4
f 5 6 1 4
f 3 7 5 4
f 8 9 2 1
f 6 10 8 1
f 11 12 9 8
f 10 13 11 8
f 14 15 12 11
f 13 16 14 11
f 17 18 15 14
f 16 19 17 14
f 19 20 18 17
f 2 21 22 3
f 21 23 24 22
f 22 24 7 3
f 9 25 21 2
f 23 26 27 28
f 25 26 23 21
f 12 29 25 9
f 29 30 26 25
f 15 31 29 12
f 30 32 33 34
f 31 32 30 29
f 18 35 31 15
f 35 36 32 31
f 20 36 35 18
f 37 38 6 5
f 7 39 37 5
f 38 40 10 6
f 27 41 42 28
f 40 43 13 10
f 43 44 16 13
f 33 45 46 34
f 44 47 19 16
f 47 48 20 19
f 23 49 50 24
f 24 50 39 7
f 42 49 23 28
f 51 52 46 41
f 30 52 51 26
f 26 51 41 27
f 46 52 30 34
f 36 53 54 32
f 32 54 45 33
f 48 53 36 20
f 55 56 38 37
f 39 57 55 37
f 56 58 40 38
f 41 59 60 42
f 58 61 43 40
f 46 62 59 41
f 61 63 44 43
f 45 64 62 46
f 63 65 47 44
f 65 66 48 47
f 49 67 68 50
f 50 68 57 39
f 60 67 49 42
f 53 69 70 54
f 54 70 64 45
f 66 69 53 48
f 71 72 56 55
f 57 73 71 55
f 72 74 58 56
f 59 75 76 60
f 74 77 61 58
f 77 78 63 61
f 64 79 80 62
f 78 81 65 63
f 81 82 66 65
f 67 83 84 68
f 68 84 73 57
f 76 83 67 60
f 62 85 86 59
f 85 87 88 86
f 86 88 75 59
f 80 87 85 62
f 69 89 90 70
f 70 90 79 64
f 82 89 69 66
f 91 92 93 94
f 94 93 72 71
f 73 91 94 71
f 92 95 96 93
f 93 96 74 72
f 95 97 98 96
f 96 98 77 74
f 97 99 100 98
f 98 100 78 77
f 99 101 102 100
f 100 102 81 78
f 102 101 82 81
f 103 104 92 91
f 83 104 103 84
f 84 103 91 73
f 75 88 83 76
f 104 105 95 92
f 88 105 104 83
f 105 106 97 95
f 87 106 105 88
f 79 90 87 80
f 106 107 99 97
f 90 107 106 87
f 107 108 101 99
f 89 108 107 90
f 101 108 89 82
