# hollow drawer body with welded cube handle
mtllib upper_drawer.mtl
o upper_drawer
v -0.075000 -0.105000 0.000000
v -0.075000 -0.105000 0.004200
v -0.075000 -0.099500 0.004200
v -0.075000 -0.099500 0.000000
v -0.069500 -0.105000 0.000000
v -0.069500 -0.105000 0.004200
v -0.069500 -0.099500 0.000000
v -0.075000 -0.105000 0.015000
v -0.075000 -0.099500 0.015000
v -0.069500 -0.105000 0.015000
v -0.075000 -0.105000 0.021000
v -0.075000 -0.099500 0.021000
v -0.069500 -0.105000 0.021000
v -0.075000 -0.105000 0.029000
v -0.075000 -0.099500 0.029000
v -0.069500 -0.105000 0.029000
v -0.075000 -0.105000 0.035000
v -0.075000 -0.099500 0.035000
v -0.069500 -0.105000 0.035000
v -0.075000 -0.105000 0.050000
v -0.075000 -0.099500 0.050000
v -0.069500 -0.105000 0.050000
v -0.069500 -0.099500 0.050000
v -0.075000 0.098000 0.004200
v -0.075000 0.098000 0.000000
v -0.069500 0.098000 0.000000
v -0.075000 0.098000 0.015000
v -0.069500 -0.099500 0.004200
v -0.069500 0.098000 0.004200
v -0.069500 0.098000 0.015000
v -0.069500 -0.099500 0.015000
v -0.075000 0.098000 0.021000
v -0.069500 0.098000 0.021000
v -0.069500 -0.099500 0.021000
v -0.075000 0.098000 0.029000
v -0.069500 0.098000 0.029000
v -0.069500 -0.099500 0.029000
v -0.075000 0.098000 0.035000
v -0.069500 0.098000 0.035000
v -0.069500 -0.099500 0.035000
v -0.075000 0.098000 0.050000
v -0.069500 0.098000 0.050000
v -0.075000 0.105000 0.004200
v -0.075000 0.105000 0.000000
v -0.069500 0.105000 0.004200
v -0.069500 0.105000 0.000000
v -0.075000 0.105000 0.015000
v -0.069500 0.105000 0.015000
v -0.075000 0.105000 0.021000
v -0.069500 0.105000 0.021000
v -0.075000 0.105000 0.029000
v -0.069500 0.105000 0.029000
v -0.075000 0.105000 0.035000
v -0.069500 0.105000 0.035000
v -0.075000 0.105000 0.050000
v -0.069500 0.105000 0.050000
v -0.010000 -0.105000 0.000000
v -0.010000 -0.105000 0.004200
v -0.010000 -0.099500 0.000000
v -0.010000 -0.105000 0.015000
v -0.010000 -0.099500 0.015000
v -0.010000 -0.099500 0.004200
v -0.010000 -0.105000 0.021000
v -0.010000 -0.099500 0.021000
v -0.010000 -0.105000 0.029000
v -0.010000 -0.099500 0.029000
v -0.010000 -0.105000 0.035000
v -0.010000 -0.099500 0.035000
v -0.010000 -0.105000 0.050000
v -0.010000 -0.099500 0.050000
v -0.010000 0.098000 0.000000
v -0.010000 0.098000 0.004200
v -0.010000 0.105000 0.004200
v -0.010000 0.105000 0.000000
v -0.010000 0.098000 0.015000
v -0.010000 0.105000 0.015000
v -0.010000 0.098000 0.021000
v -0.010000 0.105000 0.021000
v -0.010000 0.098000 0.029000
v -0.010000 0.105000 0.029000
v -0.010000 0.098000 0.035000
v -0.010000 0.105000 0.035000
v -0.010000 0.098000 0.050000
v -0.010000 0.105000 0.050000
v -0.004000 -0.105000 0.000000
v -0.004000 -0.105000 0.004200
v -0.004000 -0.099500 0.000000
v -0.004000 -0.105000 0.015000
v -0.004000 -0.099500 0.015000
v -0.004000 -0.099500 0.004200
v -0.004000 -0.105000 0.021000
v -0.004000 -0.099500 0.021000
v -0.004000 -0.105000 0.029000
v -0.004000 -0.099500 0.029000
v -0.004000 -0.105000 0.035000
v -0.004000 -0.099500 0.035000
v -0.004000 -0.105000 0.050000
v -0.004000 -0.099500 0.050000
v -0.004000 0.098000 0.000000
v -0.004000 0.098000 0.004200
v -0.004000 0.105000 0.004200
v -0.004000 0.105000 0.000000
v -0.004000 0.098000 0.015000
v -0.004000 0.105000 0.015000
v -0.004000 0.098000 0.021000
v -0.004000 0.105000 0.021000
v -0.004000 0.098000 0.029000
v -0.004000 0.105000 0.029000
v -0.004000 0.098000 0.035000
v -0.004000 0.105000 0.035000
v -0.004000 0.098000 0.050000
v -0.004000 0.105000 0.050000
v -0.010000 0.110000 0.015000
v -0.010000 0.110000 0.021000
v -0.010000 0.130000 0.021000
v -0.010000 0.130000 0.015000
v -0.004000 0.110000 0.015000
v -0.004000 0.110000 0.021000
v -0.004000 0.130000 0.021000
v -0.004000 0.130000 0.015000
v -0.010000 0.110000 0.029000
v -0.010000 0.130000 0.029000
v -0.004000 0.110000 0.029000
v -0.004000 0.130000 0.029000
v -0.010000 0.110000 0.035000
v -0.010000 0.130000 0.035000
v -0.004000 0.110000 0.035000
v -0.004000 0.130000 0.035000
v 0.004000 -0.105000 0.000000
v 0.004000 -0.105000 0.004200
v 0.004000 -0.099500 0.000000
v 0.004000 -0.105000 0.015000
v 0.004000 -0.099500 0.015000
v 0.004000 -0.099500 0.004200
v 0.004000 -0.105000 0.021000
v 0.004000 -0.099500 0.021000
v 0.004000 -0.105000 0.029000
v 0.004000 -0.099500 0.029000
v 0.004000 -0.105000 0.035000
v 0.004000 -0.099500 0.035000
v 0.004000 -0.105000 0.050000
v 0.004000 -0.099500 0.050000
v 0.004000 0.098000 0.000000
v 0.004000 0.098000 0.004200
v 0.004000 0.105000 0.004200
v 0.004000 0.105000 0.000000
v 0.004000 0.098000 0.015000
v 0.004000 0.105000 0.015000
v 0.004000 0.098000 0.021000
v 0.004000 0.105000 0.021000
v 0.004000 0.098000 0.029000
v 0.004000 0.098000 0.035000
v 0.004000 0.105000 0.035000
v 0.004000 0.105000 0.029000
v 0.004000 0.098000 0.050000
v 0.004000 0.105000 0.050000
v 0.004000 0.110000 0.021000
v 0.004000 0.110000 0.029000
v 0.004000 0.110000 0.015000
v 0.004000 0.130000 0.021000
v 0.004000 0.130000 0.015000
v 0.004000 0.130000 0.029000
v 0.004000 0.110000 0.035000
v 0.004000 0.130000 0.035000
v 0.010000 -0.105000 0.000000
v 0.010000 -0.105000 0.004200
v 0.010000 -0.099500 0.000000
v 0.010000 -0.105000 0.015000
v 0.010000 -0.099500 0.015000
v 0.010000 -0.099500 0.004200
v 0.010000 -0.105000 0.021000
v 0.010000 -0.099500 0.021000
v 0.010000 -0.105000 0.029000
v 0.010000 -0.099500 0.029000
v 0.010000 -0.105000 0.035000
v 0.010000 -0.099500 0.035000
v 0.010000 -0.105000 0.050000
v 0.010000 -0.099500 0.050000
v 0.010000 0.098000 0.000000
v 0.010000 0.098000 0.004200
v 0.010000 0.105000 0.004200
v 0.010000 0.105000 0.000000
v 0.010000 0.098000 0.015000
v 0.010000 0.105000 0.015000
v 0.010000 0.098000 0.021000
v 0.010000 0.105000 0.021000
v 0.010000 0.098000 0.029000
v 0.010000 0.105000 0.029000
v 0.010000 0.098000 0.035000
v 0.010000 0.105000 0.035000
v 0.010000 0.098000 0.050000
v 0.010000 0.105000 0.050000
v 0.010000 0.110000 0.015000
v 0.010000 0.130000 0.015000
v 0.010000 0.130000 0.021000
v 0.010000 0.110000 0.021000
v 0.010000 0.130000 0.029000
v 0.010000 0.110000 0.029000
v 0.010000 0.130000 0.035000
v 0.010000 0.110000 0.035000
v 0.069500 -0.105000 0.000000
v 0.069500 -0.105000 0.004200
v 0.069500 -0.099500 0.000000
v 0.069500 -0.105000 0.015000
v 0.069500 -0.099500 0.015000
v 0.069500 -0.099500 0.004200
v 0.069500 -0.105000 0.021000
v 0.069500 -0.099500 0.021000
v 0.069500 -0.105000 0.029000
v 0.069500 -0.099500 0.029000
v 0.069500 -0.105000 0.035000
v 0.069500 -0.099500 0.035000
v 0.069500 -0.105000 0.050000
v 0.069500 -0.099500 0.050000
v 0.069500 0.098000 0.000000
v 0.069500 0.098000 0.004200
v 0.069500 0.105000 0.004200
v 0.069500 0.105000 0.000000
v 0.069500 0.098000 0.015000
v 0.069500 0.105000 0.015000
v 0.069500 0.098000 0.021000
v 0.069500 0.105000 0.021000
v 0.069500 0.098000 0.029000
v 0.069500 0.105000 0.029000
v 0.069500 0.098000 0.035000
v 0.069500 0.105000 0.035000
v 0.069500 0.098000 0.050000
v 0.069500 0.105000 0.050000
v 0.075000 -0.105000 0.000000
v 0.075000 -0.099500 0.000000
v 0.075000 -0.099500 0.004200
v 0.075000 -0.105000 0.004200
v 0.075000 -0.099500 0.015000
v 0.075000 -0.105000 0.015000
v 0.075000 -0.099500 0.021000
v 0.075000 -0.105000 0.021000
v 0.075000 -0.099500 0.029000
v 0.075000 -0.105000 0.029000
v 0.075000 -0.099500 0.035000
v 0.075000 -0.105000 0.035000
v 0.075000 -0.099500 0.050000
v 0.075000 -0.105000 0.050000
v 0.075000 0.098000 0.000000
v 0.075000 0.098000 0.004200
v 0.075000 0.098000 0.015000
v 0.075000 0.098000 0.021000
v 0.075000 0.098000 0.029000
v 0.075000 0.098000 0.035000
v 0.075000 0.098000 0.050000
v 0.075000 0.105000 0.000000
v 0.075000 0.105000 0.004200
v 0.075000 0.105000 0.015000
v 0.075000 0.105000 0.021000
v 0.075000 0.105000 0.029000
v 0.075000 0.105000 0.035000
v 0.075000 0.105000 0.050000
s 0
usemtl wood
f 1 2 3 4
f 1 5 6 2
f 1 4 7 5
f 2 8 9 3
f 2 6 10 8
f 8 11 12 9
f 8 10 13 11
f 11 14 15 12
f 11 13 16 14
f 14 17 18 15
f 14 16 19 17
f 17 20 21 18
f 17 19 22 20
f 20 22 23 21
f 4 3 24 25
f 4 25 26 7
f 3 9 27 24
f 28 29 30 31
f 9 12 32 27
f 31 30 33 34
f 12 15 35 32
f 34 33 36 37
f 15 18 38 35
f 37 36 39 40
f 18 21 41 38
f 40 39 42 23
f 21 23 42 41
f 25 24 43 44
f 44 43 45 46
f 25 44 46 26
f 24 27 47 43
f 43 47 48 45
f 27 32 49 47
f 47 49 50 48
f 32 35 51 49
f 49 51 52 50
f 35 38 53 51
f 51 53 54 52
f 38 41 55 53
f 53 55 56 54
f 41 42 56 55
f 5 57 58 6
f 5 7 59 57
f 6 58 60 10
f 28 31 61 62
f 10 60 63 13
f 31 34 64 61
f 13 63 65 16
f 34 37 66 64
f 16 65 67 19
f 37 40 68 66
f 19 67 69 22
f 40 23 70 68
f 22 69 70 23
f 7 26 71 59
f 28 62 72 29
f 46 45 73 74
f 26 46 74 71
f 29 72 75 30
f 45 48 76 73
f 30 75 77 33
f 48 50 78 76
f 33 77 79 36
f 50 52 80 78
f 36 79 81 39
f 52 54 82 80
f 39 81 83 42
f 54 56 84 82
f 42 83 84 56
f 57 85 86 58
f 57 59 87 85
f 58 86 88 60
f 62 61 89 90
f 60 88 91 63
f 61 64 92 89
f 63 91 93 65
f 64 66 94 92
f 65 93 95 67
f 66 68 96 94
f 67 95 97 69
f 68 70 98 96
f 69 97 98 70
f 59 71 99 87
f 62 90 100 72
f 74 73 101 102
f 71 74 102 99
f 72 100 103 75
f 73 76 104 101
f 75 103 105 77
f 76 78 106 104
f 77 105 107 79
f 78 80 108 106
f 79 107 109 81
f 80 82 110 108
f 81 109 111 83
f 82 84 112 110
f 83 111 112 84
f 113 114 115 116
f 113 117 118 114
f 116 115 119 120
f 113 116 120 117
f 114 121 122 115
f 114 118 123 121
f 115 122 124 119
f 121 125 126 122
f 121 123 127 125
f 122 126 128 124
f 125 127 128 126
f 85 129 130 86
f 85 87 131 129
f 86 130 132 88
f 90 89 133 134
f 88 132 135 91
f 89 92 136 133
f 91 135 137 93
f 92 94 138 136
f 93 137 139 95
f 94 96 140 138
f 95 139 141 97
f 96 98 142 140
f 97 141 142 98
f 87 99 143 131
f 90 134 144 100
f 102 101 145 146
f 99 102 146 143
f 100 144 147 103
f 101 104 148 145
f 103 147 149 105
f 104 106 150 148
f 105 149 151 107
f 107 151 152 109
f 108 110 153 154
f 109 152 155 111
f 110 112 156 153
f 111 155 156 112
f 106 108 123 118
f 150 157 158 154
f 106 118 157 150
f 108 154 158 123
f 117 159 157 118
f 120 119 160 161
f 117 120 161 159
f 119 124 162 160
f 123 158 163 127
f 124 128 164 162
f 127 163 164 128
f 129 165 166 130
f 129 131 167 165
f 130 166 168 132
f 134 133 169 170
f 132 168 171 135
f 133 136 172 169
f 135 171 173 137
f 136 138 174 172
f 137 173 175 139
f 138 140 176 174
f 139 175 177 141
f 140 142 178 176
f 141 177 178 142
f 131 143 179 167
f 134 170 180 144
f 146 145 181 182
f 143 146 182 179
f 144 180 183 147
f 145 148 184 181
f 147 183 185 149
f 148 150 186 184
f 149 185 187 151
f 150 154 188 186
f 151 187 189 152
f 154 153 190 188
f 152 189 191 155
f 153 156 192 190
f 155 191 192 156
f 193 194 195 196
f 159 193 196 157
f 161 160 195 194
f 159 161 194 193
f 196 195 197 198
f 157 196 198 158
f 160 162 197 195
f 198 197 199 200
f 158 198 200 163
f 162 164 199 197
f 163 200 199 164
f 165 201 202 166
f 165 167 203 201
f 166 202 204 168
f 170 169 205 206
f 168 204 207 171
f 169 172 208 205
f 171 207 209 173
f 172 174 210 208
f 173 209 211 175
f 174 176 212 210
f 175 211 213 177
f 176 178 214 212
f 177 213 214 178
f 167 179 215 203
f 170 206 216 180
f 182 181 217 218
f 179 182 218 215
f 180 216 219 183
f 181 184 220 217
f 183 219 221 185
f 184 186 222 220
f 185 221 223 187
f 186 188 224 222
f 187 223 225 189
f 188 190 226 224
f 189 225 227 191
f 190 192 228 226
f 191 227 228 192
f 229 230 231 232
f 201 229 232 202
f 201 203 230 229
f 232 231 233 234
f 202 232 234 204
f 234 233 235 236
f 204 234 236 207
f 236 235 237 238
f 207 236 238 209
f 238 237 239 240
f 209 238 240 211
f 240 239 241 242
f 211 240 242 213
f 213 242 241 214
f 230 243 244 231
f 203 215 243 230
f 206 205 219 216
f 231 244 245 233
f 205 208 221 219
f 233 245 246 235
f 208 210 223 221
f 235 246 247 237
f 210 212 225 223
f 237 247 248 239
f 212 214 227 225
f 239 248 249 241
f 214 241 249 227
f 243 250 251 244
f 218 217 251 250
f 215 218 250 243
f 244 251 252 245
f 217 220 252 251
f 245 252 253 246
f 220 222 253 252
f 246 253 254 247
f 222 224 254 253
f 247 254 255 248
f 224 226 255 254
f 248 255 256 249
f 226 228 256 255
f 227 249 256 228
