# Blender 5.1.2
# www.blender.org
mtllib USB.mtl
o thinkplus_usb_drive_watertight
v -0.009000 -0.003875 0.012400
v -0.006000 -0.003875 0.012400
v 0.006000 -0.003875 0.012400
v 0.009000 -0.003875 0.012400
v 0.009000 -0.003875 0.014700
v 0.009000 -0.003875 0.054400
v 0.008995 -0.003875 0.054568
v 0.008981 -0.003875 0.054736
v 0.008958 -0.003875 0.054903
v 0.008925 -0.003875 0.055068
v 0.008883 -0.003875 0.055231
v 0.008832 -0.003875 0.055391
v 0.008772 -0.003875 0.055548
v 0.008703 -0.003875 0.055702
v 0.008626 -0.003875 0.055851
v 0.008540 -0.003875 0.055996
v 0.008447 -0.003875 0.056136
v 0.008345 -0.003875 0.056270
v 0.008237 -0.003875 0.056399
v 0.008121 -0.003875 0.056521
v 0.007999 -0.003875 0.056637
v 0.007870 -0.003875 0.056745
v 0.007736 -0.003875 0.056847
v 0.007596 -0.003875 0.056940
v 0.007451 -0.003875 0.057026
v 0.007302 -0.003875 0.057103
v 0.007148 -0.003875 0.057172
v 0.006991 -0.003875 0.057232
v 0.006831 -0.003875 0.057283
v 0.006668 -0.003875 0.057325
v 0.006503 -0.003875 0.057358
v 0.006336 -0.003875 0.057381
v 0.006168 -0.003875 0.057395
v 0.006000 -0.003875 0.057400
v -0.006000 -0.003875 0.057400
v -0.006168 -0.003875 0.057395
v -0.006336 -0.003875 0.057381
v -0.006503 -0.003875 0.057358
v -0.006668 -0.003875 0.057325
v -0.006831 -0.003875 0.057283
v -0.006991 -0.003875 0.057232
v -0.007148 -0.003875 0.057172
v -0.007302 -0.003875 0.057103
v -0.007451 -0.003875 0.057026
v -0.007596 -0.003875 0.056940
v -0.007736 -0.003875 0.056847
v -0.007870 -0.003875 0.056745
v -0.007999 -0.003875 0.056637
v -0.008121 -0.003875 0.056521
v -0.008237 -0.003875 0.056399
v -0.008345 -0.003875 0.056270
v -0.008447 -0.003875 0.056136
v -0.008540 -0.003875 0.055996
v -0.008626 -0.003875 0.055851
v -0.008703 -0.003875 0.055702
v -0.008772 -0.003875 0.055548
v -0.008832 -0.003875 0.055391
v -0.008883 -0.003875 0.055231
v -0.008925 -0.003875 0.055068
v -0.008958 -0.003875 0.054903
v -0.008981 -0.003875 0.054736
v -0.008995 -0.003875 0.054568
v -0.009000 -0.003875 0.054400
v -0.009000 -0.003875 0.014700
v 0.005200 -0.003875 0.056000
v 0.005734 -0.003875 0.055940
v 0.006241 -0.003875 0.055762
v 0.006696 -0.003875 0.055476
v 0.007076 -0.003875 0.055096
v 0.007362 -0.003875 0.054641
v 0.007540 -0.003875 0.054134
v 0.007600 -0.003875 0.053600
v 0.007540 -0.003875 0.053066
v 0.007362 -0.003875 0.052559
v 0.007076 -0.003875 0.052104
v 0.006696 -0.003875 0.051724
v 0.006241 -0.003875 0.051438
v 0.005734 -0.003875 0.051260
v 0.005200 -0.003875 0.051200
v -0.005200 -0.003875 0.051200
v -0.005734 -0.003875 0.051260
v -0.006241 -0.003875 0.051438
v -0.006696 -0.003875 0.051724
v -0.007076 -0.003875 0.052104
v -0.007362 -0.003875 0.052559
v -0.007540 -0.003875 0.053066
v -0.007600 -0.003875 0.053600
v -0.007540 -0.003875 0.054134
v -0.007362 -0.003875 0.054641
v -0.007076 -0.003875 0.055096
v -0.006696 -0.003875 0.055476
v -0.006241 -0.003875 0.055762
v -0.005734 -0.003875 0.055940
v -0.005200 -0.003875 0.056000
v -0.009000 0.003875 0.012400
v -0.006000 0.003875 0.012400
v 0.006000 0.003875 0.012400
v 0.009000 0.003875 0.012400
v 0.009000 0.003875 0.014700
v 0.009000 0.003875 0.054400
v 0.008995 0.003875 0.054568
v 0.008981 0.003875 0.054736
v 0.008958 0.003875 0.054903
v 0.008925 0.003875 0.055068
v 0.008883 0.003875 0.055231
v 0.008832 0.003875 0.055391
v 0.008772 0.003875 0.055548
v 0.008703 0.003875 0.055702
v 0.008626 0.003875 0.055851
v 0.008540 0.003875 0.055996
v 0.008447 0.003875 0.056136
v 0.008345 0.003875 0.056270
v 0.008237 0.003875 0.056399
v 0.008121 0.003875 0.056521
v 0.007999 0.003875 0.056637
v 0.007870 0.003875 0.056745
v 0.007736 0.003875 0.056847
v 0.007596 0.003875 0.056940
v 0.007451 0.003875 0.057026
v 0.007302 0.003875 0.057103
v 0.007148 0.003875 0.057172
v 0.006991 0.003875 0.057232
v 0.006831 0.003875 0.057283
v 0.006668 0.003875 0.057325
v 0.006503 0.003875 0.057358
v 0.006336 0.003875 0.057381
v 0.006168 0.003875 0.057395
v 0.006000 0.003875 0.057400
v -0.006000 0.003875 0.057400
v -0.006168 0.003875 0.057395
v -0.006336 0.003875 0.057381
v -0.006503 0.003875 0.057358
v -0.006668 0.003875 0.057325
v -0.006831 0.003875 0.057283
v -0.006991 0.003875 0.057232
v -0.007148 0.003875 0.057172
v -0.007302 0.003875 0.057103
v -0.007451 0.003875 0.057026
v -0.007596 0.003875 0.056940
v -0.007736 0.003875 0.056847
v -0.007870 0.003875 0.056745
v -0.007999 0.003875 0.056637
v -0.008121 0.003875 0.056521
v -0.008237 0.003875 0.056399
v -0.008345 0.003875 0.056270
v -0.008447 0.003875 0.056136
v -0.008540 0.003875 0.055996
v -0.008626 0.003875 0.055851
v -0.008703 0.003875 0.055702
v -0.008772 0.003875 0.055548
v -0.008832 0.003875 0.055391
v -0.008883 0.003875 0.055231
v -0.008925 0.003875 0.055068
v -0.008958 0.003875 0.054903
v -0.008981 0.003875 0.054736
v -0.008995 0.003875 0.054568
v -0.009000 0.003875 0.054400
v -0.009000 0.003875 0.014700
v 0.005200 0.003875 0.056000
v 0.005734 0.003875 0.055940
v 0.006241 0.003875 0.055762
v 0.006696 0.003875 0.055476
v 0.007076 0.003875 0.055096
v 0.007362 0.003875 0.054641
v 0.007540 0.003875 0.054134
v 0.007600 0.003875 0.053600
v 0.007540 0.003875 0.053066
v 0.007362 0.003875 0.052559
v 0.007076 0.003875 0.052104
v 0.006696 0.003875 0.051724
v 0.006241 0.003875 0.051438
v 0.005734 0.003875 0.051260
v 0.005200 0.003875 0.051200
v -0.005200 0.003875 0.051200
v -0.005734 0.003875 0.051260
v -0.006241 0.003875 0.051438
v -0.006696 0.003875 0.051724
v -0.007076 0.003875 0.052104
v -0.007362 0.003875 0.052559
v -0.007540 0.003875 0.053066
v -0.007600 0.003875 0.053600
v -0.007540 0.003875 0.054134
v -0.007362 0.003875 0.054641
v -0.007076 0.003875 0.055096
v -0.006696 0.003875 0.055476
v -0.006241 0.003875 0.055762
v -0.005734 0.003875 0.055940
v -0.005200 0.003875 0.056000
v 0.009000 -0.002250 0.014700
v 0.009000 -0.002250 0.012400
v 0.009000 0.002250 0.014700
v 0.009000 0.002250 0.012400
v 0.009000 -0.002250 0.054400
v 0.009000 0.002250 0.054400
v 0.008995 -0.002250 0.054568
v 0.008995 0.002250 0.054568
v 0.008981 -0.002250 0.054736
v 0.008981 0.002250 0.054736
v 0.008958 -0.002250 0.054903
v 0.008958 0.002250 0.054903
v 0.008925 -0.002250 0.055068
v 0.008925 0.002250 0.055068
v 0.008883 -0.002250 0.055231
v 0.008883 0.002250 0.055231
v 0.008832 -0.002250 0.055391
v 0.008832 0.002250 0.055391
v 0.008772 -0.002250 0.055548
v 0.008772 0.002250 0.055548
v 0.008703 -0.002250 0.055702
v 0.008703 0.002250 0.055702
v 0.008626 -0.002250 0.055851
v 0.008626 0.002250 0.055851
v 0.008540 -0.002250 0.055996
v 0.008540 0.002250 0.055996
v 0.008447 -0.002250 0.056136
v 0.008447 0.002250 0.056136
v 0.008345 -0.002250 0.056270
v 0.008345 0.002250 0.056270
v 0.008237 -0.002250 0.056399
v 0.008237 0.002250 0.056399
v 0.008121 -0.002250 0.056521
v 0.008121 0.002250 0.056521
v 0.007999 -0.002250 0.056637
v 0.007999 0.002250 0.056637
v 0.007870 -0.002250 0.056745
v 0.007870 0.002250 0.056745
v 0.007736 -0.002250 0.056847
v 0.007736 0.002250 0.056847
v 0.007596 -0.002250 0.056940
v 0.007596 0.002250 0.056940
v 0.007451 -0.002250 0.057026
v 0.007451 0.002250 0.057026
v 0.007302 -0.002250 0.057103
v 0.007302 0.002250 0.057103
v 0.007148 -0.002250 0.057172
v 0.007148 0.002250 0.057172
v 0.006991 -0.002250 0.057232
v 0.006991 0.002250 0.057232
v 0.006831 -0.002250 0.057283
v 0.006831 0.002250 0.057283
v 0.006668 -0.002250 0.057325
v 0.006668 0.002250 0.057325
v 0.006503 -0.002250 0.057358
v 0.006503 0.002250 0.057358
v 0.006336 -0.002250 0.057381
v 0.006336 0.002250 0.057381
v 0.006168 -0.002250 0.057395
v 0.006168 0.002250 0.057395
v 0.006000 -0.002250 0.057400
v 0.006000 0.002250 0.057400
v -0.006000 -0.002250 0.057400
v -0.006000 0.002250 0.057400
v -0.006168 -0.002250 0.057395
v -0.006168 0.002250 0.057395
v -0.006336 -0.002250 0.057381
v -0.006336 0.002250 0.057381
v -0.006503 -0.002250 0.057358
v -0.006503 0.002250 0.057358
v -0.006668 -0.002250 0.057325
v -0.006668 0.002250 0.057325
v -0.006831 -0.002250 0.057283
v -0.006831 0.002250 0.057283
v -0.006991 -0.002250 0.057232
v -0.006991 0.002250 0.057232
v -0.007148 -0.002250 0.057172
v -0.007148 0.002250 0.057172
v -0.007302 -0.002250 0.057103
v -0.007302 0.002250 0.057103
v -0.007451 -0.002250 0.057026
v -0.007451 0.002250 0.057026
v -0.007596 -0.002250 0.056940
v -0.007596 0.002250 0.056940
v -0.007736 -0.002250 0.056847
v -0.007736 0.002250 0.056847
v -0.007870 -0.002250 0.056745
v -0.007870 0.002250 0.056745
v -0.007999 -0.002250 0.056637
v -0.007999 0.002250 0.056637
v -0.008121 -0.002250 0.056521
v -0.008121 0.002250 0.056521
v -0.008237 -0.002250 0.056399
v -0.008237 0.002250 0.056399
v -0.008345 -0.002250 0.056270
v -0.008345 0.002250 0.056270
v -0.008447 -0.002250 0.056136
v -0.008447 0.002250 0.056136
v -0.008540 -0.002250 0.055996
v -0.008540 0.002250 0.055996
v -0.008626 -0.002250 0.055851
v -0.008626 0.002250 0.055851
v -0.008703 -0.002250 0.055702
v -0.008703 0.002250 0.055702
v -0.008772 -0.002250 0.055548
v -0.008772 0.002250 0.055548
v -0.008832 -0.002250 0.055391
v -0.008832 0.002250 0.055391
v -0.008883 -0.002250 0.055231
v -0.008883 0.002250 0.055231
v -0.008925 -0.002250 0.055068
v -0.008925 0.002250 0.055068
v -0.008958 -0.002250 0.054903
v -0.008958 0.002250 0.054903
v -0.008981 -0.002250 0.054736
v -0.008981 0.002250 0.054736
v -0.008995 -0.002250 0.054568
v -0.008995 0.002250 0.054568
v -0.009000 -0.002250 0.054400
v -0.009000 0.002250 0.054400
v -0.009000 -0.002250 0.014700
v -0.009000 0.002250 0.014700
v -0.009000 -0.002250 0.012400
v -0.009000 0.002250 0.012400
v -0.006000 -0.002250 0.012400
v -0.006000 0.002250 0.012400
v 0.006000 -0.002250 0.012400
v 0.006000 0.002250 0.012400
v -0.006000 -0.002250 0.000000
v 0.006000 -0.002250 0.000000
v 0.006000 0.002250 0.000000
v -0.006000 0.002250 0.000000
vn -0.0000 -1.0000 -0.0000
vn -0.0000 1.0000 -0.0000
vn 1.0000 -0.0000 -0.0000
vn 0.9996 -0.0000 0.0280
vn 0.9965 -0.0000 0.0840
vn 0.9902 -0.0000 0.1398
vn 0.9808 -0.0000 0.1951
vn 0.9683 -0.0000 0.2498
vn 0.9528 -0.0000 0.3037
vn 0.9342 -0.0000 0.3566
vn 0.9128 -0.0000 0.4084
vn 0.9128 -0.0000 0.4085
vn 0.8884 -0.0000 0.4590
vn 0.8885 -0.0000 0.4590
vn 0.8613 -0.0000 0.5081
vn 0.8315 -0.0000 0.5556
vn 0.7990 -0.0000 0.6013
vn 0.7640 -0.0000 0.6452
vn 0.7266 -0.0000 0.6870
vn 0.6870 -0.0000 0.7266
vn 0.6870 -0.0000 0.7267
vn 0.6452 -0.0000 0.7640
vn 0.6013 -0.0000 0.7990
vn 0.5556 -0.0000 0.8315
vn 0.5081 -0.0000 0.8613
vn 0.4590 -0.0000 0.8884
vn 0.4084 -0.0000 0.9128
vn 0.3566 -0.0000 0.9342
vn 0.3037 -0.0000 0.9528
vn 0.2498 -0.0000 0.9683
vn 0.1951 -0.0000 0.9808
vn 0.1398 -0.0000 0.9902
vn 0.0840 -0.0000 0.9965
vn 0.0281 -0.0000 0.9996
vn -0.0000 -0.0000 1.0000
vn -0.0281 -0.0000 0.9996
vn -0.0840 -0.0000 0.9965
vn -0.1398 -0.0000 0.9902
vn -0.1951 -0.0000 0.9808
vn -0.2498 -0.0000 0.9683
vn -0.3037 -0.0000 0.9528
vn -0.3566 -0.0000 0.9342
vn -0.4084 -0.0000 0.9128
vn -0.4590 -0.0000 0.8884
vn -0.5081 -0.0000 0.8613
vn -0.5556 -0.0000 0.8315
vn -0.6013 -0.0000 0.7990
vn -0.6452 -0.0000 0.7640
vn -0.6870 -0.0000 0.7266
vn -0.6870 -0.0000 0.7267
vn -0.7266 -0.0000 0.6870
vn -0.7640 -0.0000 0.6452
vn -0.7990 -0.0000 0.6013
vn -0.8315 -0.0000 0.5556
vn -0.8613 -0.0000 0.5081
vn -0.8884 -0.0000 0.4590
vn -0.8885 -0.0000 0.4590
vn -0.9128 -0.0000 0.4084
vn -0.9128 -0.0000 0.4085
vn -0.9342 -0.0000 0.3566
vn -0.9528 -0.0000 0.3037
vn -0.9683 -0.0000 0.2498
vn -0.9808 -0.0000 0.1951
vn -0.9902 -0.0000 0.1398
vn -0.9965 -0.0000 0.0840
vn -0.9996 -0.0000 0.0280
vn -1.0000 -0.0000 -0.0000
vn -0.1120 -0.0000 -0.9937
vn -0.3303 -0.0000 -0.9439
vn -0.5320 -0.0000 -0.8467
vn -0.7071 -0.0000 -0.7071
vn -0.8467 -0.0000 -0.5320
vn -0.9439 -0.0000 -0.3303
vn -0.9937 -0.0000 -0.1120
vn -0.9937 -0.0000 0.1120
vn -0.9439 -0.0000 0.3303
vn -0.8467 -0.0000 0.5320
vn -0.7071 -0.0000 0.7071
vn -0.5320 -0.0000 0.8467
vn -0.3303 -0.0000 0.9439
vn -0.1120 -0.0000 0.9937
vn 0.1120 -0.0000 0.9937
vn 0.3303 -0.0000 0.9439
vn 0.5320 -0.0000 0.8467
vn 0.7071 -0.0000 0.7071
vn 0.8467 -0.0000 0.5320
vn 0.9439 -0.0000 0.3303
vn 0.9937 -0.0000 0.1120
vn 0.9937 -0.0000 -0.1120
vn 0.9439 -0.0000 -0.3303
vn 0.8467 -0.0000 -0.5320
vn 0.7071 -0.0000 -0.7071
vn 0.5320 -0.0000 -0.8467
vn 0.3303 -0.0000 -0.9439
vn 0.1120 -0.0000 -0.9937
vn -0.0000 -0.0000 -1.0000
s 0
usemtl matte_black_plastic_collar
f 2//1 64//1 1//1
f 158//2 96//2 95//2
f 3//1 64//1 2//1
f 158//2 97//2 96//2
f 4//1 64//1 3//1
f 158//2 98//2 97//2
f 5//1 64//1 4//1
f 158//2 99//2 98//2
f 4//3 190//3 189//3 5//3
f 190//3 192//3 191//3 189//3
f 192//3 98//3 99//3 191//3
f 64//67 309//67 311//67 1//67
f 309//67 310//67 312//67 311//67
f 310//67 158//67 95//67 312//67
f 1//96 311//96 313//96 2//96
f 311//96 312//96 314//96 313//96
f 312//96 95//96 96//96 314//96
f 2//96 313//96 315//96 3//96
f 314//96 96//96 97//96 316//96
f 3//96 315//96 190//96 4//96
f 315//96 316//96 192//96 190//96
f 316//96 97//96 98//96 192//96
usemtl glossy_deep_red_body
f 5//1 63//1 64//1
f 157//2 99//2 158//2
f 84//1 63//1 5//1
f 157//2 178//2 99//2
f 83//1 84//1 5//1
f 178//2 177//2 99//2
f 82//1 83//1 5//1
f 177//2 176//2 99//2
f 81//1 82//1 5//1
f 176//2 175//2 99//2
f 80//1 81//1 5//1
f 175//2 174//2 99//2
f 79//1 80//1 5//1
f 174//2 173//2 99//2
f 78//1 79//1 5//1
f 173//2 172//2 99//2
f 77//1 78//1 5//1
f 172//2 171//2 99//2
f 76//1 77//1 5//1
f 171//2 170//2 99//2
f 75//1 76//1 5//1
f 170//2 169//2 99//2
f 6//1 75//1 5//1
f 169//2 100//2 99//2
f 85//1 63//1 84//1
f 157//2 179//2 178//2
f 6//1 74//1 75//1
f 168//2 100//2 169//2
f 86//1 63//1 85//1
f 157//2 180//2 179//2
f 6//1 73//1 74//1
f 167//2 100//2 168//2
f 87//1 63//1 86//1
f 157//2 181//2 180//2
f 6//1 72//1 73//1
f 166//2 100//2 167//2
f 88//1 63//1 87//1
f 157//2 182//2 181//2
f 6//1 71//1 72//1
f 165//2 100//2 166//2
f 89//1 63//1 88//1
f 157//2 183//2 182//2
f 6//1 70//1 71//1
f 164//2 100//2 165//2
f 89//1 62//1 63//1
f 156//2 183//2 157//2
f 7//1 70//1 6//1
f 164//2 101//2 100//2
f 89//1 61//1 62//1
f 155//2 183//2 156//2
f 8//1 70//1 7//1
f 164//2 102//2 101//2
f 90//1 61//1 89//1
f 155//2 184//2 183//2
f 8//1 69//1 70//1
f 163//2 102//2 164//2
f 90//1 60//1 61//1
f 154//2 184//2 155//2
f 9//1 69//1 8//1
f 163//2 103//2 102//2
f 90//1 59//1 60//1
f 153//2 184//2 154//2
f 10//1 69//1 9//1
f 163//2 104//2 103//2
f 90//1 58//1 59//1
f 152//2 184//2 153//2
f 11//1 69//1 10//1
f 163//2 105//2 104//2
f 91//1 58//1 90//1
f 152//2 185//2 184//2
f 11//1 68//1 69//1
f 162//2 105//2 163//2
f 91//1 57//1 58//1
f 151//2 185//2 152//2
f 12//1 68//1 11//1
f 162//2 106//2 105//2
f 91//1 56//1 57//1
f 150//2 185//2 151//2
f 13//1 68//1 12//1
f 162//2 107//2 106//2
f 92//1 56//1 91//1
f 150//2 186//2 185//2
f 13//1 67//1 68//1
f 161//2 107//2 162//2
f 92//1 55//1 56//1
f 149//2 186//2 150//2
f 14//1 67//1 13//1
f 161//2 108//2 107//2
f 92//1 54//1 55//1
f 148//2 186//2 149//2
f 15//1 67//1 14//1
f 161//2 109//2 108//2
f 93//1 54//1 92//1
f 148//2 187//2 186//2
f 15//1 66//1 67//1
f 160//2 109//2 161//2
f 93//1 53//1 54//1
f 147//2 187//2 148//2
f 16//1 66//1 15//1
f 160//2 110//2 109//2
f 94//1 53//1 93//1
f 147//2 188//2 187//2
f 16//1 65//1 66//1
f 159//2 110//2 160//2
f 94//1 52//1 53//1
f 146//2 188//2 147//2
f 17//1 65//1 16//1
f 159//2 111//2 110//2
f 65//1 52//1 94//1
f 146//2 159//2 188//2
f 17//1 52//1 65//1
f 146//2 111//2 159//2
f 17//1 51//1 52//1
f 145//2 111//2 146//2
f 18//1 51//1 17//1
f 145//2 112//2 111//2
f 18//1 50//1 51//1
f 144//2 112//2 145//2
f 19//1 50//1 18//1
f 144//2 113//2 112//2
f 19//1 49//1 50//1
f 143//2 113//2 144//2
f 20//1 49//1 19//1
f 143//2 114//2 113//2
f 20//1 48//1 49//1
f 142//2 114//2 143//2
f 21//1 48//1 20//1
f 142//2 115//2 114//2
f 21//1 47//1 48//1
f 141//2 115//2 142//2
f 22//1 47//1 21//1
f 141//2 116//2 115//2
f 22//1 46//1 47//1
f 140//2 116//2 141//2
f 23//1 46//1 22//1
f 140//2 117//2 116//2
f 23//1 45//1 46//1
f 139//2 117//2 140//2
f 24//1 45//1 23//1
f 139//2 118//2 117//2
f 24//1 44//1 45//1
f 138//2 118//2 139//2
f 25//1 44//1 24//1
f 138//2 119//2 118//2
f 25//1 43//1 44//1
f 137//2 119//2 138//2
f 26//1 43//1 25//1
f 137//2 120//2 119//2
f 26//1 42//1 43//1
f 136//2 120//2 137//2
f 27//1 42//1 26//1
f 136//2 121//2 120//2
f 27//1 41//1 42//1
f 135//2 121//2 136//2
f 28//1 41//1 27//1
f 135//2 122//2 121//2
f 28//1 40//1 41//1
f 134//2 122//2 135//2
f 29//1 40//1 28//1
f 134//2 123//2 122//2
f 29//1 39//1 40//1
f 133//2 123//2 134//2
f 30//1 39//1 29//1
f 133//2 124//2 123//2
f 30//1 38//1 39//1
f 132//2 124//2 133//2
f 31//1 38//1 30//1
f 132//2 125//2 124//2
f 31//1 37//1 38//1
f 131//2 125//2 132//2
f 32//1 37//1 31//1
f 131//2 126//2 125//2
f 32//1 36//1 37//1
f 130//2 126//2 131//2
f 33//1 36//1 32//1
f 130//2 127//2 126//2
f 33//1 35//1 36//1
f 129//2 127//2 130//2
f 34//1 35//1 33//1
f 129//2 128//2 127//2
f 5//3 189//3 193//3 6//3
f 189//3 191//3 194//3 193//3
f 191//3 99//3 100//3 194//3
f 6//4 193//4 195//4 7//4
f 193//4 194//4 196//4 195//4
f 194//4 100//4 101//4 196//4
f 7//5 195//5 197//5 8//5
f 195//5 196//5 198//5 197//5
f 196//5 101//5 102//5 198//5
f 8//6 197//6 199//6 9//6
f 197//6 198//6 200//6 199//6
f 198//6 102//6 103//6 200//6
f 9//7 199//7 201//7 10//7
f 199//7 200//7 202//7 201//7
f 200//7 103//7 104//7 202//7
f 10//8 201//8 203//8 11//8
f 201//8 202//8 204//8 203//8
f 202//8 104//8 105//8 204//8
f 11//9 203//9 205//9 12//9
f 203//9 204//9 206//9 205//9
f 204//9 105//9 106//9 206//9
f 12//10 205//10 207//10 13//10
f 205//10 206//10 208//10 207//10
f 206//10 106//10 107//10 208//10
f 13//11 207//11 209//11 14//11
f 207//12 208//12 210//12 209//12
f 208//11 107//11 108//11 210//11
f 14//13 209//13 211//13 15//13
f 209//14 210//14 212//14 211//14
f 210//13 108//13 109//13 212//13
f 15//15 211//15 213//15 16//15
f 211//15 212//15 214//15 213//15
f 212//15 109//15 110//15 214//15
f 16//16 213//16 215//16 17//16
f 213//16 214//16 216//16 215//16
f 214//16 110//16 111//16 216//16
f 17//17 215//17 217//17 18//17
f 215//17 216//17 218//17 217//17
f 216//17 111//17 112//17 218//17
f 18//18 217//18 219//18 19//18
f 217//18 218//18 220//18 219//18
f 218//18 112//18 113//18 220//18
f 19//19 219//19 221//19 20//19
f 219//19 220//19 222//19 221//19
f 220//19 113//19 114//19 222//19
f 20//20 221//20 223//20 21//20
f 221//21 222//21 224//21 223//21
f 222//20 114//20 115//20 224//20
f 21//22 223//22 225//22 22//22
f 223//22 224//22 226//22 225//22
f 224//22 115//22 116//22 226//22
f 22//23 225//23 227//23 23//23
f 225//23 226//23 228//23 227//23
f 226//23 116//23 117//23 228//23
f 23//24 227//24 229//24 24//24
f 227//24 228//24 230//24 229//24
f 228//24 117//24 118//24 230//24
f 24//25 229//25 231//25 25//25
f 229//25 230//25 232//25 231//25
f 230//25 118//25 119//25 232//25
f 25//26 231//26 233//26 26//26
f 231//26 232//26 234//26 233//26
f 232//26 119//26 120//26 234//26
f 26//27 233//27 235//27 27//27
f 233//27 234//27 236//27 235//27
f 234//27 120//27 121//27 236//27
f 27//28 235//28 237//28 28//28
f 235//28 236//28 238//28 237//28
f 236//28 121//28 122//28 238//28
f 28//29 237//29 239//29 29//29
f 237//29 238//29 240//29 239//29
f 238//29 122//29 123//29 240//29
f 29//30 239//30 241//30 30//30
f 239//30 240//30 242//30 241//30
f 240//30 123//30 124//30 242//30
f 30//31 241//31 243//31 31//31
f 241//31 242//31 244//31 243//31
f 242//31 124//31 125//31 244//31
f 31//32 243//32 245//32 32//32
f 243//32 244//32 246//32 245//32
f 244//32 125//32 126//32 246//32
f 32//33 245//33 247//33 33//33
f 245//33 246//33 248//33 247//33
f 246//33 126//33 127//33 248//33
f 33//34 247//34 249//34 34//34
f 247//34 248//34 250//34 249//34
f 248//34 127//34 128//34 250//34
f 34//35 249//35 251//35 35//35
f 249//35 250//35 252//35 251//35
f 250//35 128//35 129//35 252//35
f 35//36 251//36 253//36 36//36
f 251//36 252//36 254//36 253//36
f 252//36 129//36 130//36 254//36
f 36//37 253//37 255//37 37//37
f 253//37 254//37 256//37 255//37
f 254//37 130//37 131//37 256//37
f 37//38 255//38 257//38 38//38
f 255//38 256//38 258//38 257//38
f 256//38 131//38 132//38 258//38
f 38//39 257//39 259//39 39//39
f 257//39 258//39 260//39 259//39
f 258//39 132//39 133//39 260//39
f 39//40 259//40 261//40 40//40
f 259//40 260//40 262//40 261//40
f 260//40 133//40 134//40 262//40
f 40//41 261//41 263//41 41//41
f 261//41 262//41 264//41 263//41
f 262//41 134//41 135//41 264//41
f 41//42 263//42 265//42 42//42
f 263//42 264//42 266//42 265//42
f 264//42 135//42 136//42 266//42
f 42//43 265//43 267//43 43//43
f 265//43 266//43 268//43 267//43
f 266//43 136//43 137//43 268//43
f 43//44 267//44 269//44 44//44
f 267//44 268//44 270//44 269//44
f 268//44 137//44 138//44 270//44
f 44//45 269//45 271//45 45//45
f 269//45 270//45 272//45 271//45
f 270//45 138//45 139//45 272//45
f 45//46 271//46 273//46 46//46
f 271//46 272//46 274//46 273//46
f 272//46 139//46 140//46 274//46
f 46//47 273//47 275//47 47//47
f 273//47 274//47 276//47 275//47
f 274//47 140//47 141//47 276//47
f 47//48 275//48 277//48 48//48
f 275//48 276//48 278//48 277//48
f 276//48 141//48 142//48 278//48
f 48//49 277//49 279//49 49//49
f 277//50 278//50 280//50 279//50
f 278//49 142//49 143//49 280//49
f 49//51 279//51 281//51 50//51
f 279//51 280//51 282//51 281//51
f 280//51 143//51 144//51 282//51
f 50//52 281//52 283//52 51//52
f 281//52 282//52 284//52 283//52
f 282//52 144//52 145//52 284//52
f 51//53 283//53 285//53 52//53
f 283//53 284//53 286//53 285//53
f 284//53 145//53 146//53 286//53
f 52//54 285//54 287//54 53//54
f 285//54 286//54 288//54 287//54
f 286//54 146//54 147//54 288//54
f 53//55 287//55 289//55 54//55
f 287//55 288//55 290//55 289//55
f 288//55 147//55 148//55 290//55
f 54//56 289//56 291//56 55//56
f 289//57 290//57 292//57 291//57
f 290//56 148//56 149//56 292//56
f 55//58 291//58 293//58 56//58
f 291//59 292//59 294//59 293//59
f 292//58 149//58 150//58 294//58
f 56//60 293//60 295//60 57//60
f 293//60 294//60 296//60 295//60
f 294//60 150//60 151//60 296//60
f 57//61 295//61 297//61 58//61
f 295//61 296//61 298//61 297//61
f 296//61 151//61 152//61 298//61
f 58//62 297//62 299//62 59//62
f 297//62 298//62 300//62 299//62
f 298//62 152//62 153//62 300//62
f 59//63 299//63 301//63 60//63
f 299//63 300//63 302//63 301//63
f 300//63 153//63 154//63 302//63
f 60//64 301//64 303//64 61//64
f 301//64 302//64 304//64 303//64
f 302//64 154//64 155//64 304//64
f 61//65 303//65 305//65 62//65
f 303//65 304//65 306//65 305//65
f 304//65 155//65 156//65 306//65
f 62//66 305//66 307//66 63//66
f 305//66 306//66 308//66 307//66
f 306//66 156//66 157//66 308//66
f 63//67 307//67 309//67 64//67
f 307//67 308//67 310//67 309//67
f 308//67 157//67 158//67 310//67
f 65//68 159//68 160//68 66//68
f 66//69 160//69 161//69 67//69
f 67//70 161//70 162//70 68//70
f 68//71 162//71 163//71 69//71
f 69//72 163//72 164//72 70//72
f 70//73 164//73 165//73 71//73
f 71//74 165//74 166//74 72//74
f 72//75 166//75 167//75 73//75
f 73//76 167//76 168//76 74//76
f 74//77 168//77 169//77 75//77
f 75//78 169//78 170//78 76//78
f 76//79 170//79 171//79 77//79
f 77//80 171//80 172//80 78//80
f 78//81 172//81 173//81 79//81
f 79//35 173//35 174//35 80//35
f 80//82 174//82 175//82 81//82
f 81//83 175//83 176//83 82//83
f 82//84 176//84 177//84 83//84
f 83//85 177//85 178//85 84//85
f 84//86 178//86 179//86 85//86
f 85//87 179//87 180//87 86//87
f 86//88 180//88 181//88 87//88
f 87//89 181//89 182//89 88//89
f 88//90 182//90 183//90 89//90
f 89//91 183//91 184//91 90//91
f 90//92 184//92 185//92 91//92
f 91//93 185//93 186//93 92//93
f 92//94 186//94 187//94 93//94
f 93//95 187//95 188//95 94//95
f 94//96 188//96 159//96 65//96
usemtl brushed_silver_usb_metal
f 317//96 320//96 319//96 318//96
f 317//1 318//1 315//1 313//1
f 318//3 319//3 316//3 315//3
f 319//2 320//2 314//2 316//2
f 320//67 317//67 313//67 314//67
