mtllib USB_slot_target_2mm.mtl
o USB_slot_target_2mm
v -0.025000000 -0.025000000 0.000000000
v -0.025000000 -0.025000000 0.005000000
v -0.025000000 -0.003250000 0.005000000
v -0.025000000 -0.003250000 0.000000000
v -0.007000000 -0.025000000 0.000000000
v -0.007000000 -0.025000000 0.005000000
v -0.007000000 -0.003250000 0.000000000
v -0.025000000 -0.025000000 0.020000000
v -0.025000000 -0.003250000 0.020000000
v -0.007000000 -0.025000000 0.020000000
v -0.007000000 -0.003250000 0.020000000
v -0.025000000 0.003250000 0.005000000
v -0.025000000 0.003250000 0.000000000
v -0.007000000 0.003250000 0.000000000
v -0.025000000 0.003250000 0.020000000
v -0.007000000 -0.003250000 0.005000000
v -0.007000000 0.003250000 0.005000000
v -0.007000000 0.003250000 0.020000000
v -0.025000000 0.025000000 0.005000000
v -0.025000000 0.025000000 0.000000000
v -0.007000000 0.025000000 0.005000000
v -0.007000000 0.025000000 0.000000000
v -0.025000000 0.025000000 0.020000000
v -0.007000000 0.025000000 0.020000000
v 0.007000000 -0.025000000 0.000000000
v 0.007000000 -0.025000000 0.005000000
v 0.007000000 -0.003250000 0.000000000
v 0.007000000 -0.025000000 0.020000000
v 0.007000000 -0.003250000 0.020000000
v 0.007000000 -0.003250000 0.005000000
v 0.007000000 0.003250000 0.000000000
v 0.007000000 0.003250000 0.005000000
v 0.007000000 0.025000000 0.005000000
v 0.007000000 0.025000000 0.000000000
v 0.007000000 0.003250000 0.020000000
v 0.007000000 0.025000000 0.020000000
v 0.025000000 -0.025000000 0.000000000
v 0.025000000 -0.003250000 0.000000000
v 0.025000000 -0.003250000 0.005000000
v 0.025000000 -0.025000000 0.005000000
v 0.025000000 -0.003250000 0.020000000
v 0.025000000 -0.025000000 0.020000000
v 0.025000000 0.003250000 0.000000000
v 0.025000000 0.003250000 0.005000000
v 0.025000000 0.003250000 0.020000000
v 0.025000000 0.025000000 0.000000000
v 0.025000000 0.025000000 0.005000000
v 0.025000000 0.025000000 0.020000000
usemtl usb_slot
f 1 2 3 4
f 1 5 6 2
f 1 4 7 5
f 2 8 9 3
f 2 6 10 8
f 8 10 11 9
f 4 3 12 13
f 4 13 14 7
f 3 9 15 12
f 16 17 18 11
f 9 11 18 15
f 13 12 19 20
f 20 19 21 22
f 13 20 22 14
f 12 15 23 19
f 19 23 24 21
f 15 18 24 23
f 5 25 26 6
f 5 7 27 25
f 6 26 28 10
f 16 11 29 30
f 10 28 29 11
f 7 14 31 27
f 16 30 32 17
f 22 21 33 34
f 14 22 34 31
f 17 32 35 18
f 21 24 36 33
f 18 35 36 24
f 37 38 39 40
f 25 37 40 26
f 25 27 38 37
f 40 39 41 42
f 26 40 42 28
f 28 42 41 29
f 38 43 44 39
f 27 31 43 38
f 30 29 35 32
f 39 44 45 41
f 29 41 45 35
f 43 46 47 44
f 34 33 47 46
f 31 34 46 43
f 44 47 48 45
f 33 36 48 47
f 35 45 48 36
