# Wooden cube
# Units: meters
# Coordinate system: Z up

mtllib Cube_red.mtl
o Cube_red

v -0.015000000 -0.015000000  0.000000000
v  0.015000000 -0.015000000  0.000000000
v  0.015000000  0.015000000  0.000000000
v -0.015000000  0.015000000  0.000000000
v -0.015000000 -0.015000000  0.030000000
v  0.015000000 -0.015000000  0.030000000
v  0.015000000  0.015000000  0.030000000
v -0.015000000  0.015000000  0.030000000

usemtl Cube_red
s off

f 1 4 3 2
f 5 6 7 8
f 1 2 6 5
f 2 3 7 6
f 3 4 8 7
f 4 1 5 8
