# Yellow square frame
# Units: meters
# Coordinate system: Z up
# Origin: center of the bottom face

mtllib square_frame_yellow.mtl
o square_frame_yellow

v -0.050000000 -0.050000000  0.000000000
v  0.050000000 -0.050000000  0.000000000
v  0.050000000  0.050000000  0.000000000
v -0.050000000  0.050000000  0.000000000
v -0.045000000 -0.045000000  0.000000000
v  0.045000000 -0.045000000  0.000000000
v  0.045000000  0.045000000  0.000000000
v -0.045000000  0.045000000  0.000000000
v -0.050000000 -0.050000000  0.002000000
v  0.050000000 -0.050000000  0.002000000
v  0.050000000  0.050000000  0.002000000
v -0.050000000  0.050000000  0.002000000
v -0.045000000 -0.045000000  0.002000000
v  0.045000000 -0.045000000  0.002000000
v  0.045000000  0.045000000  0.002000000
v -0.045000000  0.045000000  0.002000000

usemtl square_frame_yellow
s off

f 9 10 14 13
f 10 11 15 14
f 11 12 16 15
f 12 9 13 16

f 1 5 6 2
f 2 6 7 3
f 3 7 8 4
f 4 8 5 1

f 1 2 10 9
f 2 3 11 10
f 3 4 12 11
f 4 1 9 12

f 5 13 14 6
f 6 14 15 7
f 7 15 16 8
f 8 16 13 5
