mtllib gear_pair_base.mtl
o gear_pair_base
v -0.079999998 -0.050000001 0.000000000
v -0.079999998 -0.050000001 0.005000000
v -0.047000000 -0.010000000 0.005000000
v -0.047000000 -0.010000000 0.006700000
v -0.041242642 -0.004242640 0.006700000
v -0.041638063 -0.003806360 0.006700000
v -0.041988818 -0.003333421 0.006700000
v -0.042291527 -0.002828380 0.006700000
v -0.042543279 -0.002296101 0.006700000
v -0.042741643 -0.001741708 0.006700000
v -0.042884713 -0.001170542 0.006700000
v -0.042971110 -0.000588103 0.006700000
v -0.027000001 -0.010000000 0.005000000
v -0.039828380 -0.005291528 0.006700000
v -0.040333422 -0.004988817 0.006700000
v -0.039296100 -0.005543277 0.006700000
v -0.038741710 -0.005741642 0.006700000
v -0.040806359 -0.004638063 0.006700000
v -0.038170541 -0.005884712 0.006700000
v -0.037588103 -0.005971109 0.006700000
v -0.036999998 -0.006000000 0.006700000
v -0.036411898 -0.005971109 0.006700000
v -0.035829456 -0.005884712 0.006700000
v -0.035258291 -0.005741642 0.006700000
v -0.034703901 -0.005543277 0.006700000
v -0.034171620 -0.005291528 0.006700000
v -0.033666579 -0.004988817 0.006700000
v -0.033193642 -0.004638063 0.006700000
v -0.032757358 -0.004242640 0.006700000
v -0.032361938 -0.003806360 0.006700000
v -0.032011183 -0.003333421 0.006700000
v -0.031708473 -0.002828380 0.006700000
v -0.031456724 -0.002296101 0.006700000
v -0.031258358 -0.001741708 0.006700000
v -0.031115288 -0.001170542 0.006700000
v -0.031028891 -0.000588103 0.006700000
v -0.027000001 -0.010000000 0.006700000
v -0.041242642 -0.004242640 0.026699999
v -0.041638063 -0.003806360 0.026699999
v -0.041988818 -0.003333421 0.026699999
v -0.042291527 -0.002828380 0.026699999
v -0.042543279 -0.002296101 0.026699999
v -0.042741643 -0.001741708 0.026699999
v -0.042884713 -0.001170542 0.026699999
v -0.042971110 -0.000588103 0.026699999
v -0.039828380 -0.005291528 0.026699999
v -0.040333422 -0.004988817 0.026699999
v -0.039296100 -0.005543277 0.026699999
v -0.038741710 -0.005741642 0.026699999
v -0.040806359 -0.004638063 0.026699999
v -0.038170541 -0.005884712 0.026699999
v -0.037588103 -0.005971109 0.026699999
v -0.036999998 -0.006000000 0.026699999
v -0.036411898 -0.005971109 0.026699999
v -0.035829456 -0.005884712 0.026699999
v -0.035258291 -0.005741642 0.026699999
v -0.034703901 -0.005543277 0.026699999
v -0.034171620 -0.005291528 0.026699999
v -0.033666579 -0.004988817 0.026699999
v -0.033193642 -0.004638063 0.026699999
v -0.032757358 -0.004242640 0.026699999
v -0.032361938 -0.003806360 0.026699999
v -0.032011183 -0.003333421 0.026699999
v -0.031708473 -0.002828380 0.026699999
v -0.031456724 -0.002296101 0.026699999
v -0.031258358 -0.001741708 0.026699999
v -0.031115288 -0.001170542 0.026699999
v -0.031028891 -0.000588103 0.026699999
v -0.047000000 0.010000000 0.005000000
v -0.042999999 0.000000000 0.006700000
v -0.042971110 0.000588103 0.006700000
v -0.042884713 0.001170542 0.006700000
v -0.042741643 0.001741708 0.006700000
v -0.042543279 0.002296101 0.006700000
v -0.042291527 0.002828380 0.006700000
v -0.041988818 0.003333421 0.006700000
v -0.041638063 0.003806360 0.006700000
v -0.041242642 0.004242640 0.006700000
v -0.047000000 0.010000000 0.006700000
v -0.079999998 0.050000001 0.000000000
v -0.079999998 0.050000001 0.005000000
v -0.027000001 0.010000000 0.005000000
v -0.040806359 0.004638063 0.006700000
v -0.040333422 0.004988817 0.006700000
v -0.039828380 0.005291528 0.006700000
v -0.039296100 0.005543277 0.006700000
v -0.038741710 0.005741642 0.006700000
v -0.038170541 0.005884712 0.006700000
v -0.037588103 0.005971109 0.006700000
v -0.036999998 0.006000000 0.006700000
v -0.036411898 0.005971109 0.006700000
v -0.031028891 0.000588103 0.006700000
v -0.031115288 0.001170542 0.006700000
v -0.031258358 0.001741708 0.006700000
v -0.031456724 0.002296101 0.006700000
v -0.031708473 0.002828380 0.006700000
v -0.035829456 0.005884712 0.006700000
v -0.035258291 0.005741642 0.006700000
v -0.034171620 0.005291528 0.006700000
v -0.033666579 0.004988817 0.006700000
v -0.034703901 0.005543277 0.006700000
v -0.032361938 0.003806360 0.006700000
v -0.033193642 0.004638063 0.006700000
v -0.032757358 0.004242640 0.006700000
v -0.032011183 0.003333421 0.006700000
v -0.030999999 0.000000000 0.006700000
v -0.027000001 0.010000000 0.006700000
v -0.042999999 0.000000000 0.026699999
v -0.042971110 0.000588103 0.026699999
v -0.042884713 0.001170542 0.026699999
v -0.042741643 0.001741708 0.026699999
v -0.042543279 0.002296101 0.026699999
v -0.042291527 0.002828380 0.026699999
v -0.041988818 0.003333421 0.026699999
v -0.041638063 0.003806360 0.026699999
v -0.041242642 0.004242640 0.026699999
v -0.036999998 0.000000000 0.026699999
v -0.040806359 0.004638063 0.026699999
v -0.040333422 0.004988817 0.026699999
v -0.039828380 0.005291528 0.026699999
v -0.039296100 0.005543277 0.026699999
v -0.038741710 0.005741642 0.026699999
v -0.038170541 0.005884712 0.026699999
v -0.037588103 0.005971109 0.026699999
v -0.036999998 0.006000000 0.026699999
v -0.036411898 0.005971109 0.026699999
v -0.031028891 0.000588103 0.026699999
v -0.031115288 0.001170542 0.026699999
v -0.031258358 0.001741708 0.026699999
v -0.031456724 0.002296101 0.026699999
v -0.031708473 0.002828380 0.026699999
v -0.035829456 0.005884712 0.026699999
v -0.035258291 0.005741642 0.026699999
v -0.034171620 0.005291528 0.026699999
v -0.033666579 0.004988817 0.026699999
v -0.034703901 0.005543277 0.026699999
v -0.032361938 0.003806360 0.026699999
v -0.033193642 0.004638063 0.026699999
v -0.032757358 0.004242640 0.026699999
v -0.032011183 0.003333421 0.026699999
v -0.030999999 0.000000000 0.026699999
v 0.027000001 -0.010000000 0.005000000
v 0.027000001 -0.010000000 0.006700000
v 0.032011183 -0.003333421 0.006700000
v 0.032757358 -0.004242640 0.006700000
v 0.033193642 -0.004638063 0.006700000
v 0.032361938 -0.003806360 0.006700000
v 0.034703901 -0.005543277 0.006700000
v 0.033666579 -0.004988817 0.006700000
v 0.034171620 -0.005291528 0.006700000
v 0.035258291 -0.005741642 0.006700000
v 0.035829456 -0.005884712 0.006700000
v 0.031708473 -0.002828380 0.006700000
v 0.031456724 -0.002296101 0.006700000
v 0.031258358 -0.001741708 0.006700000
v 0.031115288 -0.001170542 0.006700000
v 0.031028891 -0.000588103 0.006700000
v 0.036411898 -0.005971109 0.006700000
v 0.036999998 -0.006000000 0.006700000
v 0.037588103 -0.005971109 0.006700000
v 0.038170541 -0.005884712 0.006700000
v 0.038741710 -0.005741642 0.006700000
v 0.039296100 -0.005543277 0.006700000
v 0.039828380 -0.005291528 0.006700000
v 0.040333422 -0.004988817 0.006700000
v 0.040806359 -0.004638063 0.006700000
v 0.079999998 -0.050000001 0.000000000
v 0.079999998 -0.050000001 0.005000000
v 0.047000000 -0.010000000 0.005000000
v 0.047000000 -0.010000000 0.006700000
v 0.041242642 -0.004242640 0.006700000
v 0.041638063 -0.003806360 0.006700000
v 0.041988818 -0.003333421 0.006700000
v 0.042291527 -0.002828380 0.006700000
v 0.042543279 -0.002296101 0.006700000
v 0.042741643 -0.001741708 0.006700000
v 0.042884713 -0.001170542 0.006700000
v 0.042971110 -0.000588103 0.006700000
v 0.032011183 -0.003333421 0.026699999
v 0.032757358 -0.004242640 0.026699999
v 0.033193642 -0.004638063 0.026699999
v 0.032361938 -0.003806360 0.026699999
v 0.034703901 -0.005543277 0.026699999
v 0.033666579 -0.004988817 0.026699999
v 0.034171620 -0.005291528 0.026699999
v 0.035258291 -0.005741642 0.026699999
v 0.035829456 -0.005884712 0.026699999
v 0.031708473 -0.002828380 0.026699999
v 0.031456724 -0.002296101 0.026699999
v 0.031258358 -0.001741708 0.026699999
v 0.031115288 -0.001170542 0.026699999
v 0.031028891 -0.000588103 0.026699999
v 0.036411898 -0.005971109 0.026699999
v 0.036999998 -0.006000000 0.026699999
v 0.037588103 -0.005971109 0.026699999
v 0.038170541 -0.005884712 0.026699999
v 0.038741710 -0.005741642 0.026699999
v 0.039296100 -0.005543277 0.026699999
v 0.039828380 -0.005291528 0.026699999
v 0.040333422 -0.004988817 0.026699999
v 0.040806359 -0.004638063 0.026699999
v 0.041242642 -0.004242640 0.026699999
v 0.041638063 -0.003806360 0.026699999
v 0.041988818 -0.003333421 0.026699999
v 0.042291527 -0.002828380 0.026699999
v 0.042543279 -0.002296101 0.026699999
v 0.042741643 -0.001741708 0.026699999
v 0.042884713 -0.001170542 0.026699999
v 0.042971110 -0.000588103 0.026699999
v 0.027000001 0.010000000 0.005000000
v 0.027000001 0.010000000 0.006700000
v 0.030999999 0.000000000 0.006700000
v 0.031028891 0.000588103 0.006700000
v 0.031115288 0.001170542 0.006700000
v 0.031258358 0.001741708 0.006700000
v 0.031456724 0.002296101 0.006700000
v 0.031708473 0.002828380 0.006700000
v 0.032011183 0.003333421 0.006700000
v 0.032361938 0.003806360 0.006700000
v 0.032757358 0.004242640 0.006700000
v 0.033193642 0.004638063 0.006700000
v 0.033666579 0.004988817 0.006700000
v 0.034171620 0.005291528 0.006700000
v 0.034703901 0.005543277 0.006700000
v 0.035258291 0.005741642 0.006700000
v 0.035829456 0.005884712 0.006700000
v 0.036411898 0.005971109 0.006700000
v 0.036999998 0.006000000 0.006700000
v 0.037588103 0.005971109 0.006700000
v 0.038170541 0.005884712 0.006700000
v 0.040806359 0.004638063 0.006700000
v 0.038741710 0.005741642 0.006700000
v 0.039296100 0.005543277 0.006700000
v 0.040333422 0.004988817 0.006700000
v 0.039828380 0.005291528 0.006700000
v 0.047000000 0.010000000 0.005000000
v 0.042999999 0.000000000 0.006700000
v 0.042971110 0.000588103 0.006700000
v 0.042884713 0.001170542 0.006700000
v 0.042741643 0.001741708 0.006700000
v 0.042543279 0.002296101 0.006700000
v 0.042291527 0.002828380 0.006700000
v 0.041988818 0.003333421 0.006700000
v 0.041638063 0.003806360 0.006700000
v 0.041242642 0.004242640 0.006700000
v 0.047000000 0.010000000 0.006700000
v 0.079999998 0.050000001 0.000000000
v 0.079999998 0.050000001 0.005000000
v 0.030999999 0.000000000 0.026699999
v 0.031028891 0.000588103 0.026699999
v 0.031115288 0.001170542 0.026699999
v 0.031258358 0.001741708 0.026699999
v 0.031456724 0.002296101 0.026699999
v 0.031708473 0.002828380 0.026699999
v 0.032011183 0.003333421 0.026699999
v 0.032361938 0.003806360 0.026699999
v 0.032757358 0.004242640 0.026699999
v 0.033193642 0.004638063 0.026699999
v 0.033666579 0.004988817 0.026699999
v 0.034171620 0.005291528 0.026699999
v 0.034703901 0.005543277 0.026699999
v 0.035258291 0.005741642 0.026699999
v 0.035829456 0.005884712 0.026699999
v 0.036999998 0.000000000 0.026699999
v 0.036411898 0.005971109 0.026699999
v 0.036999998 0.006000000 0.026699999
v 0.037588103 0.005971109 0.026699999
v 0.038170541 0.005884712 0.026699999
v 0.040806359 0.004638063 0.026699999
v 0.038741710 0.005741642 0.026699999
v 0.039296100 0.005543277 0.026699999
v 0.040333422 0.004988817 0.026699999
v 0.039828380 0.005291528 0.026699999
v 0.042999999 0.000000000 0.026699999
v 0.042971110 0.000588103 0.026699999
v 0.042884713 0.001170542 0.026699999
v 0.042741643 0.001741708 0.026699999
v 0.042543279 0.002296101 0.026699999
v 0.042291527 0.002828380 0.026699999
v 0.041988818 0.003333421 0.026699999
v 0.041638063 0.003806360 0.026699999
v 0.041242642 0.004242640 0.026699999
usemtl gear_pair_base_black
f 1 2 81
f 2 13 3
f 2 3 69
f 1 167 2
f 1 80 167
f 2 169 142
f 2 142 210
f 2 248 13
f 2 69 81
f 1 81 80
f 81 69 82
f 80 81 248
f 81 82 248
f 2 168 169
f 2 167 168
f 168 236 169
f 167 247 168
f 2 210 248
f 248 82 13
f 80 247 167
f 80 248 247
f 248 210 236
f 168 248 236
f 168 247 248
f 4 69 3
f 4 18 5
f 4 14 15
f 4 15 18
f 4 17 16
f 4 19 17
f 4 16 14
f 4 6 7
f 4 7 8
f 4 8 9
f 4 10 11
f 4 11 12
f 4 9 10
f 4 12 70
f 4 70 71
f 4 5 6
f 4 71 72
f 4 72 73
f 4 3 37
f 37 3 13
f 37 13 107
f 4 20 19
f 4 21 20
f 4 22 21
f 4 23 22
f 4 24 23
f 4 37 24
f 37 25 24
f 37 26 25
f 37 27 26
f 37 28 27
f 37 29 28
f 37 30 29
f 37 31 30
f 37 32 31
f 37 33 32
f 37 34 33
f 37 35 34
f 37 36 35
f 37 106 36
f 37 92 106
f 37 93 92
f 4 79 69
f 4 73 79
f 79 73 74
f 79 74 75
f 79 75 76
f 79 76 77
f 79 77 78
f 79 78 83
f 79 83 84
f 79 84 85
f 79 85 86
f 79 86 87
f 79 87 88
f 79 82 69
f 79 107 82
f 107 13 82
f 79 88 89
f 79 89 90
f 79 90 91
f 79 91 97
f 79 97 107
f 107 97 98
f 107 98 101
f 107 101 99
f 107 100 103
f 107 99 100
f 37 107 93
f 107 94 93
f 107 95 94
f 107 96 95
f 107 105 96
f 107 102 105
f 107 104 102
f 107 103 104
f 38 5 18
f 39 6 5
f 40 7 6
f 42 9 8
f 43 10 9
f 41 8 7
f 45 12 11
f 44 11 10
f 108 70 12
f 38 39 5
f 39 40 6
f 40 41 7
f 41 42 8
f 42 43 9
f 44 45 11
f 43 44 10
f 45 108 12
f 50 18 15
f 47 15 14
f 48 16 17
f 49 17 19
f 46 14 16
f 51 19 20
f 52 20 21
f 53 21 22
f 54 22 23
f 55 23 24
f 56 24 25
f 57 25 26
f 58 26 27
f 59 27 28
f 60 28 29
f 61 29 30
f 62 30 31
f 63 31 32
f 64 32 33
f 65 33 34
f 66 34 35
f 67 35 36
f 68 36 106
f 47 50 15
f 46 47 14
f 48 17 49
f 46 16 48
f 38 18 50
f 49 19 51
f 51 20 52
f 52 21 53
f 53 22 54
f 54 23 55
f 55 24 56
f 56 25 57
f 57 26 58
f 58 27 59
f 59 28 60
f 60 29 61
f 61 30 62
f 62 31 63
f 63 32 64
f 64 33 65
f 65 34 66
f 66 35 67
f 67 36 68
f 68 106 141
f 47 117 50
f 46 48 117
f 46 117 47
f 51 52 117
f 48 49 117
f 49 51 117
f 52 53 117
f 53 54 117
f 54 55 117
f 55 56 117
f 39 117 40
f 38 117 39
f 40 117 41
f 41 117 42
f 38 50 117
f 42 117 43
f 43 117 44
f 44 117 45
f 45 117 108
f 56 57 117
f 57 58 117
f 58 59 117
f 59 60 117
f 60 61 117
f 61 62 117
f 62 63 117
f 63 64 117
f 64 65 117
f 65 66 117
f 66 67 117
f 67 68 117
f 68 141 117
f 109 71 70
f 110 72 71
f 111 73 72
f 112 74 73
f 113 75 74
f 114 76 75
f 115 77 76
f 116 78 77
f 108 109 70
f 109 110 71
f 110 111 72
f 111 112 73
f 112 113 74
f 113 114 75
f 114 115 76
f 115 116 77
f 116 118 78
f 118 83 78
f 119 84 83
f 120 85 84
f 121 86 85
f 122 87 86
f 123 88 87
f 124 89 88
f 125 90 89
f 126 91 90
f 132 97 91
f 141 106 92
f 127 92 93
f 128 93 94
f 129 94 95
f 131 96 105
f 130 95 96
f 133 98 97
f 136 101 98
f 134 99 101
f 135 100 99
f 139 104 103
f 137 102 104
f 140 105 102
f 138 103 100
f 118 119 83
f 119 120 84
f 120 121 85
f 121 122 86
f 122 123 87
f 123 124 88
f 124 125 89
f 125 126 90
f 126 132 91
f 127 141 92
f 127 93 128
f 128 94 129
f 129 95 130
f 130 96 131
f 132 133 97
f 133 136 98
f 134 101 136
f 135 138 100
f 134 135 99
f 138 139 103
f 137 104 139
f 131 105 140
f 137 140 102
f 108 117 109
f 109 117 110
f 110 117 111
f 111 117 112
f 112 117 113
f 113 117 114
f 114 117 115
f 115 117 116
f 116 117 118
f 117 119 118
f 117 120 119
f 117 121 120
f 117 122 121
f 117 123 122
f 117 124 123
f 117 133 132
f 117 125 124
f 117 126 125
f 117 132 126
f 117 131 140
f 117 139 138
f 117 137 139
f 117 140 137
f 117 141 127
f 117 127 128
f 117 128 129
f 117 129 130
f 117 130 131
f 117 136 133
f 117 135 134
f 117 134 136
f 117 138 135
f 143 210 142
f 143 142 170
f 170 142 169
f 143 146 145
f 143 145 147
f 143 147 144
f 143 144 153
f 143 153 154
f 143 154 155
f 143 155 156
f 143 156 211
f 143 150 149
f 143 149 146
f 143 148 150
f 143 151 148
f 143 152 151
f 143 170 152
f 170 158 152
f 170 159 158
f 170 160 159
f 170 161 160
f 170 169 246
f 170 162 161
f 170 163 162
f 170 164 163
f 170 165 164
f 170 166 165
f 170 171 166
f 170 172 171
f 170 173 172
f 170 174 173
f 170 175 174
f 170 176 175
f 170 246 176
f 143 211 210
f 211 236 210
f 211 246 236
f 211 156 157
f 211 157 212
f 211 212 213
f 211 213 214
f 211 214 215
f 211 215 216
f 211 216 217
f 211 217 218
f 211 218 219
f 211 219 220
f 211 220 221
f 211 221 222
f 211 222 223
f 211 223 224
f 211 224 225
f 211 225 246
f 246 225 226
f 246 226 227
f 246 227 228
f 246 228 229
f 246 229 230
f 246 169 236
f 246 177 176
f 246 178 177
f 246 245 244
f 246 237 178
f 246 238 237
f 246 241 240
f 246 239 238
f 246 240 239
f 246 242 241
f 246 243 242
f 246 244 243
f 246 233 235
f 246 230 232
f 246 232 233
f 246 234 231
f 246 235 234
f 246 231 245
f 181 146 149
f 179 144 147
f 182 147 145
f 180 145 146
f 184 149 150
f 185 150 148
f 183 148 151
f 186 151 152
f 189 154 153
f 188 153 144
f 190 155 154
f 191 156 155
f 192 157 156
f 249 212 157
f 187 152 158
f 193 158 159
f 194 159 160
f 195 160 161
f 196 161 162
f 197 162 163
f 198 163 164
f 199 164 165
f 200 165 166
f 201 166 171
f 179 147 182
f 179 188 144
f 180 182 145
f 180 146 181
f 184 150 185
f 181 149 184
f 183 185 148
f 183 151 186
f 186 152 187
f 188 189 153
f 189 190 154
f 190 191 155
f 191 192 156
f 192 249 157
f 187 158 193
f 193 159 194
f 194 160 195
f 195 161 196
f 196 162 197
f 197 163 198
f 198 164 199
f 199 165 200
f 200 166 201
f 181 184 264
f 183 264 185
f 184 185 264
f 183 186 264
f 188 264 189
f 189 264 190
f 190 264 191
f 191 264 192
f 192 264 249
f 179 182 264
f 180 264 182
f 180 181 264
f 179 264 188
f 187 193 264
f 193 194 264
f 194 195 264
f 186 187 264
f 195 196 264
f 196 197 264
f 197 198 264
f 198 199 264
f 199 200 264
f 200 201 264
f 201 202 264
f 202 203 264
f 203 204 264
f 204 205 264
f 205 206 264
f 206 207 264
f 207 208 264
f 208 209 264
f 209 274 264
f 202 171 172
f 203 172 173
f 204 173 174
f 205 174 175
f 206 175 176
f 207 176 177
f 208 177 178
f 209 178 237
f 201 171 202
f 202 172 203
f 203 173 204
f 204 174 205
f 205 175 206
f 206 176 207
f 207 177 208
f 208 178 209
f 209 237 274
f 250 213 212
f 251 214 213
f 252 215 214
f 253 216 215
f 254 217 216
f 255 218 217
f 256 219 218
f 257 220 219
f 258 221 220
f 259 222 221
f 260 223 222
f 261 224 223
f 262 225 224
f 263 226 225
f 265 227 226
f 266 228 227
f 267 229 228
f 268 230 229
f 273 235 233
f 270 232 230
f 271 233 232
f 272 234 235
f 269 231 234
f 249 250 212
f 250 251 213
f 251 252 214
f 252 253 215
f 253 254 216
f 254 255 217
f 255 256 218
f 256 257 219
f 257 258 220
f 258 259 221
f 259 260 222
f 260 261 223
f 261 262 224
f 262 263 225
f 263 265 226
f 265 266 227
f 266 267 228
f 267 268 229
f 268 270 230
f 269 282 231
f 271 273 233
f 270 271 232
f 272 235 273
f 269 234 272
f 249 264 250
f 250 264 251
f 251 264 252
f 252 264 253
f 253 264 254
f 254 264 255
f 255 264 256
f 256 264 257
f 257 264 258
f 258 264 259
f 259 264 260
f 260 264 261
f 261 264 262
f 264 274 275
f 264 275 276
f 264 276 277
f 264 277 278
f 264 282 269
f 264 278 279
f 264 279 280
f 264 281 282
f 264 280 281
f 262 264 263
f 263 264 265
f 264 266 265
f 264 267 266
f 264 270 268
f 264 271 270
f 264 268 267
f 264 272 273
f 264 273 271
f 264 269 272
f 274 237 238
f 276 239 240
f 275 238 239
f 279 242 243
f 277 240 241
f 278 241 242
f 280 243 244
f 281 244 245
f 282 245 231
f 274 238 275
f 276 240 277
f 275 239 276
f 277 241 278
f 278 242 279
f 279 243 280
f 280 244 281
f 281 245 282
