# Blue square plate
# Units: meters
# Coordinate system: Z up, origin at bottom-face center
# Dimensions: 0.120 x 0.120 x 0.006

mtllib blue_square_plate.mtl
o blue_square_plate

v -0.060000000 -0.060000000  0.000000000
v  0.060000000 -0.060000000  0.000000000
v  0.060000000  0.060000000  0.000000000
v -0.060000000  0.060000000  0.000000000
v -0.060000000 -0.060000000  0.006000000
v  0.060000000 -0.060000000  0.006000000
v  0.060000000  0.060000000  0.006000000
v -0.060000000  0.060000000  0.006000000

usemtl blue_square_plate
s off

f 1 4 3 2
f 5 6 7 8
f 1 2 6 5
f 2 3 7 6
f 3 4 8 7
f 4 1 5 8
