#usda 1.0
(
    defaultPrim = "panda"
    subLayers = [
        @./uipc_gelpads_high_res_wrist.usd@
    ]
)

over "panda"
{
    over "gelpad_left"
    {
        over "mesh"
        {
            custom uint[] tet_att_indices = [0, 1, 3, 4, 5, 8, 9, 13, 14, 21, 24, 40, 41, 43, 44, 45, 51, 52, 53, 54, 58, 59, 60, 61, 67, 68, 69, 70, 71, 72, 73, 74, 77, 78, 79, 80, 82, 84, 85, 86, 87, 96, 99, 100, 101, 103, 104, 106, 107, 108, 110, 111, 112, 121, 122, 123, 124, 125, 126, 127, 128, 129, 130, 131, 132, 133, 134, 146, 147, 148, 149, 150, 151, 152, 153, 154, 155, 156, 157, 161, 162, 163, 165]
        }
    }

    over "gelpad_right"
    {
        over "mesh"
        {
            custom uint[] tet_att_indices = [0, 1, 3, 4, 5, 8, 9, 13, 14, 21, 24, 40, 41, 43, 44, 45, 51, 52, 53, 54, 58, 59, 60, 61, 67, 68, 69, 70, 71, 72, 73, 74, 77, 78, 79, 80, 82, 84, 85, 86, 87, 96, 99, 100, 101, 103, 104, 106, 107, 108, 110, 111, 112, 121, 122, 123, 124, 125, 126, 127, 128, 129, 130, 131, 132, 133, 134, 146, 147, 148, 149, 150, 151, 152, 153, 154, 155, 156, 157, 161, 162, 163, 165]
        }
    }
}
