# Block yellow hexagonal prism
# Units: meters
# Coordinate system: Z up
# Origin: bottom-face centroid

mtllib block_red_hexagonal_prism.mtl
o block_red_hexagonal_prism

v  0.018000000 -0.000000000  0.000000000
v  0.009000000  0.015588457  0.000000000
v -0.009000000  0.015588457  0.000000000
v -0.018000000  0.000000000  0.000000000
v -0.009000000 -0.015588457  0.000000000
v  0.009000000 -0.015588457  0.000000000
v  0.018000000 -0.000000000  0.040000000
v  0.009000000  0.015588457  0.040000000
v -0.009000000  0.015588457  0.040000000
v -0.018000000  0.000000000  0.040000000
v -0.009000000 -0.015588457  0.040000000
v  0.009000000 -0.015588457  0.040000000

usemtl block_red_hexagonal_prism
s off

f 6 5 4 3 2 1
f 7 8 9 10 11 12
f 1 2 8 7
f 2 3 9 8
f 3 4 10 9
f 4 5 11 10
f 5 6 12 11
f 6 1 7 12
