# Wooden box with square, semicircle, and hexagonal top holes
# Units: meters
# Coordinate system: Z up
# Origin: outer bottom-face center
# Outer dimensions: 0.150 m x 0.150 m x 0.150 m
# Wall, floor, and top thickness: 0.006 m
# +X face is open; mesh is a watertight manifold shell
# Square-hole center: (-0.035000, 0.030000)
# Semicircle circle center: (0.034000, -0.030000); area-centroid/insertion center: (0.034000, -0.018117)
# Hexagon-hole center: (-0.026000, -0.036000)

mtllib box_with_holes_yellow.mtl
o box_with_holes_yellow

v 0.061865172 -0.027255520 0.150000000
v 0.062000000 -0.030000000 0.150000000
v 0.075000000 -0.030000000 0.150000000
v 0.061461988 -0.024537471 0.150000000
v 0.060794329 -0.021872029 0.150000000
v 0.059868627 -0.019284864 0.150000000
v 0.058693795 -0.016800891 0.150000000
v 0.057281149 -0.014444033 0.150000000
v 0.055644293 -0.012236988 0.150000000
v 0.053798990 -0.010201010 0.150000000
v 0.075000000 0.069000000 0.150000000
v 0.051763012 -0.008355707 0.150000000
v 0.049555967 -0.006718851 0.150000000
v 0.047199109 -0.005306205 0.150000000
v 0.044715136 -0.004131373 0.150000000
v 0.042127971 -0.003205671 0.150000000
v 0.039462529 -0.002538012 0.150000000
v 0.036744480 -0.002134828 0.150000000
v 0.034000000 -0.002000000 0.150000000
v 0.031255520 -0.002134828 0.150000000
v 0.028537471 -0.002538012 0.150000000
v 0.025872029 -0.003205671 0.150000000
v 0.023284864 -0.004131373 0.150000000
v 0.020800891 -0.005306205 0.150000000
v 0.018444033 -0.006718851 0.150000000
v 0.016236988 -0.008355707 0.150000000
v 0.014201010 -0.010201010 0.150000000
v 0.012355707 -0.012236988 0.150000000
v 0.075000000 0.075000000 0.150000000
v 0.010718851 -0.014444033 0.150000000
v -0.075000000 0.030000000 0.150000000
v -0.056500000 0.030000000 0.150000000
v -0.056500000 0.051500000 0.150000000
v -0.056500000 0.008500000 0.150000000
v -0.075000000 -0.075000000 0.150000000
v 0.075000000 -0.075000000 0.150000000
v 0.075000000 -0.069000000 0.150000000
v 0.075000000 -0.036000000 0.150000000
v -0.005000000 -0.036000000 0.150000000
v -0.015500000 -0.054186533 0.150000000
v 0.006000000 -0.030000000 0.150000000
v 0.006134828 -0.027255520 0.150000000
v 0.006538012 -0.024537471 0.150000000
v 0.007205671 -0.021872029 0.150000000
v 0.008131373 -0.019284864 0.150000000
v 0.009306205 -0.016800891 0.150000000
v -0.015500000 -0.017813467 0.150000000
v -0.036500000 -0.017813467 0.150000000
v -0.075000000 0.075000000 0.150000000
v -0.013500000 0.051500000 0.150000000
v -0.013500000 0.008500000 0.150000000
v -0.047000000 -0.036000000 0.150000000
v -0.036500000 -0.054186533 0.150000000
v 0.061865172 -0.027255520 0.144000000
v 0.062000000 -0.030000000 0.144000000
v 0.075000000 -0.030000000 0.144000000
v 0.061461988 -0.024537471 0.144000000
v 0.060794329 -0.021872029 0.144000000
v 0.059868627 -0.019284864 0.144000000
v 0.058693795 -0.016800891 0.144000000
v 0.057281149 -0.014444033 0.144000000
v 0.055644293 -0.012236988 0.144000000
v 0.053798990 -0.010201010 0.144000000
v 0.075000000 0.069000000 0.144000000
v 0.051763012 -0.008355707 0.144000000
v 0.049555967 -0.006718851 0.144000000
v 0.047199109 -0.005306205 0.144000000
v 0.044715136 -0.004131373 0.144000000
v 0.042127971 -0.003205671 0.144000000
v 0.039462529 -0.002538012 0.144000000
v 0.036744480 -0.002134828 0.144000000
v 0.034000000 -0.002000000 0.144000000
v 0.031255520 -0.002134828 0.144000000
v 0.028537471 -0.002538012 0.144000000
v 0.025872029 -0.003205671 0.144000000
v 0.023284864 -0.004131373 0.144000000
v 0.020800891 -0.005306205 0.144000000
v 0.018444033 -0.006718851 0.144000000
v 0.016236988 -0.008355707 0.144000000
v 0.014201010 -0.010201010 0.144000000
v 0.012355707 -0.012236988 0.144000000
v -0.069000000 0.030000000 0.144000000
v -0.056500000 0.030000000 0.144000000
v -0.056500000 0.051500000 0.144000000
v -0.056500000 0.008500000 0.144000000
v -0.069000000 -0.069000000 0.144000000
v 0.075000000 -0.069000000 0.144000000
v 0.075000000 -0.036000000 0.144000000
v -0.005000000 -0.036000000 0.144000000
v -0.015500000 -0.054186533 0.144000000
v 0.006000000 -0.030000000 0.144000000
v 0.006134828 -0.027255520 0.144000000
v 0.006538012 -0.024537471 0.144000000
v 0.007205671 -0.021872029 0.144000000
v 0.008131373 -0.019284864 0.144000000
v 0.009306205 -0.016800891 0.144000000
v 0.010718851 -0.014444033 0.144000000
v -0.015500000 -0.017813467 0.144000000
v -0.036500000 -0.017813467 0.144000000
v -0.069000000 0.069000000 0.144000000
v -0.013500000 0.051500000 0.144000000
v -0.013500000 0.008500000 0.144000000
v -0.047000000 -0.036000000 0.144000000
v -0.036500000 -0.054186533 0.144000000
v -0.075000000 -0.075000000 0.000000000
v 0.075000000 -0.075000000 0.000000000
v 0.075000000 -0.069000000 0.000000000
v 0.075000000 0.069000000 0.000000000
v 0.075000000 0.075000000 0.000000000
v -0.075000000 0.075000000 0.000000000
v -0.075000000 0.030000000 0.000000000
v -0.069000000 -0.069000000 0.006000000
v 0.075000000 -0.069000000 0.006000000
v 0.075000000 0.069000000 0.006000000
v -0.069000000 0.069000000 0.006000000
v -0.069000000 0.030000000 0.006000000
v 0.075000000 -0.075000000 0.006000000
v -0.075000000 -0.075000000 0.006000000
v 0.075000000 -0.075000000 0.144000000
v -0.075000000 -0.075000000 0.144000000
v -0.075000000 0.075000000 0.006000000
v 0.075000000 0.075000000 0.006000000
v -0.075000000 0.075000000 0.144000000
v 0.075000000 0.075000000 0.144000000
v -0.075000000 0.030000000 0.006000000
v -0.075000000 0.030000000 0.144000000
v 0.010714286 0.004285714 0.000000000
v -0.011400000 0.006000000 0.006000000

usemtl box_with_holes_yellow
s off

f 1 2 3
f 4 1 3
f 5 4 3
f 6 5 3
f 7 6 3
f 8 7 3
f 9 8 3
f 10 9 3
f 10 3 11
f 12 10 11
f 13 12 11
f 14 13 11
f 15 14 11
f 16 15 11
f 17 16 11
f 18 17 11
f 19 18 11
f 20 19 11
f 21 20 11
f 22 21 11
f 23 22 11
f 24 23 11
f 25 24 11
f 26 25 11
f 27 26 11
f 28 27 11
f 28 11 29
f 30 28 29
f 31 32 33
f 34 32 31
f 34 31 35
f 35 36 37
f 35 37 38
f 38 39 40
f 39 38 3
f 39 3 2
f 39 2 41
f 39 41 42
f 39 42 43
f 39 43 44
f 39 44 45
f 39 45 46
f 39 46 30
f 39 30 29
f 47 39 29
f 48 47 29
f 49 31 33
f 29 49 33
f 29 33 50
f 29 50 51
f 48 29 51
f 48 51 34
f 48 34 35
f 52 48 35
f 53 52 35
f 40 53 35
f 38 40 35
f 56 55 54
f 56 54 57
f 56 57 58
f 56 58 59
f 56 59 60
f 56 60 61
f 56 61 62
f 56 62 63
f 64 56 63
f 64 63 65
f 64 65 66
f 64 66 67
f 64 67 68
f 64 68 69
f 64 69 70
f 64 70 71
f 64 71 72
f 64 72 73
f 64 73 74
f 64 74 75
f 64 75 76
f 64 76 77
f 64 77 78
f 64 78 79
f 64 79 80
f 64 80 81
f 84 83 82
f 82 83 85
f 86 82 85
f 88 87 86
f 90 89 88
f 56 88 89
f 55 56 89
f 91 55 89
f 92 91 89
f 93 92 89
f 94 93 89
f 95 94 89
f 96 95 89
f 97 96 89
f 97 89 98
f 81 97 98
f 64 81 98
f 64 98 99
f 84 82 100
f 84 100 64
f 101 84 64
f 102 101 64
f 102 64 99
f 85 102 99
f 86 85 99
f 86 99 103
f 86 103 104
f 86 104 90
f 86 90 88
f 32 83 84
f 32 84 33
f 33 84 101
f 33 101 50
f 50 101 102
f 50 102 51
f 51 102 85
f 51 85 34
f 34 85 83
f 34 83 32
f 2 55 91
f 2 91 41
f 41 91 92
f 41 92 42
f 42 92 93
f 42 93 43
f 43 93 94
f 43 94 44
f 44 94 95
f 44 95 45
f 45 95 96
f 45 96 46
f 46 96 97
f 46 97 30
f 30 97 81
f 30 81 28
f 28 81 80
f 28 80 27
f 27 80 79
f 27 79 26
f 26 79 78
f 26 78 25
f 25 78 77
f 25 77 24
f 24 77 76
f 24 76 23
f 23 76 75
f 23 75 22
f 22 75 74
f 22 74 21
f 21 74 73
f 21 73 20
f 20 73 72
f 20 72 19
f 19 72 71
f 19 71 18
f 18 71 70
f 18 70 17
f 17 70 69
f 17 69 16
f 16 69 68
f 16 68 15
f 15 68 67
f 15 67 14
f 14 67 66
f 14 66 13
f 13 66 65
f 13 65 12
f 12 65 63
f 12 63 10
f 10 63 62
f 10 62 9
f 9 62 61
f 9 61 8
f 8 61 60
f 8 60 7
f 7 60 59
f 7 59 6
f 6 59 58
f 6 58 5
f 5 58 57
f 5 57 4
f 4 57 54
f 4 54 1
f 1 54 55
f 1 55 2
f 39 89 90
f 39 90 40
f 40 90 104
f 40 104 53
f 53 104 103
f 53 103 52
f 52 103 99
f 52 99 48
f 48 99 98
f 48 98 47
f 47 98 89
f 47 89 39
f 105 106 117
f 105 117 118
f 118 117 119
f 118 119 120
f 120 119 36
f 120 36 35
f 109 110 121
f 109 121 122
f 122 121 123
f 122 123 124
f 124 123 49
f 124 49 29
f 105 118 125
f 105 125 111
f 118 120 126
f 118 126 125
f 120 35 31
f 120 31 126
f 111 125 121
f 111 121 110
f 125 126 123
f 125 123 121
f 126 31 49
f 126 49 123
f 112 86 87
f 112 87 113
f 114 64 100
f 114 100 115
f 112 116 82
f 112 82 86
f 116 115 100
f 116 100 82
f 106 107 113
f 106 113 117
f 107 108 114
f 107 114 113
f 108 109 122
f 108 122 114
f 119 87 37
f 119 37 36
f 87 88 38
f 87 38 37
f 88 56 3
f 88 3 38
f 56 64 11
f 56 11 3
f 64 124 29
f 64 29 11
f 117 113 87
f 117 87 119
f 114 122 124
f 114 124 64
f 127 106 105
f 127 107 106
f 127 108 107
f 127 109 108
f 127 110 109
f 127 111 110
f 127 105 111
f 128 112 113
f 128 113 114
f 128 114 115
f 128 115 116
f 128 116 112
