#usda 1.0
(
    defaultPrim = "cable_centerline"
    metersPerUnit = 1
    upAxis = "Z"
)

def Xform "cable_centerline"
{
    def Mesh "mesh"
    {
        uniform token subdivisionScheme = "none"
        bool doubleSided = 1

        custom point3f[] thread_points = [
            (0.000, 0.000, 0.0245),
            (0.030, 0.000, 0.0245),
            (0.060, 0.000, 0.0245),
            (0.090, 0.000, 0.0245),
            (0.120, 0.000, 0.0245),
            (0.150, 0.000, 0.0245),
            (0.180, 0.000, 0.0245),
            (0.210, 0.000, 0.0245),
            (0.240, 0.000, 0.0245),
            (0.270, 0.000, 0.0245),
            (0.300, 0.000, 0.0245),
            (0.330, 0.000, 0.0245),
            (0.360, 0.000, 0.0245),
            (0.390, 0.000, 0.0245),
            (0.420, 0.000, 0.0245),
            (0.450, 0.000, 0.0245),
            (0.480, 0.000, 0.0245),
            (0.510, 0.000, 0.0245),
            (0.540, 0.000, 0.0245),
            (0.570, 0.000, 0.0245),
            (0.600, 0.000, 0.0245),
            (0.630, 0.000, 0.0245),
            (0.660, 0.000, 0.0245),
            (0.690, 0.000, 0.0245),
            (0.720, 0.000, 0.0245),
            (0.750, 0.000, 0.0245)
        ]
        custom int[] thread_edges = [
            0, 1, 1, 2, 2, 3, 3, 4,
            4, 5, 5, 6, 6, 7, 7, 8,
            8, 9, 9, 10, 10, 11, 11, 12,
            12, 13, 13, 14, 14, 15, 15, 16,
            16, 17, 17, 18, 18, 19, 19, 20,
            20, 21, 21, 22, 22, 23, 23, 24,
            24, 25
        ]

        color3f[] primvars:displayColor = [(0.05, 0.05, 0.05)]
        uniform token primvars:displayColor:interpolation = "constant"

        int[] faceVertexCounts = [3]
        int[] faceVertexIndices = [0, 1, 2]
        point3f[] points = [
            (0.000, -0.004, 0.0245),
            (0.030, -0.004, 0.0245),
            (0.000, 0.004, 0.0245)
        ]
    }
}
