# Block yellow cylinder
# Units: meters
# Coordinate system: Z up
# Origin: bottom-face centroid

mtllib block_yellow_cylinder.mtl
o block_yellow_cylinder

v  0.020000000  0.000000000  0.000000000
v  0.019903695  0.001960343  0.000000000
v  0.019615705  0.003901807  0.000000000
v  0.019138807  0.005805693  0.000000000
v  0.018477591  0.007653668  0.000000000
v  0.017638425  0.009427935  0.000000000
v  0.016629392  0.011111404  0.000000000
v  0.015460209  0.012687865  0.000000000
v  0.014142136  0.014142136  0.000000000
v  0.012687865  0.015460209  0.000000000
v  0.011111404  0.016629392  0.000000000
v  0.009427935  0.017638425  0.000000000
v  0.007653668  0.018477591  0.000000000
v  0.005805693  0.019138807  0.000000000
v  0.003901807  0.019615705  0.000000000
v  0.001960343  0.019903695  0.000000000
v  0.000000000  0.020000000  0.000000000
v -0.001960343  0.019903695  0.000000000
v -0.003901807  0.019615705  0.000000000
v -0.005805693  0.019138807  0.000000000
v -0.007653668  0.018477591  0.000000000
v -0.009427935  0.017638425  0.000000000
v -0.011111404  0.016629392  0.000000000
v -0.012687865  0.015460209  0.000000000
v -0.014142136  0.014142136  0.000000000
v -0.015460209  0.012687865  0.000000000
v -0.016629392  0.011111404  0.000000000
v -0.017638425  0.009427935  0.000000000
v -0.018477591  0.007653668  0.000000000
v -0.019138807  0.005805693  0.000000000
v -0.019615705  0.003901807  0.000000000
v -0.019903695  0.001960343  0.000000000
v -0.020000000  0.000000000  0.000000000
v -0.019903695 -0.001960343  0.000000000
v -0.019615705 -0.003901807  0.000000000
v -0.019138807 -0.005805693  0.000000000
v -0.018477591 -0.007653668  0.000000000
v -0.017638425 -0.009427935  0.000000000
v -0.016629392 -0.011111404  0.000000000
v -0.015460209 -0.012687865  0.000000000
v -0.014142136 -0.014142136  0.000000000
v -0.012687865 -0.015460209  0.000000000
v -0.011111404 -0.016629392  0.000000000
v -0.009427935 -0.017638425  0.000000000
v -0.007653668 -0.018477591  0.000000000
v -0.005805693 -0.019138807  0.000000000
v -0.003901807 -0.019615705  0.000000000
v -0.001960343 -0.019903695  0.000000000
v -0.000000000 -0.020000000  0.000000000
v  0.001960343 -0.019903695  0.000000000
v  0.003901807 -0.019615705  0.000000000
v  0.005805693 -0.019138807  0.000000000
v  0.007653668 -0.018477591  0.000000000
v  0.009427935 -0.017638425  0.000000000
v  0.011111404 -0.016629392  0.000000000
v  0.012687865 -0.015460209  0.000000000
v  0.014142136 -0.014142136  0.000000000
v  0.015460209 -0.012687865  0.000000000
v  0.016629392 -0.011111404  0.000000000
v  0.017638425 -0.009427935  0.000000000
v  0.018477591 -0.007653668  0.000000000
v  0.019138807 -0.005805693  0.000000000
v  0.019615705 -0.003901807  0.000000000
v  0.019903695 -0.001960343  0.000000000
v  0.020000000  0.000000000  0.040000000
v  0.019903695  0.001960343  0.040000000
v  0.019615705  0.003901807  0.040000000
v  0.019138807  0.005805693  0.040000000
v  0.018477591  0.007653668  0.040000000
v  0.017638425  0.009427935  0.040000000
v  0.016629392  0.011111404  0.040000000
v  0.015460209  0.012687865  0.040000000
v  0.014142136  0.014142136  0.040000000
v  0.012687865  0.015460209  0.040000000
v  0.011111404  0.016629392  0.040000000
v  0.009427935  0.017638425  0.040000000
v  0.007653668  0.018477591  0.040000000
v  0.005805693  0.019138807  0.040000000
v  0.003901807  0.019615705  0.040000000
v  0.001960343  0.019903695  0.040000000
v  0.000000000  0.020000000  0.040000000
v -0.001960343  0.019903695  0.040000000
v -0.003901807  0.019615705  0.040000000
v -0.005805693  0.019138807  0.040000000
v -0.007653668  0.018477591  0.040000000
v -0.009427935  0.017638425  0.040000000
v -0.011111404  0.016629392  0.040000000
v -0.012687865  0.015460209  0.040000000
v -0.014142136  0.014142136  0.040000000
v -0.015460209  0.012687865  0.040000000
v -0.016629392  0.011111404  0.040000000
v -0.017638425  0.009427935  0.040000000
v -0.018477591  0.007653668  0.040000000
v -0.019138807  0.005805693  0.040000000
v -0.019615705  0.003901807  0.040000000
v -0.019903695  0.001960343  0.040000000
v -0.020000000  0.000000000  0.040000000
v -0.019903695 -0.001960343  0.040000000
v -0.019615705 -0.003901807  0.040000000
v -0.019138807 -0.005805693  0.040000000
v -0.018477591 -0.007653668  0.040000000
v -0.017638425 -0.009427935  0.040000000
v -0.016629392 -0.011111404  0.040000000
v -0.015460209 -0.012687865  0.040000000
v -0.014142136 -0.014142136  0.040000000
v -0.012687865 -0.015460209  0.040000000
v -0.011111404 -0.016629392  0.040000000
v -0.009427935 -0.017638425  0.040000000
v -0.007653668 -0.018477591  0.040000000
v -0.005805693 -0.019138807  0.040000000
v -0.003901807 -0.019615705  0.040000000
v -0.001960343 -0.019903695  0.040000000
v -0.000000000 -0.020000000  0.040000000
v  0.001960343 -0.019903695  0.040000000
v  0.003901807 -0.019615705  0.040000000
v  0.005805693 -0.019138807  0.040000000
v  0.007653668 -0.018477591  0.040000000
v  0.009427935 -0.017638425  0.040000000
v  0.011111404 -0.016629392  0.040000000
v  0.012687865 -0.015460209  0.040000000
v  0.014142136 -0.014142136  0.040000000
v  0.015460209 -0.012687865  0.040000000
v  0.016629392 -0.011111404  0.040000000
v  0.017638425 -0.009427935  0.040000000
v  0.018477591 -0.007653668  0.040000000
v  0.019138807 -0.005805693  0.040000000
v  0.019615705 -0.003901807  0.040000000
v  0.019903695 -0.001960343  0.040000000

usemtl block_yellow_cylinder
s off

f 64 63 62 61 60 59 58 57 56 55 54 53 52 51 50 49 48 47 46 45 44 43 42 41 40 39 38 37 36 35 34 33 32 31 30 29 28 27 26 25 24 23 22 21 20 19 18 17 16 15 14 13 12 11 10 9 8 7 6 5 4 3 2 1
f 65 66 67 68 69 70 71 72 73 74 75 76 77 78 79 80 81 82 83 84 85 86 87 88 89 90 91 92 93 94 95 96 97 98 99 100 101 102 103 104 105 106 107 108 109 110 111 112 113 114 115 116 117 118 119 120 121 122 123 124 125 126 127 128
f 1 2 66 65
f 2 3 67 66
f 3 4 68 67
f 4 5 69 68
f 5 6 70 69
f 6 7 71 70
f 7 8 72 71
f 8 9 73 72
f 9 10 74 73
f 10 11 75 74
f 11 12 76 75
f 12 13 77 76
f 13 14 78 77
f 14 15 79 78
f 15 16 80 79
f 16 17 81 80
f 17 18 82 81
f 18 19 83 82
f 19 20 84 83
f 20 21 85 84
f 21 22 86 85
f 22 23 87 86
f 23 24 88 87
f 24 25 89 88
f 25 26 90 89
f 26 27 91 90
f 27 28 92 91
f 28 29 93 92
f 29 30 94 93
f 30 31 95 94
f 31 32 96 95
f 32 33 97 96
f 33 34 98 97
f 34 35 99 98
f 35 36 100 99
f 36 37 101 100
f 37 38 102 101
f 38 39 103 102
f 39 40 104 103
f 40 41 105 104
f 41 42 106 105
f 42 43 107 106
f 43 44 108 107
f 44 45 109 108
f 45 46 110 109
f 46 47 111 110
f 47 48 112 111
f 48 49 113 112
f 49 50 114 113
f 50 51 115 114
f 51 52 116 115
f 52 53 117 116
f 53 54 118 117
f 54 55 119 118
f 55 56 120 119
f 56 57 121 120
f 57 58 122 121
f 58 59 123 122
f 59 60 124 123
f 60 61 125 124
f 61 62 126 125
f 62 63 127 126
f 63 64 128 127
f 64 1 65 128
