# Block wooden cube
# Units: meters
# Coordinate system: Z up

mtllib block_blue_cube.mtl
o block_blue_cube

v -0.020000000 -0.020000000  0.000000000
v  0.020000000 -0.020000000  0.000000000
v  0.020000000  0.020000000  0.000000000
v -0.020000000  0.020000000  0.000000000
v -0.020000000 -0.020000000  0.040000000
v  0.020000000 -0.020000000  0.040000000
v  0.020000000  0.020000000  0.040000000
v -0.020000000  0.020000000  0.040000000

usemtl block_blue_cube
s off

f 1 4 3 2
f 5 6 7 8
f 1 2 6 5
f 2 3 7 6
f 3 4 8 7
f 4 1 5 8
