# Block wooden triangular prism
# Units: meters
# Coordinate system: Z up
# Origin: bottom-face centroid
# Equilateral-triangle control-edge length: 0.04 m
# 10% corner trim with four-segment arcs

mtllib block_yellow_triangular_prism.mtl
o block_yellow_triangular_prism

v 0.002000000 0.019629909 0.000000000
v 0.001000000 0.020928947 0.000000000
v 0.000000000 0.021361960 0.000000000
v -0.001000000 0.020928948 0.000000000
v -0.002000000 0.019629909 0.000000000
v -0.018000000 -0.008082903 0.000000000
v -0.018625000 -0.009598448 0.000000000
v -0.018500000 -0.010680980 0.000000000
v -0.017625000 -0.011330499 0.000000000
v -0.016000000 -0.011547005 0.000000000
v 0.016000000 -0.011547005 0.000000000
v 0.017625000 -0.011330499 0.000000000
v 0.018500000 -0.010680980 0.000000000
v 0.018625000 -0.009598448 0.000000000
v 0.018000000 -0.008082903 0.000000000
v 0.000000000 0.000000000 0.000000000
v 0.002000000 0.019629909 0.040000000
v 0.001000000 0.020928947 0.040000000
v 0.000000000 0.021361960 0.040000000
v -0.001000000 0.020928948 0.040000000
v -0.002000000 0.019629909 0.040000000
v -0.018000000 -0.008082903 0.040000000
v -0.018625000 -0.009598448 0.040000000
v -0.018500000 -0.010680980 0.040000000
v -0.017625000 -0.011330499 0.040000000
v -0.016000000 -0.011547005 0.040000000
v 0.016000000 -0.011547005 0.040000000
v 0.017625000 -0.011330499 0.040000000
v 0.018500000 -0.010680980 0.040000000
v 0.018625000 -0.009598448 0.040000000
v 0.018000000 -0.008082903 0.040000000
v 0.000000000 0.000000000 0.040000000

usemtl block_yellow_triangular_prism
s off

f 16 2 1
f 16 3 2
f 16 4 3
f 16 5 4
f 16 6 5
f 16 7 6
f 16 8 7
f 16 9 8
f 16 10 9
f 16 11 10
f 16 12 11
f 16 13 12
f 16 14 13
f 16 15 14
f 16 1 15
f 32 17 18
f 32 18 19
f 32 19 20
f 32 20 21
f 32 21 22
f 32 22 23
f 32 23 24
f 32 24 25
f 32 25 26
f 32 26 27
f 32 27 28
f 32 28 29
f 32 29 30
f 32 30 31
f 32 31 17
f 1 2 18 17
f 2 3 19 18
f 3 4 20 19
f 4 5 21 20
f 5 6 22 21
f 6 7 23 22
f 7 8 24 23
f 8 9 25 24
f 9 10 26 25
f 10 11 27 26
f 11 12 28 27
f 12 13 29 28
f 13 14 30 29
f 14 15 31 30
f 15 1 17 31
