# Block blue half cylinder
# Units: meters
# Coordinate system: Z up
# Origin: bottom-face centroid

mtllib block_blue_half_cylinder.mtl
o block_blue_half_cylinder

v  0.025000000 -0.010608199  0.000000000
v  0.024969886 -0.009381508  0.000000000
v  0.024879619 -0.008157770  0.000000000
v  0.024729412 -0.006939937  0.000000000
v  0.024519632 -0.005730941  0.000000000
v  0.024250781 -0.004533695  0.000000000
v  0.023923509 -0.003351083  0.000000000
v  0.023538601 -0.002185953  0.000000000
v  0.023096989 -0.001041113  0.000000000
v  0.022599733  0.000080679  0.000000000
v  0.022048031  0.001176720  0.000000000
v  0.021443215  0.002244370  0.000000000
v  0.020786740  0.003281058  0.000000000
v  0.020080189  0.004284284  0.000000000
v  0.019325261  0.005251634  0.000000000
v  0.018523779  0.006180775  0.000000000
v  0.017677670  0.007069470  0.000000000
v  0.016788974  0.007915579  0.000000000
v  0.015859833  0.008717062  0.000000000
v  0.014892483  0.009471989  0.000000000
v  0.013889256  0.010178541  0.000000000
v  0.012852569  0.010835016  0.000000000
v  0.011784919  0.011439833  0.000000000
v  0.010688877  0.011991534  0.000000000
v  0.009567086  0.012488790  0.000000000
v  0.008422246  0.012930403  0.000000000
v  0.007257118  0.013315310  0.000000000
v  0.006074505  0.013642583  0.000000000
v  0.004877258  0.013911432  0.000000000
v  0.003668261  0.014121214  0.000000000
v  0.002450429  0.014271419  0.000000000
v  0.001226691  0.014361688  0.000000000
v -0.000000000  0.014391801  0.000000000
v -0.001226691  0.014361688  0.000000000
v -0.002450429  0.014271419  0.000000000
v -0.003668261  0.014121214  0.000000000
v -0.004877258  0.013911432  0.000000000
v -0.006074505  0.013642583  0.000000000
v -0.007257118  0.013315310  0.000000000
v -0.008422246  0.012930403  0.000000000
v -0.009567086  0.012488790  0.000000000
v -0.010688877  0.011991534  0.000000000
v -0.011784919  0.011439833  0.000000000
v -0.012852569  0.010835016  0.000000000
v -0.013889256  0.010178541  0.000000000
v -0.014892483  0.009471989  0.000000000
v -0.015859833  0.008717062  0.000000000
v -0.016788974  0.007915579  0.000000000
v -0.017677670  0.007069470  0.000000000
v -0.018523779  0.006180775  0.000000000
v -0.019325261  0.005251634  0.000000000
v -0.020080189  0.004284284  0.000000000
v -0.020786740  0.003281058  0.000000000
v -0.021443215  0.002244370  0.000000000
v -0.022048031  0.001176720  0.000000000
v -0.022599733  0.000080679  0.000000000
v -0.023096989 -0.001041113  0.000000000
v -0.023538601 -0.002185953  0.000000000
v -0.023923509 -0.003351083  0.000000000
v -0.024250781 -0.004533695  0.000000000
v -0.024519632 -0.005730941  0.000000000
v -0.024729412 -0.006939937  0.000000000
v -0.024879619 -0.008157770  0.000000000
v -0.024969886 -0.009381508  0.000000000
v -0.025000000 -0.010608199  0.000000000
v  0.025000000 -0.010608199  0.040000000
v  0.024969886 -0.009381508  0.040000000
v  0.024879619 -0.008157770  0.040000000
v  0.024729412 -0.006939937  0.040000000
v  0.024519632 -0.005730941  0.040000000
v  0.024250781 -0.004533695  0.040000000
v  0.023923509 -0.003351083  0.040000000
v  0.023538601 -0.002185953  0.040000000
v  0.023096989 -0.001041113  0.040000000
v  0.022599733  0.000080679  0.040000000
v  0.022048031  0.001176720  0.040000000
v  0.021443215  0.002244370  0.040000000
v  0.020786740  0.003281058  0.040000000
v  0.020080189  0.004284284  0.040000000
v  0.019325261  0.005251634  0.040000000
v  0.018523779  0.006180775  0.040000000
v  0.017677670  0.007069470  0.040000000
v  0.016788974  0.007915579  0.040000000
v  0.015859833  0.008717062  0.040000000
v  0.014892483  0.009471989  0.040000000
v  0.013889256  0.010178541  0.040000000
v  0.012852569  0.010835016  0.040000000
v  0.011784919  0.011439833  0.040000000
v  0.010688877  0.011991534  0.040000000
v  0.009567086  0.012488790  0.040000000
v  0.008422246  0.012930403  0.040000000
v  0.007257118  0.013315310  0.040000000
v  0.006074505  0.013642583  0.040000000
v  0.004877258  0.013911432  0.040000000
v  0.003668261  0.014121214  0.040000000
v  0.002450429  0.014271419  0.040000000
v  0.001226691  0.014361688  0.040000000
v -0.000000000  0.014391801  0.040000000
v -0.001226691  0.014361688  0.040000000
v -0.002450429  0.014271419  0.040000000
v -0.003668261  0.014121214  0.040000000
v -0.004877258  0.013911432  0.040000000
v -0.006074505  0.013642583  0.040000000
v -0.007257118  0.013315310  0.040000000
v -0.008422246  0.012930403  0.040000000
v -0.009567086  0.012488790  0.040000000
v -0.010688877  0.011991534  0.040000000
v -0.011784919  0.011439833  0.040000000
v -0.012852569  0.010835016  0.040000000
v -0.013889256  0.010178541  0.040000000
v -0.014892483  0.009471989  0.040000000
v -0.015859833  0.008717062  0.040000000
v -0.016788974  0.007915579  0.040000000
v -0.017677670  0.007069470  0.040000000
v -0.018523779  0.006180775  0.040000000
v -0.019325261  0.005251634  0.040000000
v -0.020080189  0.004284284  0.040000000
v -0.020786740  0.003281058  0.040000000
v -0.021443215  0.002244370  0.040000000
v -0.022048031  0.001176720  0.040000000
v -0.022599733  0.000080679  0.040000000
v -0.023096989 -0.001041113  0.040000000
v -0.023538601 -0.002185953  0.040000000
v -0.023923509 -0.003351083  0.040000000
v -0.024250781 -0.004533695  0.040000000
v -0.024519632 -0.005730941  0.040000000
v -0.024729412 -0.006939937  0.040000000
v -0.024879619 -0.008157770  0.040000000
v -0.024969886 -0.009381508  0.040000000
v -0.025000000 -0.010608199  0.040000000

usemtl block_blue_half_cylinder
s off

f 65 64 63 62 61 60 59 58 57 56 55 54 53 52 51 50 49 48 47 46 45 44 43 42 41 40 39 38 37 36 35 34 33 32 31 30 29 28 27 26 25 24 23 22 21 20 19 18 17 16 15 14 13 12 11 10 9 8 7 6 5 4 3 2 1
f 66 67 68 69 70 71 72 73 74 75 76 77 78 79 80 81 82 83 84 85 86 87 88 89 90 91 92 93 94 95 96 97 98 99 100 101 102 103 104 105 106 107 108 109 110 111 112 113 114 115 116 117 118 119 120 121 122 123 124 125 126 127 128 129 130
f 1 2 67 66
f 2 3 68 67
f 3 4 69 68
f 4 5 70 69
f 5 6 71 70
f 6 7 72 71
f 7 8 73 72
f 8 9 74 73
f 9 10 75 74
f 10 11 76 75
f 11 12 77 76
f 12 13 78 77
f 13 14 79 78
f 14 15 80 79
f 15 16 81 80
f 16 17 82 81
f 17 18 83 82
f 18 19 84 83
f 19 20 85 84
f 20 21 86 85
f 21 22 87 86
f 22 23 88 87
f 23 24 89 88
f 24 25 90 89
f 25 26 91 90
f 26 27 92 91
f 27 28 93 92
f 28 29 94 93
f 29 30 95 94
f 30 31 96 95
f 31 32 97 96
f 32 33 98 97
f 33 34 99 98
f 34 35 100 99
f 35 36 101 100
f 36 37 102 101
f 37 38 103 102
f 38 39 104 103
f 39 40 105 104
f 40 41 106 105
f 41 42 107 106
f 42 43 108 107
f 43 44 109 108
f 44 45 110 109
f 45 46 111 110
f 46 47 112 111
f 47 48 113 112
f 48 49 114 113
f 49 50 115 114
f 50 51 116 115
f 51 52 117 116
f 52 53 118 117
f 53 54 119 118
f 54 55 120 119
f 55 56 121 120
f 56 57 122 121
f 57 58 123 122
f 58 59 124 123
f 59 60 125 124
f 60 61 126 125
f 61 62 127 126
f 62 63 128 127
f 63 64 129 128
f 64 65 130 129
f 65 1 66 130
