# Block blue star prism
# Units: meters
# Coordinate system: Z up
# Origin: bottom-face centroid
# Fuller regular five-point star; control-edge length: 0.014 m
# Inner-to-outer radius ratio: 0.5; 10% corner trim with four-segment arcs

mtllib block_blue_star_prism.mtl
o block_blue_star_prism

v 0.000619592 0.019826827 0.000000000
v 0.000309796 0.020297613 0.000000000
v 0.000000000 0.020454542 0.000000000
v -0.000309796 0.020297613 0.000000000
v -0.000619592 0.019826827 0.000000000
v -0.005576328 0.009783383 0.000000000
v -0.005933990 0.009221550 0.000000000
v -0.006387384 0.008791480 0.000000000
v -0.006936511 0.008493175 0.000000000
v -0.007581370 0.008326635 0.000000000
v -0.018664968 0.006716093 0.000000000
v -0.019208445 0.006566941 0.000000000
v -0.019453425 0.006320801 0.000000000
v -0.019399910 0.005977674 0.000000000
v -0.019047897 0.005537559 0.000000000
v -0.011027730 -0.002280172 0.000000000
v -0.010603919 -0.002793944 0.000000000
v -0.010335005 -0.003358047 0.000000000
v -0.010220990 -0.003972478 0.000000000
v -0.010261872 -0.004637240 0.000000000
v -0.012155177 -0.015676053 0.000000000
v -0.012181268 -0.016239021 0.000000000
v -0.012022878 -0.016548072 0.000000000
v -0.011680007 -0.016603208 0.000000000
v -0.011152656 -0.016404427 0.000000000
v -0.001239184 -0.011192606 0.000000000
v -0.000619592 -0.010948302 0.000000000
v 0.000000000 -0.010866867 0.000000000
v 0.000619592 -0.010948302 0.000000000
v 0.001239184 -0.011192606 0.000000000
v 0.011152656 -0.016404427 0.000000000
v 0.011680007 -0.016603208 0.000000000
v 0.012022878 -0.016548072 0.000000000
v 0.012181268 -0.016239021 0.000000000
v 0.012155177 -0.015676053 0.000000000
v 0.010261872 -0.004637240 0.000000000
v 0.010220990 -0.003972478 0.000000000
v 0.010335005 -0.003358047 0.000000000
v 0.010603919 -0.002793944 0.000000000
v 0.011027730 -0.002280172 0.000000000
v 0.019047897 0.005537559 0.000000000
v 0.019399910 0.005977674 0.000000000
v 0.019453425 0.006320801 0.000000000
v 0.019208445 0.006566941 0.000000000
v 0.018664968 0.006716093 0.000000000
v 0.007581370 0.008326635 0.000000000
v 0.006936511 0.008493175 0.000000000
v 0.006387384 0.008791480 0.000000000
v 0.005933990 0.009221550 0.000000000
v 0.005576328 0.009783383 0.000000000
v 0.000000000 0.000000000 0.000000000
v 0.000619592 0.019826827 0.040000000
v 0.000309796 0.020297613 0.040000000
v 0.000000000 0.020454542 0.040000000
v -0.000309796 0.020297613 0.040000000
v -0.000619592 0.019826827 0.040000000
v -0.005576328 0.009783383 0.040000000
v -0.005933990 0.009221550 0.040000000
v -0.006387384 0.008791480 0.040000000
v -0.006936511 0.008493175 0.040000000
v -0.007581370 0.008326635 0.040000000
v -0.018664968 0.006716093 0.040000000
v -0.019208445 0.006566941 0.040000000
v -0.019453425 0.006320801 0.040000000
v -0.019399910 0.005977674 0.040000000
v -0.019047897 0.005537559 0.040000000
v -0.011027730 -0.002280172 0.040000000
v -0.010603919 -0.002793944 0.040000000
v -0.010335005 -0.003358047 0.040000000
v -0.010220990 -0.003972478 0.040000000
v -0.010261872 -0.004637240 0.040000000
v -0.012155177 -0.015676053 0.040000000
v -0.012181268 -0.016239021 0.040000000
v -0.012022878 -0.016548072 0.040000000
v -0.011680007 -0.016603208 0.040000000
v -0.011152656 -0.016404427 0.040000000
v -0.001239184 -0.011192606 0.040000000
v -0.000619592 -0.010948302 0.040000000
v 0.000000000 -0.010866867 0.040000000
v 0.000619592 -0.010948302 0.040000000
v 0.001239184 -0.011192606 0.040000000
v 0.011152656 -0.016404427 0.040000000
v 0.011680007 -0.016603208 0.040000000
v 0.012022878 -0.016548072 0.040000000
v 0.012181268 -0.016239021 0.040000000
v 0.012155177 -0.015676053 0.040000000
v 0.010261872 -0.004637240 0.040000000
v 0.010220990 -0.003972478 0.040000000
v 0.010335005 -0.003358047 0.040000000
v 0.010603919 -0.002793944 0.040000000
v 0.011027730 -0.002280172 0.040000000
v 0.019047897 0.005537559 0.040000000
v 0.019399910 0.005977674 0.040000000
v 0.019453425 0.006320801 0.040000000
v 0.019208445 0.006566941 0.040000000
v 0.018664968 0.006716093 0.040000000
v 0.007581370 0.008326635 0.040000000
v 0.006936511 0.008493175 0.040000000
v 0.006387384 0.008791480 0.040000000
v 0.005933990 0.009221550 0.040000000
v 0.005576328 0.009783383 0.040000000
v 0.000000000 0.000000000 0.040000000

usemtl block_blue_star_prism
s off

f 51 2 1
f 51 3 2
f 51 4 3
f 51 5 4
f 51 6 5
f 51 7 6
f 51 8 7
f 51 9 8
f 51 10 9
f 51 11 10
f 51 12 11
f 51 13 12
f 51 14 13
f 51 15 14
f 51 16 15
f 51 17 16
f 51 18 17
f 51 19 18
f 51 20 19
f 51 21 20
f 51 22 21
f 51 23 22
f 51 24 23
f 51 25 24
f 51 26 25
f 51 27 26
f 51 28 27
f 51 29 28
f 51 30 29
f 51 31 30
f 51 32 31
f 51 33 32
f 51 34 33
f 51 35 34
f 51 36 35
f 51 37 36
f 51 38 37
f 51 39 38
f 51 40 39
f 51 41 40
f 51 42 41
f 51 43 42
f 51 44 43
f 51 45 44
f 51 46 45
f 51 47 46
f 51 48 47
f 51 49 48
f 51 50 49
f 51 1 50
f 102 52 53
f 102 53 54
f 102 54 55
f 102 55 56
f 102 56 57
f 102 57 58
f 102 58 59
f 102 59 60
f 102 60 61
f 102 61 62
f 102 62 63
f 102 63 64
f 102 64 65
f 102 65 66
f 102 66 67
f 102 67 68
f 102 68 69
f 102 69 70
f 102 70 71
f 102 71 72
f 102 72 73
f 102 73 74
f 102 74 75
f 102 75 76
f 102 76 77
f 102 77 78
f 102 78 79
f 102 79 80
f 102 80 81
f 102 81 82
f 102 82 83
f 102 83 84
f 102 84 85
f 102 85 86
f 102 86 87
f 102 87 88
f 102 88 89
f 102 89 90
f 102 90 91
f 102 91 92
f 102 92 93
f 102 93 94
f 102 94 95
f 102 95 96
f 102 96 97
f 102 97 98
f 102 98 99
f 102 99 100
f 102 100 101
f 102 101 52
f 1 2 53 52
f 2 3 54 53
f 3 4 55 54
f 4 5 56 55
f 5 6 57 56
f 6 7 58 57
f 7 8 59 58
f 8 9 60 59
f 9 10 61 60
f 10 11 62 61
f 11 12 63 62
f 12 13 64 63
f 13 14 65 64
f 14 15 66 65
f 15 16 67 66
f 16 17 68 67
f 17 18 69 68
f 18 19 70 69
f 19 20 71 70
f 20 21 72 71
f 21 22 73 72
f 22 23 74 73
f 23 24 75 74
f 24 25 76 75
f 25 26 77 76
f 26 27 78 77
f 27 28 79 78
f 28 29 80 79
f 29 30 81 80
f 30 31 82 81
f 31 32 83 82
f 32 33 84 83
f 33 34 85 84
f 34 35 86 85
f 35 36 87 86
f 36 37 88 87
f 37 38 89 88
f 38 39 90 89
f 39 40 91 90
f 40 41 92 91
f 41 42 93 92
f 42 43 94 93
f 43 44 95 94
f 44 45 96 95
f 45 46 97 96
f 46 47 98 97
f 47 48 99 98
f 48 49 100 99
f 49 50 101 100
f 50 1 52 101
