# Block red quarter cylinder
# Units: meters
# Coordinate system: Z up
# Origin: bottom-face centroid

mtllib block_blue_quarter_cylinder.mtl
o block_blue_quarter_cylinder

v -0.016975676 -0.016975676  0.000000000
v  0.023024324 -0.016975676  0.000000000
v  0.023012278 -0.015994026  0.000000000
v  0.022976144 -0.015012968  0.000000000
v  0.022915944 -0.014033092  0.000000000
v  0.022831714 -0.013054990  0.000000000
v  0.022723506 -0.012079248  0.000000000
v  0.022591386 -0.011106456  0.000000000
v  0.022435430 -0.010137200  0.000000000
v  0.022255736 -0.009172062  0.000000000
v  0.022052410 -0.008211626  0.000000000
v  0.021825576 -0.007256468  0.000000000
v  0.021575368 -0.006307164  0.000000000
v  0.021301938 -0.005364288  0.000000000
v  0.021005452 -0.004428406  0.000000000
v  0.020686088 -0.003500080  0.000000000
v  0.020344036 -0.002579874  0.000000000
v  0.019979506 -0.001668338  0.000000000
v  0.019592716 -0.000766022  0.000000000
v  0.019183896  0.000126528  0.000000000
v  0.018753298  0.001008778  0.000000000
v  0.018301176  0.001880194  0.000000000
v  0.017827804  0.002740252  0.000000000
v  0.017333470  0.003588434  0.000000000
v  0.016818468  0.004424230  0.000000000
v  0.016283110  0.005247134  0.000000000
v  0.015727718  0.006056652  0.000000000
v  0.015152626  0.006852298  0.000000000
v  0.014558182  0.007633588  0.000000000
v  0.013944744  0.008400056  0.000000000
v  0.013312678  0.009151238  0.000000000
v  0.012662370  0.009886684  0.000000000
v  0.011994208  0.010605946  0.000000000
v  0.011308596  0.011308596  0.000000000
v  0.010605946  0.011994208  0.000000000
v  0.009886684  0.012662370  0.000000000
v  0.009151238  0.013312678  0.000000000
v  0.008400056  0.013944744  0.000000000
v  0.007633588  0.014558182  0.000000000
v  0.006852298  0.015152626  0.000000000
v  0.006056652  0.015727718  0.000000000
v  0.005247134  0.016283110  0.000000000
v  0.004424230  0.016818468  0.000000000
v  0.003588434  0.017333470  0.000000000
v  0.002740252  0.017827804  0.000000000
v  0.001880194  0.018301176  0.000000000
v  0.001008778  0.018753298  0.000000000
v  0.000126528  0.019183896  0.000000000
v -0.000766022  0.019592716  0.000000000
v -0.001668338  0.019979506  0.000000000
v -0.002579874  0.020344036  0.000000000
v -0.003500080  0.020686088  0.000000000
v -0.004428406  0.021005452  0.000000000
v -0.005364288  0.021301938  0.000000000
v -0.006307164  0.021575368  0.000000000
v -0.007256468  0.021825576  0.000000000
v -0.008211626  0.022052410  0.000000000
v -0.009172062  0.022255736  0.000000000
v -0.010137200  0.022435430  0.000000000
v -0.011106456  0.022591386  0.000000000
v -0.012079248  0.022723506  0.000000000
v -0.013054990  0.022831714  0.000000000
v -0.014033092  0.022915944  0.000000000
v -0.015012968  0.022976144  0.000000000
v -0.015994026  0.023012278  0.000000000
v -0.016975676  0.023024324  0.000000000
v -0.016975676 -0.016975676  0.040000000
v  0.023024324 -0.016975676  0.040000000
v  0.023012278 -0.015994026  0.040000000
v  0.022976144 -0.015012968  0.040000000
v  0.022915944 -0.014033092  0.040000000
v  0.022831714 -0.013054990  0.040000000
v  0.022723506 -0.012079248  0.040000000
v  0.022591386 -0.011106456  0.040000000
v  0.022435430 -0.010137200  0.040000000
v  0.022255736 -0.009172062  0.040000000
v  0.022052410 -0.008211626  0.040000000
v  0.021825576 -0.007256468  0.040000000
v  0.021575368 -0.006307164  0.040000000
v  0.021301938 -0.005364288  0.040000000
v  0.021005452 -0.004428406  0.040000000
v  0.020686088 -0.003500080  0.040000000
v  0.020344036 -0.002579874  0.040000000
v  0.019979506 -0.001668338  0.040000000
v  0.019592716 -0.000766022  0.040000000
v  0.019183896  0.000126528  0.040000000
v  0.018753298  0.001008778  0.040000000
v  0.018301176  0.001880194  0.040000000
v  0.017827804  0.002740252  0.040000000
v  0.017333470  0.003588434  0.040000000
v  0.016818468  0.004424230  0.040000000
v  0.016283110  0.005247134  0.040000000
v  0.015727718  0.006056652  0.040000000
v  0.015152626  0.006852298  0.040000000
v  0.014558182  0.007633588  0.040000000
v  0.013944744  0.008400056  0.040000000
v  0.013312678  0.009151238  0.040000000
v  0.012662370  0.009886684  0.040000000
v  0.011994208  0.010605946  0.040000000
v  0.011308596  0.011308596  0.040000000
v  0.010605946  0.011994208  0.040000000
v  0.009886684  0.012662370  0.040000000
v  0.009151238  0.013312678  0.040000000
v  0.008400056  0.013944744  0.040000000
v  0.007633588  0.014558182  0.040000000
v  0.006852298  0.015152626  0.040000000
v  0.006056652  0.015727718  0.040000000
v  0.005247134  0.016283110  0.040000000
v  0.004424230  0.016818468  0.040000000
v  0.003588434  0.017333470  0.040000000
v  0.002740252  0.017827804  0.040000000
v  0.001880194  0.018301176  0.040000000
v  0.001008778  0.018753298  0.040000000
v  0.000126528  0.019183896  0.040000000
v -0.000766022  0.019592716  0.040000000
v -0.001668338  0.019979506  0.040000000
v -0.002579874  0.020344036  0.040000000
v -0.003500080  0.020686088  0.040000000
v -0.004428406  0.021005452  0.040000000
v -0.005364288  0.021301938  0.040000000
v -0.006307164  0.021575368  0.040000000
v -0.007256468  0.021825576  0.040000000
v -0.008211626  0.022052410  0.040000000
v -0.009172062  0.022255736  0.040000000
v -0.010137200  0.022435430  0.040000000
v -0.011106456  0.022591386  0.040000000
v -0.012079248  0.022723506  0.040000000
v -0.013054990  0.022831714  0.040000000
v -0.014033092  0.022915944  0.040000000
v -0.015012968  0.022976144  0.040000000
v -0.015994026  0.023012278  0.040000000
v -0.016975676  0.023024324  0.040000000

usemtl block_blue_quarter_cylinder
s off

f 66 65 64 63 62 61 60 59 58 57 56 55 54 53 52 51 50 49 48 47 46 45 44 43 42 41 40 39 38 37 36 35 34 33 32 31 30 29 28 27 26 25 24 23 22 21 20 19 18 17 16 15 14 13 12 11 10 9 8 7 6 5 4 3 2 1
f 67 68 69 70 71 72 73 74 75 76 77 78 79 80 81 82 83 84 85 86 87 88 89 90 91 92 93 94 95 96 97 98 99 100 101 102 103 104 105 106 107 108 109 110 111 112 113 114 115 116 117 118 119 120 121 122 123 124 125 126 127 128 129 130 131 132
f 1 2 68 67
f 2 3 69 68
f 3 4 70 69
f 4 5 71 70
f 5 6 72 71
f 6 7 73 72
f 7 8 74 73
f 8 9 75 74
f 9 10 76 75
f 10 11 77 76
f 11 12 78 77
f 12 13 79 78
f 13 14 80 79
f 14 15 81 80
f 15 16 82 81
f 16 17 83 82
f 17 18 84 83
f 18 19 85 84
f 19 20 86 85
f 20 21 87 86
f 21 22 88 87
f 22 23 89 88
f 23 24 90 89
f 24 25 91 90
f 25 26 92 91
f 26 27 93 92
f 27 28 94 93
f 28 29 95 94
f 29 30 96 95
f 30 31 97 96
f 31 32 98 97
f 32 33 99 98
f 33 34 100 99
f 34 35 101 100
f 35 36 102 101
f 36 37 103 102
f 37 38 104 103
f 38 39 105 104
f 39 40 106 105
f 40 41 107 106
f 41 42 108 107
f 42 43 109 108
f 43 44 110 109
f 44 45 111 110
f 45 46 112 111
f 46 47 113 112
f 47 48 114 113
f 48 49 115 114
f 49 50 116 115
f 50 51 117 116
f 51 52 118 117
f 52 53 119 118
f 53 54 120 119
f 54 55 121 120
f 55 56 122 121
f 56 57 123 122
f 57 58 124 123
f 58 59 125 124
f 59 60 126 125
f 60 61 127 126
f 61 62 128 127
f 62 63 129 128
f 63 64 130 129
f 64 65 131 130
f 65 66 132 131
f 66 1 67 132
