# Simple white cable-routing snap clip
# Units: meters
# Coordinate system: Z up
# Origin: bottom-face center
# Bounding box: 0.060 m x 0.044 m x 0.034 m
# Cable channel: along X axis; centered on Y=0
# Mounting holes: two square through-holes in the base plate

mtllib cable_clip_white.mtl
o cable_clip_white

v -0.030000000 -0.022000000  0.000000000
v -0.030000000 -0.022000000  0.005000000
v -0.030000000 -0.016000000  0.005000000
v -0.030000000 -0.016000000  0.000000000
v -0.025000000 -0.022000000  0.000000000
v -0.025000000 -0.022000000  0.005000000
v -0.025000000 -0.016000000  0.000000000
v -0.025000000 -0.016000000  0.005000000
v -0.030000000 -0.010000000  0.005000000
v -0.030000000 -0.010000000  0.000000000
v -0.025000000 -0.010000000  0.000000000
v -0.025000000 -0.010000000  0.005000000
v -0.030000000 -0.007000000  0.005000000
v -0.030000000 -0.007000000  0.000000000
v -0.025000000 -0.007000000  0.000000000
v -0.025000000 -0.007000000  0.005000000
v -0.030000000 -0.003000000  0.005000000
v -0.030000000 -0.003000000  0.000000000
v -0.025000000 -0.003000000  0.000000000
v -0.025000000 -0.003000000  0.005000000
v -0.030000000  0.003000000  0.005000000
v -0.030000000  0.003000000  0.000000000
v -0.025000000  0.003000000  0.000000000
v -0.025000000  0.003000000  0.005000000
v -0.030000000  0.007000000  0.005000000
v -0.030000000  0.007000000  0.000000000
v -0.025000000  0.007000000  0.000000000
v -0.025000000  0.007000000  0.005000000
v -0.030000000  0.010000000  0.005000000
v -0.030000000  0.010000000  0.000000000
v -0.025000000  0.010000000  0.000000000
v -0.025000000  0.010000000  0.005000000
v -0.030000000  0.016000000  0.005000000
v -0.030000000  0.016000000  0.000000000
v -0.025000000  0.016000000  0.000000000
v -0.025000000  0.016000000  0.005000000
v -0.030000000  0.022000000  0.005000000
v -0.030000000  0.022000000  0.000000000
v -0.025000000  0.022000000  0.005000000
v -0.025000000  0.022000000  0.000000000
v -0.019000000 -0.022000000  0.000000000
v -0.019000000 -0.022000000  0.005000000
v -0.019000000 -0.016000000  0.000000000
v -0.019000000 -0.016000000  0.005000000
v -0.019000000 -0.010000000  0.000000000
v -0.019000000 -0.010000000  0.005000000
v -0.019000000 -0.007000000  0.000000000
v -0.019000000 -0.007000000  0.005000000
v -0.019000000 -0.003000000  0.005000000
v -0.019000000 -0.003000000  0.000000000
v -0.019000000  0.003000000  0.000000000
v -0.019000000  0.003000000  0.005000000
v -0.019000000  0.007000000  0.000000000
v -0.019000000  0.007000000  0.005000000
v -0.019000000  0.010000000  0.000000000
v -0.019000000  0.010000000  0.005000000
v -0.019000000  0.016000000  0.000000000
v -0.019000000  0.016000000  0.005000000
v -0.019000000  0.022000000  0.005000000
v -0.019000000  0.022000000  0.000000000
v -0.018000000 -0.022000000  0.000000000
v -0.018000000 -0.022000000  0.005000000
v -0.018000000 -0.016000000  0.000000000
v -0.018000000 -0.016000000  0.005000000
v -0.018000000 -0.010000000  0.000000000
v -0.018000000 -0.010000000  0.005000000
v -0.018000000 -0.007000000  0.000000000
v -0.018000000 -0.007000000  0.005000000
v -0.018000000 -0.003000000  0.000000000
v -0.018000000 -0.003000000  0.005000000
v -0.018000000  0.003000000  0.000000000
v -0.018000000  0.003000000  0.005000000
v -0.018000000  0.007000000  0.000000000
v -0.018000000  0.007000000  0.005000000
v -0.018000000  0.010000000  0.000000000
v -0.018000000  0.010000000  0.005000000
v -0.018000000  0.016000000  0.000000000
v -0.018000000  0.016000000  0.005000000
v -0.018000000  0.022000000  0.005000000
v -0.018000000  0.022000000  0.000000000
v  0.018000000 -0.022000000  0.000000000
v  0.018000000 -0.022000000  0.005000000
v  0.018000000 -0.016000000  0.000000000
v  0.018000000 -0.016000000  0.005000000
v  0.018000000 -0.010000000  0.000000000
v -0.018000000 -0.016000000  0.029000000
v -0.018000000 -0.010000000  0.029000000
v  0.018000000 -0.010000000  0.005000000
v  0.018000000 -0.010000000  0.029000000
v  0.018000000 -0.016000000  0.029000000
v -0.018000000 -0.016000000  0.034000000
v -0.018000000 -0.010000000  0.034000000
v  0.018000000 -0.010000000  0.034000000
v  0.018000000 -0.016000000  0.034000000
v  0.018000000 -0.007000000  0.000000000
v  0.018000000 -0.007000000  0.005000000
v -0.018000000 -0.007000000  0.034000000
v -0.018000000 -0.007000000  0.029000000
v  0.018000000 -0.007000000  0.029000000
v  0.018000000 -0.007000000  0.034000000
v  0.018000000 -0.003000000  0.000000000
v  0.018000000 -0.003000000  0.005000000
v  0.018000000  0.003000000  0.000000000
v  0.018000000  0.003000000  0.005000000
v  0.018000000  0.007000000  0.000000000
v  0.018000000  0.007000000  0.005000000
v  0.018000000  0.010000000  0.000000000
v  0.018000000  0.010000000  0.005000000
v -0.018000000  0.007000000  0.029000000
v -0.018000000  0.007000000  0.034000000
v -0.018000000  0.010000000  0.034000000
v -0.018000000  0.010000000  0.029000000
v  0.018000000  0.007000000  0.029000000
v  0.018000000  0.010000000  0.029000000
v  0.018000000  0.010000000  0.034000000
v  0.018000000  0.007000000  0.034000000
v  0.018000000  0.016000000  0.000000000
v -0.018000000  0.016000000  0.029000000
v  0.018000000  0.016000000  0.005000000
v  0.018000000  0.016000000  0.029000000
v -0.018000000  0.016000000  0.034000000
v  0.018000000  0.016000000  0.034000000
v  0.018000000  0.022000000  0.005000000
v  0.018000000  0.022000000  0.000000000
v  0.019000000 -0.022000000  0.000000000
v  0.019000000 -0.022000000  0.005000000
v  0.019000000 -0.016000000  0.000000000
v  0.019000000 -0.016000000  0.005000000
v  0.019000000 -0.010000000  0.000000000
v  0.019000000 -0.010000000  0.005000000
v  0.019000000 -0.007000000  0.000000000
v  0.019000000 -0.007000000  0.005000000
v  0.019000000 -0.003000000  0.000000000
v  0.019000000 -0.003000000  0.005000000
v  0.019000000  0.003000000  0.000000000
v  0.019000000  0.003000000  0.005000000
v  0.019000000  0.007000000  0.000000000
v  0.019000000  0.007000000  0.005000000
v  0.019000000  0.010000000  0.000000000
v  0.019000000  0.010000000  0.005000000
v  0.019000000  0.016000000  0.000000000
v  0.019000000  0.016000000  0.005000000
v  0.019000000  0.022000000  0.005000000
v  0.019000000  0.022000000  0.000000000
v  0.025000000 -0.022000000  0.000000000
v  0.025000000 -0.022000000  0.005000000
v  0.025000000 -0.016000000  0.000000000
v  0.025000000 -0.016000000  0.005000000
v  0.025000000 -0.010000000  0.000000000
v  0.025000000 -0.010000000  0.005000000
v  0.025000000 -0.007000000  0.000000000
v  0.025000000 -0.007000000  0.005000000
v  0.025000000 -0.003000000  0.005000000
v  0.025000000 -0.003000000  0.000000000
v  0.025000000  0.003000000  0.000000000
v  0.025000000  0.003000000  0.005000000
v  0.025000000  0.007000000  0.000000000
v  0.025000000  0.007000000  0.005000000
v  0.025000000  0.010000000  0.000000000
v  0.025000000  0.010000000  0.005000000
v  0.025000000  0.016000000  0.000000000
v  0.025000000  0.016000000  0.005000000
v  0.025000000  0.022000000  0.005000000
v  0.025000000  0.022000000  0.000000000
v  0.030000000 -0.022000000  0.000000000
v  0.030000000 -0.016000000  0.000000000
v  0.030000000 -0.016000000  0.005000000
v  0.030000000 -0.022000000  0.005000000
v  0.030000000 -0.010000000  0.000000000
v  0.030000000 -0.010000000  0.005000000
v  0.030000000 -0.007000000  0.000000000
v  0.030000000 -0.007000000  0.005000000
v  0.030000000 -0.003000000  0.000000000
v  0.030000000 -0.003000000  0.005000000
v  0.030000000  0.003000000  0.000000000
v  0.030000000  0.003000000  0.005000000
v  0.030000000  0.007000000  0.000000000
v  0.030000000  0.007000000  0.005000000
v  0.030000000  0.010000000  0.000000000
v  0.030000000  0.010000000  0.005000000
v  0.030000000  0.016000000  0.000000000
v  0.030000000  0.016000000  0.005000000
v  0.030000000  0.022000000  0.000000000
v  0.030000000  0.022000000  0.005000000

usemtl cable_clip_white
s off

f 1 2 3 4
f 1 5 6 2
f 1 4 7 5
f 2 6 8 3
f 4 3 9 10
f 4 10 11 7
f 3 8 12 9
f 10 9 13 14
f 10 14 15 11
f 9 12 16 13
f 14 13 17 18
f 14 18 19 15
f 13 16 20 17
f 18 17 21 22
f 19 23 24 20
f 18 22 23 19
f 17 20 24 21
f 22 21 25 26
f 22 26 27 23
f 21 24 28 25
f 26 25 29 30
f 26 30 31 27
f 25 28 32 29
f 30 29 33 34
f 30 34 35 31
f 29 32 36 33
f 34 33 37 38
f 38 37 39 40
f 34 38 40 35
f 33 36 39 37
f 5 41 42 6
f 5 7 43 41
f 6 42 44 8
f 7 11 45 43
f 8 44 46 12
f 11 15 47 45
f 12 46 48 16
f 19 20 49 50
f 15 19 50 47
f 16 48 49 20
f 23 51 52 24
f 23 27 53 51
f 24 52 54 28
f 27 31 55 53
f 28 54 56 32
f 31 35 57 55
f 32 56 58 36
f 40 39 59 60
f 35 40 60 57
f 36 58 59 39
f 41 61 62 42
f 41 43 63 61
f 42 62 64 44
f 43 45 65 63
f 44 64 66 46
f 45 47 67 65
f 46 66 68 48
f 47 50 69 67
f 48 68 70 49
f 50 49 52 51
f 50 51 71 69
f 49 70 72 52
f 51 53 73 71
f 52 72 74 54
f 53 55 75 73
f 54 74 76 56
f 55 57 77 75
f 56 76 78 58
f 60 59 79 80
f 57 60 80 77
f 58 78 79 59
f 61 81 82 62
f 61 63 83 81
f 62 82 84 64
f 63 65 85 83
f 64 86 87 66
f 84 88 89 90
f 64 84 90 86
f 66 87 89 88
f 86 91 92 87
f 90 89 93 94
f 86 90 94 91
f 91 94 93 92
f 65 67 95 85
f 66 88 96 68
f 87 92 97 98
f 89 99 100 93
f 98 97 100 99
f 87 98 99 89
f 92 93 100 97
f 67 69 101 95
f 68 96 102 70
f 69 71 103 101
f 70 102 104 72
f 71 73 105 103
f 72 104 106 74
f 73 75 107 105
f 74 106 108 76
f 109 110 111 112
f 113 114 115 116
f 109 113 116 110
f 109 112 114 113
f 110 116 115 111
f 75 77 117 107
f 76 112 118 78
f 108 119 120 114
f 76 108 114 112
f 78 118 120 119
f 112 111 121 118
f 114 120 122 115
f 118 121 122 120
f 111 115 122 121
f 80 79 123 124
f 77 80 124 117
f 78 119 123 79
f 81 125 126 82
f 81 83 127 125
f 82 126 128 84
f 83 85 129 127
f 84 128 130 88
f 85 95 131 129
f 88 130 132 96
f 95 101 133 131
f 96 132 134 102
f 133 135 136 134
f 101 103 135 133
f 102 134 136 104
f 103 105 137 135
f 104 136 138 106
f 105 107 139 137
f 106 138 140 108
f 107 117 141 139
f 108 140 142 119
f 124 123 143 144
f 117 124 144 141
f 119 142 143 123
f 125 145 146 126
f 125 127 147 145
f 126 146 148 128
f 127 129 149 147
f 128 148 150 130
f 129 131 151 149
f 130 150 152 132
f 133 134 153 154
f 131 133 154 151
f 132 152 153 134
f 135 155 156 136
f 135 137 157 155
f 136 156 158 138
f 137 139 159 157
f 138 158 160 140
f 139 141 161 159
f 140 160 162 142
f 144 143 163 164
f 141 144 164 161
f 142 162 163 143
f 165 166 167 168
f 145 165 168 146
f 145 147 166 165
f 146 168 167 148
f 166 169 170 167
f 147 149 169 166
f 148 167 170 150
f 169 171 172 170
f 149 151 171 169
f 150 170 172 152
f 171 173 174 172
f 151 154 173 171
f 152 172 174 153
f 154 153 156 155
f 173 175 176 174
f 154 155 175 173
f 153 174 176 156
f 175 177 178 176
f 155 157 177 175
f 156 176 178 158
f 177 179 180 178
f 157 159 179 177
f 158 178 180 160
f 179 181 182 180
f 159 161 181 179
f 160 180 182 162
f 181 183 184 182
f 164 163 184 183
f 161 164 183 181
f 162 182 184 163
