#usda 1.0
(
    defaultPrim = "chip_curved_shard_4"
    metersPerUnit = 1
    upAxis = "Z"
)

def Xform "chip_curved_shard_4"
{
    def Mesh "mesh"
    {
        uniform bool doubleSided = 1
        int[] faceVertexCounts = [3, 3, 3, 3, 3, 3, 3, 3, 3, 3, 3, 3, 3, 3, 3, 3, 3, 3, 3, 3, 3, 3, 3, 3, 3, 3, 3, 3, 3, 3, 3, 3, 3, 3, 3, 3, 3, 3, 3, 3, 3, 3, 3, 3, 3, 3, 3, 3, 3, 3, 3, 3, 3, 3, 3, 3, 3, 3, 3, 3, 3, 3, 3, 3, 3, 3, 3, 3, 3, 3, 3, 3, 3, 3, 3, 3, 3, 3, 3, 3]
        int[] faceVertexIndices = [0, 2, 1, 1, 22, 0, 0, 3, 2, 0, 4, 3, 0, 5, 4, 0, 26, 5, 0, 22, 21, 0, 21, 26, 2, 7, 1, 1, 7, 6, 6, 27, 1, 1, 27, 22, 3, 8, 2, 2, 8, 7, 4, 9, 3, 3, 9, 8, 5, 10, 4, 4, 10, 9, 5, 31, 10, 5, 26, 31, 7, 12, 6, 6, 12, 11, 11, 32, 6, 6, 32, 27, 8, 13, 7, 7, 13, 12, 9, 14, 8, 8, 14, 13, 10, 15, 9, 9, 15, 14, 10, 36, 15, 10, 31, 36, 12, 17, 11, 11, 17, 16, 16, 37, 11, 11, 37, 32, 13, 18, 12, 12, 18, 17, 14, 19, 13, 13, 19, 18, 15, 20, 14, 14, 20, 19, 15, 41, 20, 15, 36, 41, 16, 17, 38, 16, 38, 37, 17, 18, 39, 17, 39, 38, 18, 19, 40, 18, 40, 39, 19, 20, 41, 19, 41, 40, 21, 22, 23, 21, 23, 24, 21, 24, 25, 21, 25, 26, 22, 28, 23, 22, 27, 28, 23, 29, 24, 23, 28, 29, 24, 30, 25, 24, 29, 30, 25, 31, 26, 25, 30, 31, 27, 33, 28, 27, 32, 33, 28, 34, 29, 28, 33, 34, 29, 35, 30, 29, 34, 35, 30, 36, 31, 30, 35, 36, 32, 38, 33, 32, 37, 38, 33, 39, 34, 33, 38, 39, 34, 40, 35, 34, 39, 40, 35, 41, 36, 35, 40, 41]
        point3f[] points = [(0, 0, 0), (-0.004, -0.0053044055, 0.00025), (-0.0020705524, -0.0059162956, 0.0000669873), (-1.4695761e-18, -0.006125, 3.3744594e-35), (0.0020705524, -0.0059162956, 0.0000669873), (0.004, -0.0053044055, 0.00025), (-0.008, -0.010608811, 0.001), (-0.004141105, -0.011832591, 0.0002679492), (-2.9391522e-18, -0.01225, 1.3497838e-34), (0.004141105, -0.011832591, 0.0002679492), (0.008, -0.010608811, 0.001), (-0.012, -0.015913216, 0.00225), (-0.006211657, -0.017748887, 0.0006028857), (-4.4087283e-18, -0.018375, 3.0370136e-34), (0.006211657, -0.017748887, 0.0006028857), (0.012, -0.015913216, 0.00225), (-0.016, -0.021217622, 0.004), (-0.00828221, -0.023665182, 0.0010717968), (-5.8783044e-18, -0.0245, 5.399135e-34), (0.00828221, -0.023665182, 0.0010717968), (0.016, -0.021217622, 0.004), (0, 0, 0.0046), (-0.004, -0.0053044055, 0.00485), (-0.0020705524, -0.0059162956, 0.0046669873), (-1.4695761e-18, -0.006125, 0.0046), (0.0020705524, -0.0059162956, 0.0046669873), (0.004, -0.0053044055, 0.00485), (-0.008, -0.010608811, 0.0056), (-0.004141105, -0.011832591, 0.004867949), (-2.9391522e-18, -0.01225, 0.0046), (0.004141105, -0.011832591, 0.004867949), (0.008, -0.010608811, 0.0056), (-0.012, -0.015913216, 0.00685), (-0.006211657, -0.017748887, 0.0052028857), (-4.4087283e-18, -0.018375, 0.0046), (0.006211657, -0.017748887, 0.0052028857), (0.012, -0.015913216, 0.00685), (-0.016, -0.021217622, 0.0086), (-0.00828221, -0.023665182, 0.005671797), (-5.8783044e-18, -0.0245, 0.0046), (0.00828221, -0.023665182, 0.005671797), (0.016, -0.021217622, 0.0086)]
        uniform token subdivisionScheme = "none"
        custom uint[] tet_indices = [0, 1, 2, 23, 1, 0, 22, 23, 0, 21, 22, 23, 0, 2, 3, 24, 2, 0, 23, 24, 0, 21, 23, 24, 0, 3, 4, 25, 3, 0, 24, 25, 0, 21, 24, 25, 0, 4, 5, 26, 4, 0, 25, 26, 0, 21, 25, 26, 1, 6, 7, 28, 6, 1, 27, 28, 1, 22, 27, 28, 2, 1, 7, 28, 1, 2, 23, 28, 22, 1, 23, 28, 2, 7, 8, 29, 7, 2, 28, 29, 2, 23, 28, 29, 3, 2, 8, 29, 2, 3, 24, 29, 23, 2, 24, 29, 3, 8, 9, 30, 8, 3, 29, 30, 3, 24, 29, 30, 4, 3, 9, 30, 3, 4, 25, 30, 24, 3, 25, 30, 4, 9, 10, 31, 9, 4, 30, 31, 4, 25, 30, 31, 5, 4, 10, 31, 4, 5, 26, 31, 25, 4, 26, 31, 6, 11, 12, 33, 11, 6, 32, 33, 6, 27, 32, 33, 7, 6, 12, 33, 6, 7, 28, 33, 27, 6, 28, 33, 7, 12, 13, 34, 12, 7, 33, 34, 7, 28, 33, 34, 8, 7, 13, 34, 7, 8, 29, 34, 28, 7, 29, 34, 8, 13, 14, 35, 13, 8, 34, 35, 8, 29, 34, 35, 9, 8, 14, 35, 8, 9, 30, 35, 29, 8, 30, 35, 9, 14, 15, 36, 14, 9, 35, 36, 9, 30, 35, 36, 10, 9, 15, 36, 9, 10, 31, 36, 30, 9, 31, 36, 11, 16, 17, 38, 16, 11, 37, 38, 11, 32, 37, 38, 12, 11, 17, 38, 11, 12, 33, 38, 32, 11, 33, 38, 12, 17, 18, 39, 17, 12, 38, 39, 12, 33, 38, 39, 13, 12, 18, 39, 12, 13, 34, 39, 33, 12, 34, 39, 13, 18, 19, 40, 18, 13, 39, 40, 13, 34, 39, 40, 14, 13, 19, 40, 13, 14, 35, 40, 34, 13, 35, 40, 14, 19, 20, 41, 19, 14, 40, 41, 14, 35, 40, 41, 15, 14, 20, 41, 14, 15, 36, 41, 35, 14, 36, 41]
        custom float3[] tet_points = [(0, 0, 0), (-0.004, -0.0053044055, 0.00025), (-0.0020705524, -0.0059162956, 0.0000669873), (-1.4695761e-18, -0.006125, 3.3744594e-35), (0.0020705524, -0.0059162956, 0.0000669873), (0.004, -0.0053044055, 0.00025), (-0.008, -0.010608811, 0.001), (-0.004141105, -0.011832591, 0.0002679492), (-2.9391522e-18, -0.01225, 1.3497838e-34), (0.004141105, -0.011832591, 0.0002679492), (0.008, -0.010608811, 0.001), (-0.012, -0.015913216, 0.00225), (-0.006211657, -0.017748887, 0.0006028857), (-4.4087283e-18, -0.018375, 3.0370136e-34), (0.006211657, -0.017748887, 0.0006028857), (0.012, -0.015913216, 0.00225), (-0.016, -0.021217622, 0.004), (-0.00828221, -0.023665182, 0.0010717968), (-5.8783044e-18, -0.0245, 5.399135e-34), (0.00828221, -0.023665182, 0.0010717968), (0.016, -0.021217622, 0.004), (0, 0, 0.0046), (-0.004, -0.0053044055, 0.00485), (-0.0020705524, -0.0059162956, 0.0046669873), (-1.4695761e-18, -0.006125, 0.0046), (0.0020705524, -0.0059162956, 0.0046669873), (0.004, -0.0053044055, 0.00485), (-0.008, -0.010608811, 0.0056), (-0.004141105, -0.011832591, 0.004867949), (-2.9391522e-18, -0.01225, 0.0046), (0.004141105, -0.011832591, 0.004867949), (0.008, -0.010608811, 0.0056), (-0.012, -0.015913216, 0.00685), (-0.006211657, -0.017748887, 0.0052028857), (-4.4087283e-18, -0.018375, 0.0046), (0.006211657, -0.017748887, 0.0052028857), (0.012, -0.015913216, 0.00685), (-0.016, -0.021217622, 0.0086), (-0.00828221, -0.023665182, 0.005671797), (-5.8783044e-18, -0.0245, 0.0046), (0.00828221, -0.023665182, 0.005671797), (0.016, -0.021217622, 0.0086)]
        custom uint[] tet_surf_indices = [0, 2, 1, 1, 22, 0, 0, 3, 2, 0, 4, 3, 0, 5, 4, 0, 26, 5, 0, 22, 21, 0, 21, 26, 2, 7, 1, 1, 7, 6, 6, 27, 1, 1, 27, 22, 3, 8, 2, 2, 8, 7, 4, 9, 3, 3, 9, 8, 5, 10, 4, 4, 10, 9, 5, 31, 10, 5, 26, 31, 7, 12, 6, 6, 12, 11, 11, 32, 6, 6, 32, 27, 8, 13, 7, 7, 13, 12, 9, 14, 8, 8, 14, 13, 10, 15, 9, 9, 15, 14, 10, 36, 15, 10, 31, 36, 12, 17, 11, 11, 17, 16, 16, 37, 11, 11, 37, 32, 13, 18, 12, 12, 18, 17, 14, 19, 13, 13, 19, 18, 15, 20, 14, 14, 20, 19, 15, 41, 20, 15, 36, 41, 16, 17, 38, 16, 38, 37, 17, 18, 39, 17, 39, 38, 18, 19, 40, 18, 40, 39, 19, 20, 41, 19, 41, 40, 21, 22, 23, 21, 23, 24, 21, 24, 25, 21, 25, 26, 22, 28, 23, 22, 27, 28, 23, 29, 24, 23, 28, 29, 24, 30, 25, 24, 29, 30, 25, 31, 26, 25, 30, 31, 27, 33, 28, 27, 32, 33, 28, 34, 29, 28, 33, 34, 29, 35, 30, 29, 34, 35, 30, 36, 31, 30, 35, 36, 32, 38, 33, 32, 37, 38, 33, 39, 34, 33, 38, 39, 34, 40, 35, 34, 39, 40, 35, 41, 36, 35, 40, 41]
        custom float3[] tet_surf_points = [(0, 0, 0), (-0.004, -0.0053044055, 0.00025), (-0.0020705524, -0.0059162956, 0.0000669873), (-1.4695761e-18, -0.006125, 3.3744594e-35), (0.0020705524, -0.0059162956, 0.0000669873), (0.004, -0.0053044055, 0.00025), (-0.008, -0.010608811, 0.001), (-0.004141105, -0.011832591, 0.0002679492), (-2.9391522e-18, -0.01225, 1.3497838e-34), (0.004141105, -0.011832591, 0.0002679492), (0.008, -0.010608811, 0.001), (-0.012, -0.015913216, 0.00225), (-0.006211657, -0.017748887, 0.0006028857), (-4.4087283e-18, -0.018375, 3.0370136e-34), (0.006211657, -0.017748887, 0.0006028857), (0.012, -0.015913216, 0.00225), (-0.016, -0.021217622, 0.004), (-0.00828221, -0.023665182, 0.0010717968), (-5.8783044e-18, -0.0245, 5.399135e-34), (0.00828221, -0.023665182, 0.0010717968), (0.016, -0.021217622, 0.004), (0, 0, 0.0046), (-0.004, -0.0053044055, 0.00485), (-0.0020705524, -0.0059162956, 0.0046669873), (-1.4695761e-18, -0.006125, 0.0046), (0.0020705524, -0.0059162956, 0.0046669873), (0.004, -0.0053044055, 0.00485), (-0.008, -0.010608811, 0.0056), (-0.004141105, -0.011832591, 0.004867949), (-2.9391522e-18, -0.01225, 0.0046), (0.004141105, -0.011832591, 0.004867949), (0.008, -0.010608811, 0.0056), (-0.012, -0.015913216, 0.00685), (-0.006211657, -0.017748887, 0.0052028857), (-4.4087283e-18, -0.018375, 0.0046), (0.006211657, -0.017748887, 0.0052028857), (0.012, -0.015913216, 0.00685), (-0.016, -0.021217622, 0.0086), (-0.00828221, -0.023665182, 0.005671797), (-5.8783044e-18, -0.0245, 0.0046), (0.00828221, -0.023665182, 0.005671797), (0.016, -0.021217622, 0.0086)]
    }
}
