#usda 1.0
(
    defaultPrim = "chip_curved_shard_5"
    metersPerUnit = 1
    upAxis = "Z"
)

def Xform "chip_curved_shard_5"
{
    def Mesh "mesh"
    {
        uniform bool doubleSided = 1
        int[] faceVertexCounts = [3, 3, 3, 3, 3, 3, 3, 3, 3, 3, 3, 3, 3, 3, 3, 3, 3, 3, 3, 3, 3, 3, 3, 3, 3, 3, 3, 3, 3, 3, 3, 3, 3, 3, 3, 3, 3, 3, 3, 3, 3, 3, 3, 3, 3, 3, 3, 3, 3, 3, 3, 3, 3, 3, 3, 3, 3, 3, 3, 3, 3, 3, 3, 3, 3, 3, 3, 3, 3, 3, 3, 3, 3, 3, 3, 3, 3, 3, 3, 3]
        int[] faceVertexIndices = [1, 5, 0, 0, 22, 1, 0, 3, 2, 2, 23, 0, 0, 4, 3, 0, 5, 4, 21, 22, 0, 0, 23, 21, 1, 6, 5, 1, 27, 6, 1, 22, 27, 3, 8, 2, 2, 8, 7, 7, 28, 2, 2, 28, 23, 4, 9, 3, 3, 9, 8, 5, 10, 4, 4, 10, 9, 6, 10, 5, 6, 11, 10, 6, 32, 11, 6, 27, 32, 8, 13, 7, 7, 13, 12, 12, 33, 7, 7, 33, 28, 9, 14, 8, 8, 14, 13, 10, 15, 9, 9, 15, 14, 11, 15, 10, 11, 16, 15, 11, 37, 16, 11, 32, 37, 13, 18, 12, 12, 18, 17, 17, 38, 12, 12, 38, 33, 14, 19, 13, 13, 19, 18, 15, 20, 14, 14, 20, 19, 16, 20, 15, 16, 41, 20, 16, 37, 41, 17, 18, 39, 17, 39, 38, 18, 19, 40, 18, 40, 39, 19, 20, 41, 19, 41, 40, 21, 26, 22, 21, 23, 24, 21, 24, 25, 21, 25, 26, 22, 26, 27, 23, 29, 24, 23, 28, 29, 24, 30, 25, 24, 29, 30, 25, 31, 26, 25, 30, 31, 26, 31, 27, 27, 31, 32, 28, 34, 29, 28, 33, 34, 29, 35, 30, 29, 34, 35, 30, 36, 31, 30, 35, 36, 31, 36, 32, 32, 36, 37, 33, 39, 34, 33, 38, 39, 34, 40, 35, 34, 39, 40, 35, 41, 36, 35, 40, 41, 36, 41, 37]
        point3f[] points = [(0, 0, 0), (0.008, 0, 0.001), (0.004, -0.0053044055, 0.00025), (0.0056568542, -0.004331029, 0.0005), (0.006928203, -0.0030625, 0.00075), (0.0077274065, -0.0015852667, 0.0009330127), (0.016, 0, 0.004), (0.008, -0.010608811, 0.001), (0.0113137085, -0.008662058, 0.002), (0.013856406, -0.006125, 0.003), (0.015454813, -0.0031705333, 0.0037320508), (0.024, 0, 0.009), (0.012, -0.015913216, 0.00225), (0.016970562, -0.012993087, 0.0045), (0.020784609, -0.0091875, 0.00675), (0.02318222, -0.0047558, 0.008397114), (0.032, 0, 0.016), (0.016, -0.021217622, 0.004), (0.022627417, -0.017324116, 0.008), (0.027712813, -0.01225, 0.012), (0.030909626, -0.0063410667, 0.014928203), (0, 0, 0.0046), (0.008, 0, 0.0056), (0.004, -0.0053044055, 0.00485), (0.0056568542, -0.004331029, 0.0051), (0.006928203, -0.0030625, 0.00535), (0.0077274065, -0.0015852667, 0.0055330126), (0.016, 0, 0.0086), (0.008, -0.010608811, 0.0056), (0.0113137085, -0.008662058, 0.0066), (0.013856406, -0.006125, 0.0076), (0.015454813, -0.0031705333, 0.00833205), (0.024, 0, 0.0136), (0.012, -0.015913216, 0.00685), (0.016970562, -0.012993087, 0.0091), (0.020784609, -0.0091875, 0.01135), (0.02318222, -0.0047558, 0.012997114), (0.032, 0, 0.0206), (0.016, -0.021217622, 0.0086), (0.022627417, -0.017324116, 0.0126), (0.027712813, -0.01225, 0.0166), (0.030909626, -0.0063410667, 0.019528203)]
        uniform token subdivisionScheme = "none"
        custom uint[] tet_indices = [0, 2, 3, 24, 2, 0, 23, 24, 0, 21, 23, 24, 0, 3, 4, 25, 3, 0, 24, 25, 0, 21, 24, 25, 0, 4, 5, 26, 4, 0, 25, 26, 0, 21, 25, 26, 1, 0, 5, 26, 0, 1, 22, 26, 21, 0, 22, 26, 2, 7, 8, 29, 7, 2, 28, 29, 2, 23, 28, 29, 3, 2, 8, 29, 2, 3, 24, 29, 23, 2, 24, 29, 3, 8, 9, 30, 8, 3, 29, 30, 3, 24, 29, 30, 4, 3, 9, 30, 3, 4, 25, 30, 24, 3, 25, 30, 4, 9, 10, 31, 9, 4, 30, 31, 4, 25, 30, 31, 5, 4, 10, 31, 4, 5, 26, 31, 25, 4, 26, 31, 6, 5, 10, 31, 5, 6, 27, 31, 26, 5, 27, 31, 1, 5, 6, 27, 5, 1, 26, 27, 1, 22, 26, 27, 7, 12, 13, 34, 12, 7, 33, 34, 7, 28, 33, 34, 8, 7, 13, 34, 7, 8, 29, 34, 28, 7, 29, 34, 8, 13, 14, 35, 13, 8, 34, 35, 8, 29, 34, 35, 9, 8, 14, 35, 8, 9, 30, 35, 29, 8, 30, 35, 9, 14, 15, 36, 14, 9, 35, 36, 9, 30, 35, 36, 10, 9, 15, 36, 9, 10, 31, 36, 30, 9, 31, 36, 11, 10, 15, 36, 10, 11, 32, 36, 31, 10, 32, 36, 6, 10, 11, 32, 10, 6, 31, 32, 6, 27, 31, 32, 12, 17, 18, 39, 17, 12, 38, 39, 12, 33, 38, 39, 13, 12, 18, 39, 12, 13, 34, 39, 33, 12, 34, 39, 13, 18, 19, 40, 18, 13, 39, 40, 13, 34, 39, 40, 14, 13, 19, 40, 13, 14, 35, 40, 34, 13, 35, 40, 14, 19, 20, 41, 19, 14, 40, 41, 14, 35, 40, 41, 15, 14, 20, 41, 14, 15, 36, 41, 35, 14, 36, 41, 16, 15, 20, 41, 15, 16, 37, 41, 36, 15, 37, 41, 11, 15, 16, 37, 15, 11, 36, 37, 11, 32, 36, 37]
        custom float3[] tet_points = [(0, 0, 0), (0.008, 0, 0.001), (0.004, -0.0053044055, 0.00025), (0.0056568542, -0.004331029, 0.0005), (0.006928203, -0.0030625, 0.00075), (0.0077274065, -0.0015852667, 0.0009330127), (0.016, 0, 0.004), (0.008, -0.010608811, 0.001), (0.0113137085, -0.008662058, 0.002), (0.013856406, -0.006125, 0.003), (0.015454813, -0.0031705333, 0.0037320508), (0.024, 0, 0.009), (0.012, -0.015913216, 0.00225), (0.016970562, -0.012993087, 0.0045), (0.020784609, -0.0091875, 0.00675), (0.02318222, -0.0047558, 0.008397114), (0.032, 0, 0.016), (0.016, -0.021217622, 0.004), (0.022627417, -0.017324116, 0.008), (0.027712813, -0.01225, 0.012), (0.030909626, -0.0063410667, 0.014928203), (0, 0, 0.0046), (0.008, 0, 0.0056), (0.004, -0.0053044055, 0.00485), (0.0056568542, -0.004331029, 0.0051), (0.006928203, -0.0030625, 0.00535), (0.0077274065, -0.0015852667, 0.0055330126), (0.016, 0, 0.0086), (0.008, -0.010608811, 0.0056), (0.0113137085, -0.008662058, 0.0066), (0.013856406, -0.006125, 0.0076), (0.015454813, -0.0031705333, 0.00833205), (0.024, 0, 0.0136), (0.012, -0.015913216, 0.00685), (0.016970562, -0.012993087, 0.0091), (0.020784609, -0.0091875, 0.01135), (0.02318222, -0.0047558, 0.012997114), (0.032, 0, 0.0206), (0.016, -0.021217622, 0.0086), (0.022627417, -0.017324116, 0.0126), (0.027712813, -0.01225, 0.0166), (0.030909626, -0.0063410667, 0.019528203)]
        custom uint[] tet_surf_indices = [1, 5, 0, 0, 22, 1, 0, 3, 2, 2, 23, 0, 0, 4, 3, 0, 5, 4, 21, 22, 0, 0, 23, 21, 1, 6, 5, 1, 27, 6, 1, 22, 27, 3, 8, 2, 2, 8, 7, 7, 28, 2, 2, 28, 23, 4, 9, 3, 3, 9, 8, 5, 10, 4, 4, 10, 9, 6, 10, 5, 6, 11, 10, 6, 32, 11, 6, 27, 32, 8, 13, 7, 7, 13, 12, 12, 33, 7, 7, 33, 28, 9, 14, 8, 8, 14, 13, 10, 15, 9, 9, 15, 14, 11, 15, 10, 11, 16, 15, 11, 37, 16, 11, 32, 37, 13, 18, 12, 12, 18, 17, 17, 38, 12, 12, 38, 33, 14, 19, 13, 13, 19, 18, 15, 20, 14, 14, 20, 19, 16, 20, 15, 16, 41, 20, 16, 37, 41, 17, 18, 39, 17, 39, 38, 18, 19, 40, 18, 40, 39, 19, 20, 41, 19, 41, 40, 21, 26, 22, 21, 23, 24, 21, 24, 25, 21, 25, 26, 22, 26, 27, 23, 29, 24, 23, 28, 29, 24, 30, 25, 24, 29, 30, 25, 31, 26, 25, 30, 31, 26, 31, 27, 27, 31, 32, 28, 34, 29, 28, 33, 34, 29, 35, 30, 29, 34, 35, 30, 36, 31, 30, 35, 36, 31, 36, 32, 32, 36, 37, 33, 39, 34, 33, 38, 39, 34, 40, 35, 34, 39, 40, 35, 41, 36, 35, 40, 41, 36, 41, 37]
        custom float3[] tet_surf_points = [(0, 0, 0), (0.008, 0, 0.001), (0.004, -0.0053044055, 0.00025), (0.0056568542, -0.004331029, 0.0005), (0.006928203, -0.0030625, 0.00075), (0.0077274065, -0.0015852667, 0.0009330127), (0.016, 0, 0.004), (0.008, -0.010608811, 0.001), (0.0113137085, -0.008662058, 0.002), (0.013856406, -0.006125, 0.003), (0.015454813, -0.0031705333, 0.0037320508), (0.024, 0, 0.009), (0.012, -0.015913216, 0.00225), (0.016970562, -0.012993087, 0.0045), (0.020784609, -0.0091875, 0.00675), (0.02318222, -0.0047558, 0.008397114), (0.032, 0, 0.016), (0.016, -0.021217622, 0.004), (0.022627417, -0.017324116, 0.008), (0.027712813, -0.01225, 0.012), (0.030909626, -0.0063410667, 0.014928203), (0, 0, 0.0046), (0.008, 0, 0.0056), (0.004, -0.0053044055, 0.00485), (0.0056568542, -0.004331029, 0.0051), (0.006928203, -0.0030625, 0.00535), (0.0077274065, -0.0015852667, 0.0055330126), (0.016, 0, 0.0086), (0.008, -0.010608811, 0.0056), (0.0113137085, -0.008662058, 0.0066), (0.013856406, -0.006125, 0.0076), (0.015454813, -0.0031705333, 0.00833205), (0.024, 0, 0.0136), (0.012, -0.015913216, 0.00685), (0.016970562, -0.012993087, 0.0091), (0.020784609, -0.0091875, 0.01135), (0.02318222, -0.0047558, 0.012997114), (0.032, 0, 0.0206), (0.016, -0.021217622, 0.0086), (0.022627417, -0.017324116, 0.0126), (0.027712813, -0.01225, 0.0166), (0.030909626, -0.0063410667, 0.019528203)]
    }
}
