#usda 1.0
(
    defaultPrim = "chip_curved_large"
    metersPerUnit = 1
    upAxis = "Z"
)

def Xform "chip_curved_large"
{
    def Mesh "mesh"
    {
        uniform bool doubleSided = 1
        int[] faceVertexCounts = [3, 3, 3, 3, 3, 3, 3, 3, 3, 3, 3, 3, 3, 3, 3, 3, 3, 3, 3, 3, 3, 3, 3, 3, 3, 3, 3, 3, 3, 3, 3, 3, 3, 3, 3, 3, 3, 3, 3, 3, 3, 3, 3, 3, 3, 3, 3, 3, 3, 3, 3, 3, 3, 3, 3, 3, 3, 3, 3, 3, 3, 3, 3, 3, 3, 3, 3, 3, 3, 3, 3, 3, 3, 3, 3, 3, 3, 3, 3, 3, 3, 3, 3, 3, 3, 3, 3, 3, 3, 3, 3, 3, 3, 3, 3, 3, 3, 3, 3, 3, 3, 3, 3, 3, 3, 3, 3, 3, 3, 3, 3, 3, 3, 3, 3, 3, 3, 3, 3, 3, 3, 3, 3, 3, 3, 3, 3, 3, 3, 3, 3, 3, 3, 3, 3, 3, 3, 3, 3, 3, 3, 3, 3, 3, 3, 3, 3, 3, 3, 3, 3, 3, 3, 3, 3, 3, 3, 3, 3, 3, 3, 3, 3, 3, 3, 3, 3, 3, 3, 3, 3, 3, 3, 3, 3, 3, 3, 3, 3, 3, 3, 3, 3, 3, 3, 3, 3, 3, 3, 3, 3, 3, 3, 3, 3, 3, 3, 3, 3, 3, 3, 3, 3, 3, 3, 3, 3, 3, 3, 3, 3, 3, 3, 3, 3, 3, 3, 3, 3, 3, 3, 3, 3, 3, 3, 3, 3, 3, 3, 3, 3, 3, 3, 3, 3, 3, 3, 3, 3, 3, 3, 3, 3, 3, 3, 3, 3, 3, 3, 3, 3, 3, 3, 3, 3, 3, 3, 3, 3, 3, 3, 3, 3, 3, 3, 3, 3, 3, 3, 3, 3, 3, 3, 3, 3, 3, 3, 3, 3, 3, 3, 3, 3, 3, 3, 3, 3, 3, 3, 3, 3, 3, 3, 3, 3, 3, 3, 3, 3, 3, 3, 3, 3, 3, 3, 3, 3, 3, 3, 3, 3, 3, 3, 3, 3, 3, 3, 3, 3, 3, 3, 3, 3, 3, 3, 3, 3, 3, 3, 3, 3, 3, 3, 3, 3, 3, 3, 3, 3, 3, 3, 3, 3, 3, 3, 3, 3, 3, 3, 3, 3, 3, 3, 3, 3, 3, 3, 3, 3, 3, 3, 3, 3, 3, 3, 3, 3, 3, 3, 3, 3, 3, 3, 3, 3, 3, 3, 3, 3, 3, 3, 3, 3, 3]
        int[] faceVertexIndices = [0, 2, 1, 1, 24, 0, 0, 3, 2, 0, 4, 3, 0, 5, 4, 0, 6, 5, 0, 7, 6, 0, 8, 7, 0, 9, 8, 0, 10, 9, 0, 11, 10, 0, 12, 11, 0, 13, 12, 0, 14, 13, 0, 15, 14, 0, 16, 15, 0, 17, 16, 0, 18, 17, 0, 19, 18, 0, 20, 19, 0, 21, 20, 0, 22, 21, 0, 23, 22, 0, 24, 23, 2, 26, 1, 1, 25, 24, 1, 26, 25, 3, 27, 2, 2, 27, 26, 4, 28, 3, 3, 28, 27, 5, 29, 4, 4, 29, 28, 6, 30, 5, 5, 30, 29, 7, 31, 6, 6, 31, 30, 8, 32, 7, 7, 32, 31, 9, 33, 8, 8, 33, 32, 10, 34, 9, 9, 34, 33, 11, 35, 10, 10, 35, 34, 12, 36, 11, 11, 36, 35, 13, 37, 12, 12, 37, 36, 14, 38, 13, 13, 38, 37, 15, 39, 14, 14, 39, 38, 16, 40, 15, 15, 40, 39, 17, 41, 16, 16, 41, 40, 18, 42, 17, 17, 42, 41, 19, 43, 18, 18, 43, 42, 20, 44, 19, 19, 44, 43, 21, 45, 20, 20, 45, 44, 22, 46, 21, 21, 46, 45, 23, 47, 22, 22, 47, 46, 24, 48, 23, 23, 48, 47, 25, 48, 24, 26, 50, 25, 25, 49, 48, 25, 50, 49, 27, 51, 26, 26, 51, 50, 28, 52, 27, 27, 52, 51, 29, 53, 28, 28, 53, 52, 30, 54, 29, 29, 54, 53, 31, 55, 30, 30, 55, 54, 32, 56, 31, 31, 56, 55, 33, 57, 32, 32, 57, 56, 34, 58, 33, 33, 58, 57, 35, 59, 34, 34, 59, 58, 36, 60, 35, 35, 60, 59, 37, 61, 36, 36, 61, 60, 38, 62, 37, 37, 62, 61, 39, 63, 38, 38, 63, 62, 40, 64, 39, 39, 64, 63, 41, 65, 40, 40, 65, 64, 42, 66, 41, 41, 66, 65, 43, 67, 42, 42, 67, 66, 44, 68, 43, 43, 68, 67, 45, 69, 44, 44, 69, 68, 46, 70, 45, 45, 70, 69, 47, 71, 46, 46, 71, 70, 48, 72, 47, 47, 72, 71, 49, 72, 48, 50, 74, 49, 49, 73, 72, 49, 74, 73, 51, 75, 50, 50, 75, 74, 52, 76, 51, 51, 76, 75, 53, 77, 52, 52, 77, 76, 54, 78, 53, 53, 78, 77, 55, 79, 54, 54, 79, 78, 56, 80, 55, 55, 80, 79, 57, 81, 56, 56, 81, 80, 58, 82, 57, 57, 82, 81, 59, 83, 58, 58, 83, 82, 60, 84, 59, 59, 84, 83, 61, 85, 60, 60, 85, 84, 62, 86, 61, 61, 86, 85, 63, 87, 62, 62, 87, 86, 64, 88, 63, 63, 88, 87, 65, 89, 64, 64, 89, 88, 66, 90, 65, 65, 90, 89, 67, 91, 66, 66, 91, 90, 68, 92, 67, 67, 92, 91, 69, 93, 68, 68, 93, 92, 70, 94, 69, 69, 94, 93, 71, 95, 70, 70, 95, 94, 72, 96, 71, 71, 96, 95, 73, 96, 72, 73, 74, 171, 73, 193, 96, 73, 171, 170, 73, 170, 193, 74, 75, 172, 74, 172, 171, 75, 76, 173, 75, 173, 172, 76, 77, 174, 76, 174, 173, 77, 78, 175, 77, 175, 174, 78, 79, 176, 78, 176, 175, 79, 80, 177, 79, 177, 176, 80, 81, 178, 80, 178, 177, 81, 82, 179, 81, 179, 178, 82, 83, 180, 82, 180, 179, 83, 84, 181, 83, 181, 180, 84, 85, 182, 84, 182, 181, 85, 86, 183, 85, 183, 182, 86, 87, 184, 86, 184, 183, 87, 88, 185, 87, 185, 184, 88, 89, 186, 88, 186, 185, 89, 90, 187, 89, 187, 186, 90, 91, 188, 90, 188, 187, 91, 92, 189, 91, 189, 188, 92, 93, 190, 92, 190, 189, 93, 94, 191, 93, 191, 190, 94, 95, 192, 94, 192, 191, 95, 96, 193, 95, 193, 192, 97, 98, 99, 97, 121, 98, 97, 99, 100, 97, 100, 101, 97, 101, 102, 97, 102, 103, 97, 103, 104, 97, 104, 105, 97, 105, 106, 97, 106, 107, 97, 107, 108, 97, 108, 109, 97, 109, 110, 97, 110, 111, 97, 111, 112, 97, 112, 113, 97, 113, 114, 97, 114, 115, 97, 115, 116, 97, 116, 117, 97, 117, 118, 97, 118, 119, 97, 119, 120, 97, 120, 121, 98, 123, 99, 98, 121, 122, 98, 122, 123, 99, 124, 100, 99, 123, 124, 100, 125, 101, 100, 124, 125, 101, 126, 102, 101, 125, 126, 102, 127, 103, 102, 126, 127, 103, 128, 104, 103, 127, 128, 104, 129, 105, 104, 128, 129, 105, 130, 106, 105, 129, 130, 106, 131, 107, 106, 130, 131, 107, 132, 108, 107, 131, 132, 108, 133, 109, 108, 132, 133, 109, 134, 110, 109, 133, 134, 110, 135, 111, 110, 134, 135, 111, 136, 112, 111, 135, 136, 112, 137, 113, 112, 136, 137, 113, 138, 114, 113, 137, 138, 114, 139, 115, 114, 138, 139, 115, 140, 116, 115, 139, 140, 116, 141, 117, 116, 140, 141, 117, 142, 118, 117, 141, 142, 118, 143, 119, 118, 142, 143, 119, 144, 120, 119, 143, 144, 120, 145, 121, 120, 144, 145, 121, 145, 122, 122, 147, 123, 122, 145, 146, 122, 146, 147, 123, 148, 124, 123, 147, 148, 124, 149, 125, 124, 148, 149, 125, 150, 126, 125, 149, 150, 126, 151, 127, 126, 150, 151, 127, 152, 128, 127, 151, 152, 128, 153, 129, 128, 152, 153, 129, 154, 130, 129, 153, 154, 130, 155, 131, 130, 154, 155, 131, 156, 132, 131, 155, 156, 132, 157, 133, 132, 156, 157, 133, 158, 134, 133, 157, 158, 134, 159, 135, 134, 158, 159, 135, 160, 136, 135, 159, 160, 136, 161, 137, 136, 160, 161, 137, 162, 138, 137, 161, 162, 138, 163, 139, 138, 162, 163, 139, 164, 140, 139, 163, 164, 140, 165, 141, 140, 164, 165, 141, 166, 142, 141, 165, 166, 142, 167, 143, 142, 166, 167, 143, 168, 144, 143, 167, 168, 144, 169, 145, 144, 168, 169, 145, 169, 146, 146, 171, 147, 146, 169, 170, 146, 170, 171, 147, 172, 148, 147, 171, 172, 148, 173, 149, 148, 172, 173, 149, 174, 150, 149, 173, 174, 150, 175, 151, 150, 174, 175, 151, 176, 152, 151, 175, 176, 152, 177, 153, 152, 176, 177, 153, 178, 154, 153, 177, 178, 154, 179, 155, 154, 178, 179, 155, 180, 156, 155, 179, 180, 156, 181, 157, 156, 180, 181, 157, 182, 158, 157, 181, 182, 158, 183, 159, 158, 182, 183, 159, 184, 160, 159, 183, 184, 160, 185, 161, 160, 184, 185, 161, 186, 162, 161, 185, 186, 162, 187, 163, 162, 186, 187, 163, 188, 164, 163, 187, 188, 164, 189, 165, 164, 188, 189, 165, 190, 166, 165, 189, 190, 166, 191, 167, 166, 190, 191, 167, 192, 168, 167, 191, 192, 168, 193, 169, 168, 192, 193, 169, 193, 170]
        point3f[] points = [(0, 0, 0), (0.00875, 0, 0.001), (0.008451851, 0.0017470286, 0.0009330127), (0.0075777224, 0.003375, 0.00075), (0.0061871842, 0.004772971, 0.0005), (0.004375, 0.0058456715, 0.00025), (0.0022646666, 0.0065199994, 0.0000669873), (5.35783e-19, 0.00675, 3.7493994e-36), (-0.0022646666, 0.0065199994, 0.0000669873), (-0.004375, 0.0058456715, 0.00025), (-0.0061871842, 0.004772971, 0.0005), (-0.0075777224, 0.003375, 0.00075), (-0.008451851, 0.0017470286, 0.0009330127), (-0.00875, 8.266366e-19, 0.001), (-0.008451851, -0.0017470286, 0.0009330127), (-0.0075777224, -0.003375, 0.00075), (-0.0061871842, -0.004772971, 0.0005), (-0.004375, -0.0058456715, 0.00025), (-0.0022646666, -0.0065199994, 0.0000669873), (-1.6073489e-18, -0.00675, 3.3744594e-35), (0.0022646666, -0.0065199994, 0.0000669873), (0.004375, -0.0058456715, 0.00025), (0.0061871842, -0.004772971, 0.0005), (0.0075777224, -0.003375, 0.00075), (0.008451851, -0.0017470286, 0.0009330127), (0.0175, 0, 0.004), (0.016903702, 0.003494057, 0.0037320508), (0.015155445, 0.00675, 0.003), (0.0123743685, 0.009545942, 0.002), (0.00875, 0.011691343, 0.001), (0.004529333, 0.013039999, 0.0002679492), (1.071566e-18, 0.0135, 1.4997597e-35), (-0.004529333, 0.013039999, 0.0002679492), (-0.00875, 0.011691343, 0.001), (-0.0123743685, 0.009545942, 0.002), (-0.015155445, 0.00675, 0.003), (-0.016903702, 0.003494057, 0.0037320508), (-0.0175, 1.6532732e-18, 0.004), (-0.016903702, -0.003494057, 0.0037320508), (-0.015155445, -0.00675, 0.003), (-0.0123743685, -0.009545942, 0.002), (-0.00875, -0.011691343, 0.001), (-0.004529333, -0.013039999, 0.0002679492), (-3.2146979e-18, -0.0135, 1.3497838e-34), (0.004529333, -0.013039999, 0.0002679492), (0.00875, -0.011691343, 0.001), (0.0123743685, -0.009545942, 0.002), (0.015155445, -0.00675, 0.003), (0.016903702, -0.003494057, 0.0037320508), (0.02625, 0, 0.009), (0.025355553, 0.005241086, 0.008397114), (0.022733167, 0.010125, 0.00675), (0.018561553, 0.014318912, 0.0045), (0.013125, 0.017537015, 0.00225), (0.006794, 0.019559998, 0.0006028857), (1.6073489e-18, 0.02025, 3.3744594e-35), (-0.006794, 0.019559998, 0.0006028857), (-0.013125, 0.017537015, 0.00225), (-0.018561553, 0.014318912, 0.0045), (-0.022733167, 0.010125, 0.00675), (-0.025355553, 0.005241086, 0.008397114), (-0.02625, 2.4799098e-18, 0.009), (-0.025355553, -0.005241086, 0.008397114), (-0.022733167, -0.010125, 0.00675), (-0.018561553, -0.014318912, 0.0045), (-0.013125, -0.017537015, 0.00225), (-0.006794, -0.019559998, 0.0006028857), (-4.822047e-18, -0.02025, 3.0370136e-34), (0.006794, -0.019559998, 0.0006028857), (0.013125, -0.017537015, 0.00225), (0.018561553, -0.014318912, 0.0045), (0.022733167, -0.010125, 0.00675), (0.025355553, -0.005241086, 0.008397114), (0.035, 0, 0.016), (0.033807404, 0.006988114, 0.014928203), (0.03031089, 0.0135, 0.012), (0.024748737, 0.019091884, 0.008), (0.0175, 0.023382686, 0.004), (0.009058666, 0.026079997, 0.0010717968), (2.143132e-18, 0.027, 5.999039e-35), (-0.009058666, 0.026079997, 0.0010717968), (-0.0175, 0.023382686, 0.004), (-0.024748737, 0.019091884, 0.008), (-0.03031089, 0.0135, 0.012), (-0.033807404, 0.006988114, 0.014928203), (-0.035, 3.3065463e-18, 0.016), (-0.033807404, -0.006988114, 0.014928203), (-0.03031089, -0.0135, 0.012), (-0.024748737, -0.019091884, 0.008), (-0.0175, -0.023382686, 0.004), (-0.009058666, -0.026079997, 0.0010717968), (-6.4293957e-18, -0.027, 5.399135e-34), (0.009058666, -0.026079997, 0.0010717968), (0.0175, -0.023382686, 0.004), (0.024748737, -0.019091884, 0.008), (0.03031089, -0.0135, 0.012), (0.033807404, -0.006988114, 0.014928203), (0, 0, 0.005), (0.00875, 0, 0.006), (0.008451851, 0.0017470286, 0.005933013), (0.0075777224, 0.003375, 0.00575), (0.0061871842, 0.004772971, 0.0055), (0.004375, 0.0058456715, 0.00525), (0.0022646666, 0.0065199994, 0.005066987), (5.35783e-19, 0.00675, 0.005), (-0.0022646666, 0.0065199994, 0.005066987), (-0.004375, 0.0058456715, 0.00525), (-0.0061871842, 0.004772971, 0.0055), (-0.0075777224, 0.003375, 0.00575), (-0.008451851, 0.0017470286, 0.005933013), (-0.00875, 8.266366e-19, 0.006), (-0.008451851, -0.0017470286, 0.005933013), (-0.0075777224, -0.003375, 0.00575), (-0.0061871842, -0.004772971, 0.0055), (-0.004375, -0.0058456715, 0.00525), (-0.0022646666, -0.0065199994, 0.005066987), (-1.6073489e-18, -0.00675, 0.005), (0.0022646666, -0.0065199994, 0.005066987), (0.004375, -0.0058456715, 0.00525), (0.0061871842, -0.004772971, 0.0055), (0.0075777224, -0.003375, 0.00575), (0.008451851, -0.0017470286, 0.005933013), (0.0175, 0, 0.009), (0.016903702, 0.003494057, 0.008732051), (0.015155445, 0.00675, 0.008), (0.0123743685, 0.009545942, 0.007), (0.00875, 0.011691343, 0.006), (0.004529333, 0.013039999, 0.0052679493), (1.071566e-18, 0.0135, 0.005), (-0.004529333, 0.013039999, 0.0052679493), (-0.00875, 0.011691343, 0.006), (-0.0123743685, 0.009545942, 0.007), (-0.015155445, 0.00675, 0.008), (-0.016903702, 0.003494057, 0.008732051), (-0.0175, 1.6532732e-18, 0.009), (-0.016903702, -0.003494057, 0.008732051), (-0.015155445, -0.00675, 0.008), (-0.0123743685, -0.009545942, 0.007), (-0.00875, -0.011691343, 0.006), (-0.004529333, -0.013039999, 0.0052679493), (-3.2146979e-18, -0.0135, 0.005), (0.004529333, -0.013039999, 0.0052679493), (0.00875, -0.011691343, 0.006), (0.0123743685, -0.009545942, 0.007), (0.015155445, -0.00675, 0.008), (0.016903702, -0.003494057, 0.008732051), (0.02625, 0, 0.014), (0.025355553, 0.005241086, 0.013397114), (0.022733167, 0.010125, 0.01175), (0.018561553, 0.014318912, 0.0095), (0.013125, 0.017537015, 0.00725), (0.006794, 0.019559998, 0.0056028855), (1.6073489e-18, 0.02025, 0.005), (-0.006794, 0.019559998, 0.0056028855), (-0.013125, 0.017537015, 0.00725), (-0.018561553, 0.014318912, 0.0095), (-0.022733167, 0.010125, 0.01175), (-0.025355553, 0.005241086, 0.013397114), (-0.02625, 2.4799098e-18, 0.014), (-0.025355553, -0.005241086, 0.013397114), (-0.022733167, -0.010125, 0.01175), (-0.018561553, -0.014318912, 0.0095), (-0.013125, -0.017537015, 0.00725), (-0.006794, -0.019559998, 0.0056028855), (-4.822047e-18, -0.02025, 0.005), (0.006794, -0.019559998, 0.0056028855), (0.013125, -0.017537015, 0.00725), (0.018561553, -0.014318912, 0.0095), (0.022733167, -0.010125, 0.01175), (0.025355553, -0.005241086, 0.013397114), (0.035, 0, 0.021), (0.033807404, 0.006988114, 0.019928204), (0.03031089, 0.0135, 0.017), (0.024748737, 0.019091884, 0.013), (0.0175, 0.023382686, 0.009), (0.009058666, 0.026079997, 0.0060717966), (2.143132e-18, 0.027, 0.005), (-0.009058666, 0.026079997, 0.0060717966), (-0.0175, 0.023382686, 0.009), (-0.024748737, 0.019091884, 0.013), (-0.03031089, 0.0135, 0.017), (-0.033807404, 0.006988114, 0.019928204), (-0.035, 3.3065463e-18, 0.021), (-0.033807404, -0.006988114, 0.019928204), (-0.03031089, -0.0135, 0.017), (-0.024748737, -0.019091884, 0.013), (-0.0175, -0.023382686, 0.009), (-0.009058666, -0.026079997, 0.0060717966), (-6.4293957e-18, -0.027, 0.005), (0.009058666, -0.026079997, 0.0060717966), (0.0175, -0.023382686, 0.009), (0.024748737, -0.019091884, 0.013), (0.03031089, -0.0135, 0.017), (0.033807404, -0.006988114, 0.019928204)]
        uniform token subdivisionScheme = "none"
        custom uint[] tet_indices = [0, 1, 2, 99, 1, 0, 98, 99, 0, 97, 98, 99, 0, 2, 3, 100, 2, 0, 99, 100, 0, 97, 99, 100, 0, 3, 4, 101, 3, 0, 100, 101, 0, 97, 100, 101, 0, 4, 5, 102, 4, 0, 101, 102, 0, 97, 101, 102, 0, 5, 6, 103, 5, 0, 102, 103, 0, 97, 102, 103, 0, 6, 7, 104, 6, 0, 103, 104, 0, 97, 103, 104, 0, 7, 8, 105, 7, 0, 104, 105, 0, 97, 104, 105, 0, 8, 9, 106, 8, 0, 105, 106, 0, 97, 105, 106, 0, 9, 10, 107, 9, 0, 106, 107, 0, 97, 106, 107, 0, 10, 11, 108, 10, 0, 107, 108, 0, 97, 107, 108, 0, 11, 12, 109, 11, 0, 108, 109, 0, 97, 108, 109, 0, 12, 13, 110, 12, 0, 109, 110, 0, 97, 109, 110, 0, 13, 14, 111, 13, 0, 110, 111, 0, 97, 110, 111, 0, 14, 15, 112, 14, 0, 111, 112, 0, 97, 111, 112, 0, 15, 16, 113, 15, 0, 112, 113, 0, 97, 112, 113, 0, 16, 17, 114, 16, 0, 113, 114, 0, 97, 113, 114, 0, 17, 18, 115, 17, 0, 114, 115, 0, 97, 114, 115, 0, 18, 19, 116, 18, 0, 115, 116, 0, 97, 115, 116, 0, 19, 20, 117, 19, 0, 116, 117, 0, 97, 116, 117, 0, 20, 21, 118, 20, 0, 117, 118, 0, 97, 117, 118, 0, 21, 22, 119, 21, 0, 118, 119, 0, 97, 118, 119, 0, 22, 23, 120, 22, 0, 119, 120, 0, 97, 119, 120, 0, 23, 24, 121, 23, 0, 120, 121, 0, 97, 120, 121, 1, 0, 24, 121, 0, 1, 98, 121, 97, 0, 98, 121, 1, 25, 26, 123, 25, 1, 122, 123, 1, 98, 122, 123, 2, 1, 26, 123, 1, 2, 99, 123, 98, 1, 99, 123, 2, 26, 27, 124, 26, 2, 123, 124, 2, 99, 123, 124, 3, 2, 27, 124, 2, 3, 100, 124, 99, 2, 100, 124, 3, 27, 28, 125, 27, 3, 124, 125, 3, 100, 124, 125, 4, 3, 28, 125, 3, 4, 101, 125, 100, 3, 101, 125, 4, 28, 29, 126, 28, 4, 125, 126, 4, 101, 125, 126, 5, 4, 29, 126, 4, 5, 102, 126, 101, 4, 102, 126, 5, 29, 30, 127, 29, 5, 126, 127, 5, 102, 126, 127, 6, 5, 30, 127, 5, 6, 103, 127, 102, 5, 103, 127, 6, 30, 31, 128, 30, 6, 127, 128, 6, 103, 127, 128, 7, 6, 31, 128, 6, 7, 104, 128, 103, 6, 104, 128, 7, 31, 32, 129, 31, 7, 128, 129, 7, 104, 128, 129, 8, 7, 32, 129, 7, 8, 105, 129, 104, 7, 105, 129, 8, 32, 33, 130, 32, 8, 129, 130, 8, 105, 129, 130, 9, 8, 33, 130, 8, 9, 106, 130, 105, 8, 106, 130, 9, 33, 34, 131, 33, 9, 130, 131, 9, 106, 130, 131, 10, 9, 34, 131, 9, 10, 107, 131, 106, 9, 107, 131, 10, 34, 35, 132, 34, 10, 131, 132, 10, 107, 131, 132, 11, 10, 35, 132, 10, 11, 108, 132, 107, 10, 108, 132, 11, 35, 36, 133, 35, 11, 132, 133, 11, 108, 132, 133, 12, 11, 36, 133, 11, 12, 109, 133, 108, 11, 109, 133, 12, 36, 37, 134, 36, 12, 133, 134, 12, 109, 133, 134, 13, 12, 37, 134, 12, 13, 110, 134, 109, 12, 110, 134, 13, 37, 38, 135, 37, 13, 134, 135, 13, 110, 134, 135, 14, 13, 38, 135, 13, 14, 111, 135, 110, 13, 111, 135, 14, 38, 39, 136, 38, 14, 135, 136, 14, 111, 135, 136, 15, 14, 39, 136, 14, 15, 112, 136, 111, 14, 112, 136, 15, 39, 40, 137, 39, 15, 136, 137, 15, 112, 136, 137, 16, 15, 40, 137, 15, 16, 113, 137, 112, 15, 113, 137, 16, 40, 41, 138, 40, 16, 137, 138, 16, 113, 137, 138, 17, 16, 41, 138, 16, 17, 114, 138, 113, 16, 114, 138, 17, 41, 42, 139, 41, 17, 138, 139, 17, 114, 138, 139, 18, 17, 42, 139, 17, 18, 115, 139, 114, 17, 115, 139, 18, 42, 43, 140, 42, 18, 139, 140, 18, 115, 139, 140, 19, 18, 43, 140, 18, 19, 116, 140, 115, 18, 116, 140, 19, 43, 44, 141, 43, 19, 140, 141, 19, 116, 140, 141, 20, 19, 44, 141, 19, 20, 117, 141, 116, 19, 117, 141, 20, 44, 45, 142, 44, 20, 141, 142, 20, 117, 141, 142, 21, 20, 45, 142, 20, 21, 118, 142, 117, 20, 118, 142, 21, 45, 46, 143, 45, 21, 142, 143, 21, 118, 142, 143, 22, 21, 46, 143, 21, 22, 119, 143, 118, 21, 119, 143, 22, 46, 47, 144, 46, 22, 143, 144, 22, 119, 143, 144, 23, 22, 47, 144, 22, 23, 120, 144, 119, 22, 120, 144, 23, 47, 48, 145, 47, 23, 144, 145, 23, 120, 144, 145, 24, 23, 48, 145, 23, 24, 121, 145, 120, 23, 121, 145, 25, 24, 48, 145, 24, 25, 122, 145, 121, 24, 122, 145, 1, 24, 25, 122, 24, 1, 121, 122, 1, 98, 121, 122, 25, 49, 50, 147, 49, 25, 146, 147, 25, 122, 146, 147, 26, 25, 50, 147, 25, 26, 123, 147, 122, 25, 123, 147, 26, 50, 51, 148, 50, 26, 147, 148, 26, 123, 147, 148, 27, 26, 51, 148, 26, 27, 124, 148, 123, 26, 124, 148, 27, 51, 52, 149, 51, 27, 148, 149, 27, 124, 148, 149, 28, 27, 52, 149, 27, 28, 125, 149, 124, 27, 125, 149, 28, 52, 53, 150, 52, 28, 149, 150, 28, 125, 149, 150, 29, 28, 53, 150, 28, 29, 126, 150, 125, 28, 126, 150, 29, 53, 54, 151, 53, 29, 150, 151, 29, 126, 150, 151, 30, 29, 54, 151, 29, 30, 127, 151, 126, 29, 127, 151, 30, 54, 55, 152, 54, 30, 151, 152, 30, 127, 151, 152, 31, 30, 55, 152, 30, 31, 128, 152, 127, 30, 128, 152, 31, 55, 56, 153, 55, 31, 152, 153, 31, 128, 152, 153, 32, 31, 56, 153, 31, 32, 129, 153, 128, 31, 129, 153, 32, 56, 57, 154, 56, 32, 153, 154, 32, 129, 153, 154, 33, 32, 57, 154, 32, 33, 130, 154, 129, 32, 130, 154, 33, 57, 58, 155, 57, 33, 154, 155, 33, 130, 154, 155, 34, 33, 58, 155, 33, 34, 131, 155, 130, 33, 131, 155, 34, 58, 59, 156, 58, 34, 155, 156, 34, 131, 155, 156, 35, 34, 59, 156, 34, 35, 132, 156, 131, 34, 132, 156, 35, 59, 60, 157, 59, 35, 156, 157, 35, 132, 156, 157, 36, 35, 60, 157, 35, 36, 133, 157, 132, 35, 133, 157, 36, 60, 61, 158, 60, 36, 157, 158, 36, 133, 157, 158, 37, 36, 61, 158, 36, 37, 134, 158, 133, 36, 134, 158, 37, 61, 62, 159, 61, 37, 158, 159, 37, 134, 158, 159, 38, 37, 62, 159, 37, 38, 135, 159, 134, 37, 135, 159, 38, 62, 63, 160, 62, 38, 159, 160, 38, 135, 159, 160, 39, 38, 63, 160, 38, 39, 136, 160, 135, 38, 136, 160, 39, 63, 64, 161, 63, 39, 160, 161, 39, 136, 160, 161, 40, 39, 64, 161, 39, 40, 137, 161, 136, 39, 137, 161, 40, 64, 65, 162, 64, 40, 161, 162, 40, 137, 161, 162, 41, 40, 65, 162, 40, 41, 138, 162, 137, 40, 138, 162, 41, 65, 66, 163, 65, 41, 162, 163, 41, 138, 162, 163, 42, 41, 66, 163, 41, 42, 139, 163, 138, 41, 139, 163, 42, 66, 67, 164, 66, 42, 163, 164, 42, 139, 163, 164, 43, 42, 67, 164, 42, 43, 140, 164, 139, 42, 140, 164, 43, 67, 68, 165, 67, 43, 164, 165, 43, 140, 164, 165, 44, 43, 68, 165, 43, 44, 141, 165, 140, 43, 141, 165, 44, 68, 69, 166, 68, 44, 165, 166, 44, 141, 165, 166, 45, 44, 69, 166, 44, 45, 142, 166, 141, 44, 142, 166, 45, 69, 70, 167, 69, 45, 166, 167, 45, 142, 166, 167, 46, 45, 70, 167, 45, 46, 143, 167, 142, 45, 143, 167, 46, 70, 71, 168, 70, 46, 167, 168, 46, 143, 167, 168, 47, 46, 71, 168, 46, 47, 144, 168, 143, 46, 144, 168, 47, 71, 72, 169, 71, 47, 168, 169, 47, 144, 168, 169, 48, 47, 72, 169, 47, 48, 145, 169, 144, 47, 145, 169, 49, 48, 72, 169, 48, 49, 146, 169, 145, 48, 146, 169, 25, 48, 49, 146, 48, 25, 145, 146, 25, 122, 145, 146, 49, 73, 74, 171, 73, 49, 170, 171, 49, 146, 170, 171, 50, 49, 74, 171, 49, 50, 147, 171, 146, 49, 147, 171, 50, 74, 75, 172, 74, 50, 171, 172, 50, 147, 171, 172, 51, 50, 75, 172, 50, 51, 148, 172, 147, 50, 148, 172, 51, 75, 76, 173, 75, 51, 172, 173, 51, 148, 172, 173, 52, 51, 76, 173, 51, 52, 149, 173, 148, 51, 149, 173, 52, 76, 77, 174, 76, 52, 173, 174, 52, 149, 173, 174, 53, 52, 77, 174, 52, 53, 150, 174, 149, 52, 150, 174, 53, 77, 78, 175, 77, 53, 174, 175, 53, 150, 174, 175, 54, 53, 78, 175, 53, 54, 151, 175, 150, 53, 151, 175, 54, 78, 79, 176, 78, 54, 175, 176, 54, 151, 175, 176, 55, 54, 79, 176, 54, 55, 152, 176, 151, 54, 152, 176, 55, 79, 80, 177, 79, 55, 176, 177, 55, 152, 176, 177, 56, 55, 80, 177, 55, 56, 153, 177, 152, 55, 153, 177, 56, 80, 81, 178, 80, 56, 177, 178, 56, 153, 177, 178, 57, 56, 81, 178, 56, 57, 154, 178, 153, 56, 154, 178, 57, 81, 82, 179, 81, 57, 178, 179, 57, 154, 178, 179, 58, 57, 82, 179, 57, 58, 155, 179, 154, 57, 155, 179, 58, 82, 83, 180, 82, 58, 179, 180, 58, 155, 179, 180, 59, 58, 83, 180, 58, 59, 156, 180, 155, 58, 156, 180, 59, 83, 84, 181, 83, 59, 180, 181, 59, 156, 180, 181, 60, 59, 84, 181, 59, 60, 157, 181, 156, 59, 157, 181, 60, 84, 85, 182, 84, 60, 181, 182, 60, 157, 181, 182, 61, 60, 85, 182, 60, 61, 158, 182, 157, 60, 158, 182, 61, 85, 86, 183, 85, 61, 182, 183, 61, 158, 182, 183, 62, 61, 86, 183, 61, 62, 159, 183, 158, 61, 159, 183, 62, 86, 87, 184, 86, 62, 183, 184, 62, 159, 183, 184, 63, 62, 87, 184, 62, 63, 160, 184, 159, 62, 160, 184, 63, 87, 88, 185, 87, 63, 184, 185, 63, 160, 184, 185, 64, 63, 88, 185, 63, 64, 161, 185, 160, 63, 161, 185, 64, 88, 89, 186, 88, 64, 185, 186, 64, 161, 185, 186, 65, 64, 89, 186, 64, 65, 162, 186, 161, 64, 162, 186, 65, 89, 90, 187, 89, 65, 186, 187, 65, 162, 186, 187, 66, 65, 90, 187, 65, 66, 163, 187, 162, 65, 163, 187, 66, 90, 91, 188, 90, 66, 187, 188, 66, 163, 187, 188, 67, 66, 91, 188, 66, 67, 164, 188, 163, 66, 164, 188, 67, 91, 92, 189, 91, 67, 188, 189, 67, 164, 188, 189, 68, 67, 92, 189, 67, 68, 165, 189, 164, 67, 165, 189, 68, 92, 93, 190, 92, 68, 189, 190, 68, 165, 189, 190, 69, 68, 93, 190, 68, 69, 166, 190, 165, 68, 166, 190, 69, 93, 94, 191, 93, 69, 190, 191, 69, 166, 190, 191, 70, 69, 94, 191, 69, 70, 167, 191, 166, 69, 167, 191, 70, 94, 95, 192, 94, 70, 191, 192, 70, 167, 191, 192, 71, 70, 95, 192, 70, 71, 168, 192, 167, 70, 168, 192, 71, 95, 96, 193, 95, 71, 192, 193, 71, 168, 192, 193, 72, 71, 96, 193, 71, 72, 169, 193, 168, 71, 169, 193, 73, 72, 96, 193, 72, 73, 170, 193, 169, 72, 170, 193, 49, 72, 73, 170, 72, 49, 169, 170, 49, 146, 169, 170]
        custom float3[] tet_points = [(0, 0, 0), (0.00875, 0, 0.001), (0.008451851, 0.0017470286, 0.0009330127), (0.0075777224, 0.003375, 0.00075), (0.0061871842, 0.004772971, 0.0005), (0.004375, 0.0058456715, 0.00025), (0.0022646666, 0.0065199994, 0.0000669873), (5.35783e-19, 0.00675, 3.7493994e-36), (-0.0022646666, 0.0065199994, 0.0000669873), (-0.004375, 0.0058456715, 0.00025), (-0.0061871842, 0.004772971, 0.0005), (-0.0075777224, 0.003375, 0.00075), (-0.008451851, 0.0017470286, 0.0009330127), (-0.00875, 8.266366e-19, 0.001), (-0.008451851, -0.0017470286, 0.0009330127), (-0.0075777224, -0.003375, 0.00075), (-0.0061871842, -0.004772971, 0.0005), (-0.004375, -0.0058456715, 0.00025), (-0.0022646666, -0.0065199994, 0.0000669873), (-1.6073489e-18, -0.00675, 3.3744594e-35), (0.0022646666, -0.0065199994, 0.0000669873), (0.004375, -0.0058456715, 0.00025), (0.0061871842, -0.004772971, 0.0005), (0.0075777224, -0.003375, 0.00075), (0.008451851, -0.0017470286, 0.0009330127), (0.0175, 0, 0.004), (0.016903702, 0.003494057, 0.0037320508), (0.015155445, 0.00675, 0.003), (0.0123743685, 0.009545942, 0.002), (0.00875, 0.011691343, 0.001), (0.004529333, 0.013039999, 0.0002679492), (1.071566e-18, 0.0135, 1.4997597e-35), (-0.004529333, 0.013039999, 0.0002679492), (-0.00875, 0.011691343, 0.001), (-0.0123743685, 0.009545942, 0.002), (-0.015155445, 0.00675, 0.003), (-0.016903702, 0.003494057, 0.0037320508), (-0.0175, 1.6532732e-18, 0.004), (-0.016903702, -0.003494057, 0.0037320508), (-0.015155445, -0.00675, 0.003), (-0.0123743685, -0.009545942, 0.002), (-0.00875, -0.011691343, 0.001), (-0.004529333, -0.013039999, 0.0002679492), (-3.2146979e-18, -0.0135, 1.3497838e-34), (0.004529333, -0.013039999, 0.0002679492), (0.00875, -0.011691343, 0.001), (0.0123743685, -0.009545942, 0.002), (0.015155445, -0.00675, 0.003), (0.016903702, -0.003494057, 0.0037320508), (0.02625, 0, 0.009), (0.025355553, 0.005241086, 0.008397114), (0.022733167, 0.010125, 0.00675), (0.018561553, 0.014318912, 0.0045), (0.013125, 0.017537015, 0.00225), (0.006794, 0.019559998, 0.0006028857), (1.6073489e-18, 0.02025, 3.3744594e-35), (-0.006794, 0.019559998, 0.0006028857), (-0.013125, 0.017537015, 0.00225), (-0.018561553, 0.014318912, 0.0045), (-0.022733167, 0.010125, 0.00675), (-0.025355553, 0.005241086, 0.008397114), (-0.02625, 2.4799098e-18, 0.009), (-0.025355553, -0.005241086, 0.008397114), (-0.022733167, -0.010125, 0.00675), (-0.018561553, -0.014318912, 0.0045), (-0.013125, -0.017537015, 0.00225), (-0.006794, -0.019559998, 0.0006028857), (-4.822047e-18, -0.02025, 3.0370136e-34), (0.006794, -0.019559998, 0.0006028857), (0.013125, -0.017537015, 0.00225), (0.018561553, -0.014318912, 0.0045), (0.022733167, -0.010125, 0.00675), (0.025355553, -0.005241086, 0.008397114), (0.035, 0, 0.016), (0.033807404, 0.006988114, 0.014928203), (0.03031089, 0.0135, 0.012), (0.024748737, 0.019091884, 0.008), (0.0175, 0.023382686, 0.004), (0.009058666, 0.026079997, 0.0010717968), (2.143132e-18, 0.027, 5.999039e-35), (-0.009058666, 0.026079997, 0.0010717968), (-0.0175, 0.023382686, 0.004), (-0.024748737, 0.019091884, 0.008), (-0.03031089, 0.0135, 0.012), (-0.033807404, 0.006988114, 0.014928203), (-0.035, 3.3065463e-18, 0.016), (-0.033807404, -0.006988114, 0.014928203), (-0.03031089, -0.0135, 0.012), (-0.024748737, -0.019091884, 0.008), (-0.0175, -0.023382686, 0.004), (-0.009058666, -0.026079997, 0.0010717968), (-6.4293957e-18, -0.027, 5.399135e-34), (0.009058666, -0.026079997, 0.0010717968), (0.0175, -0.023382686, 0.004), (0.024748737, -0.019091884, 0.008), (0.03031089, -0.0135, 0.012), (0.033807404, -0.006988114, 0.014928203), (0, 0, 0.005), (0.00875, 0, 0.006), (0.008451851, 0.0017470286, 0.005933013), (0.0075777224, 0.003375, 0.00575), (0.0061871842, 0.004772971, 0.0055), (0.004375, 0.0058456715, 0.00525), (0.0022646666, 0.0065199994, 0.005066987), (5.35783e-19, 0.00675, 0.005), (-0.0022646666, 0.0065199994, 0.005066987), (-0.004375, 0.0058456715, 0.00525), (-0.0061871842, 0.004772971, 0.0055), (-0.0075777224, 0.003375, 0.00575), (-0.008451851, 0.0017470286, 0.005933013), (-0.00875, 8.266366e-19, 0.006), (-0.008451851, -0.0017470286, 0.005933013), (-0.0075777224, -0.003375, 0.00575), (-0.0061871842, -0.004772971, 0.0055), (-0.004375, -0.0058456715, 0.00525), (-0.0022646666, -0.0065199994, 0.005066987), (-1.6073489e-18, -0.00675, 0.005), (0.0022646666, -0.0065199994, 0.005066987), (0.004375, -0.0058456715, 0.00525), (0.0061871842, -0.004772971, 0.0055), (0.0075777224, -0.003375, 0.00575), (0.008451851, -0.0017470286, 0.005933013), (0.0175, 0, 0.009), (0.016903702, 0.003494057, 0.008732051), (0.015155445, 0.00675, 0.008), (0.0123743685, 0.009545942, 0.007), (0.00875, 0.011691343, 0.006), (0.004529333, 0.013039999, 0.0052679493), (1.071566e-18, 0.0135, 0.005), (-0.004529333, 0.013039999, 0.0052679493), (-0.00875, 0.011691343, 0.006), (-0.0123743685, 0.009545942, 0.007), (-0.015155445, 0.00675, 0.008), (-0.016903702, 0.003494057, 0.008732051), (-0.0175, 1.6532732e-18, 0.009), (-0.016903702, -0.003494057, 0.008732051), (-0.015155445, -0.00675, 0.008), (-0.0123743685, -0.009545942, 0.007), (-0.00875, -0.011691343, 0.006), (-0.004529333, -0.013039999, 0.0052679493), (-3.2146979e-18, -0.0135, 0.005), (0.004529333, -0.013039999, 0.0052679493), (0.00875, -0.011691343, 0.006), (0.0123743685, -0.009545942, 0.007), (0.015155445, -0.00675, 0.008), (0.016903702, -0.003494057, 0.008732051), (0.02625, 0, 0.014), (0.025355553, 0.005241086, 0.013397114), (0.022733167, 0.010125, 0.01175), (0.018561553, 0.014318912, 0.0095), (0.013125, 0.017537015, 0.00725), (0.006794, 0.019559998, 0.0056028855), (1.6073489e-18, 0.02025, 0.005), (-0.006794, 0.019559998, 0.0056028855), (-0.013125, 0.017537015, 0.00725), (-0.018561553, 0.014318912, 0.0095), (-0.022733167, 0.010125, 0.01175), (-0.025355553, 0.005241086, 0.013397114), (-0.02625, 2.4799098e-18, 0.014), (-0.025355553, -0.005241086, 0.013397114), (-0.022733167, -0.010125, 0.01175), (-0.018561553, -0.014318912, 0.0095), (-0.013125, -0.017537015, 0.00725), (-0.006794, -0.019559998, 0.0056028855), (-4.822047e-18, -0.02025, 0.005), (0.006794, -0.019559998, 0.0056028855), (0.013125, -0.017537015, 0.00725), (0.018561553, -0.014318912, 0.0095), (0.022733167, -0.010125, 0.01175), (0.025355553, -0.005241086, 0.013397114), (0.035, 0, 0.021), (0.033807404, 0.006988114, 0.019928204), (0.03031089, 0.0135, 0.017), (0.024748737, 0.019091884, 0.013), (0.0175, 0.023382686, 0.009), (0.009058666, 0.026079997, 0.0060717966), (2.143132e-18, 0.027, 0.005), (-0.009058666, 0.026079997, 0.0060717966), (-0.0175, 0.023382686, 0.009), (-0.024748737, 0.019091884, 0.013), (-0.03031089, 0.0135, 0.017), (-0.033807404, 0.006988114, 0.019928204), (-0.035, 3.3065463e-18, 0.021), (-0.033807404, -0.006988114, 0.019928204), (-0.03031089, -0.0135, 0.017), (-0.024748737, -0.019091884, 0.013), (-0.0175, -0.023382686, 0.009), (-0.009058666, -0.026079997, 0.0060717966), (-6.4293957e-18, -0.027, 0.005), (0.009058666, -0.026079997, 0.0060717966), (0.0175, -0.023382686, 0.009), (0.024748737, -0.019091884, 0.013), (0.03031089, -0.0135, 0.017), (0.033807404, -0.006988114, 0.019928204)]
        custom uint[] tet_surf_indices = [0, 2, 1, 1, 24, 0, 0, 3, 2, 0, 4, 3, 0, 5, 4, 0, 6, 5, 0, 7, 6, 0, 8, 7, 0, 9, 8, 0, 10, 9, 0, 11, 10, 0, 12, 11, 0, 13, 12, 0, 14, 13, 0, 15, 14, 0, 16, 15, 0, 17, 16, 0, 18, 17, 0, 19, 18, 0, 20, 19, 0, 21, 20, 0, 22, 21, 0, 23, 22, 0, 24, 23, 2, 26, 1, 1, 25, 24, 1, 26, 25, 3, 27, 2, 2, 27, 26, 4, 28, 3, 3, 28, 27, 5, 29, 4, 4, 29, 28, 6, 30, 5, 5, 30, 29, 7, 31, 6, 6, 31, 30, 8, 32, 7, 7, 32, 31, 9, 33, 8, 8, 33, 32, 10, 34, 9, 9, 34, 33, 11, 35, 10, 10, 35, 34, 12, 36, 11, 11, 36, 35, 13, 37, 12, 12, 37, 36, 14, 38, 13, 13, 38, 37, 15, 39, 14, 14, 39, 38, 16, 40, 15, 15, 40, 39, 17, 41, 16, 16, 41, 40, 18, 42, 17, 17, 42, 41, 19, 43, 18, 18, 43, 42, 20, 44, 19, 19, 44, 43, 21, 45, 20, 20, 45, 44, 22, 46, 21, 21, 46, 45, 23, 47, 22, 22, 47, 46, 24, 48, 23, 23, 48, 47, 25, 48, 24, 26, 50, 25, 25, 49, 48, 25, 50, 49, 27, 51, 26, 26, 51, 50, 28, 52, 27, 27, 52, 51, 29, 53, 28, 28, 53, 52, 30, 54, 29, 29, 54, 53, 31, 55, 30, 30, 55, 54, 32, 56, 31, 31, 56, 55, 33, 57, 32, 32, 57, 56, 34, 58, 33, 33, 58, 57, 35, 59, 34, 34, 59, 58, 36, 60, 35, 35, 60, 59, 37, 61, 36, 36, 61, 60, 38, 62, 37, 37, 62, 61, 39, 63, 38, 38, 63, 62, 40, 64, 39, 39, 64, 63, 41, 65, 40, 40, 65, 64, 42, 66, 41, 41, 66, 65, 43, 67, 42, 42, 67, 66, 44, 68, 43, 43, 68, 67, 45, 69, 44, 44, 69, 68, 46, 70, 45, 45, 70, 69, 47, 71, 46, 46, 71, 70, 48, 72, 47, 47, 72, 71, 49, 72, 48, 50, 74, 49, 49, 73, 72, 49, 74, 73, 51, 75, 50, 50, 75, 74, 52, 76, 51, 51, 76, 75, 53, 77, 52, 52, 77, 76, 54, 78, 53, 53, 78, 77, 55, 79, 54, 54, 79, 78, 56, 80, 55, 55, 80, 79, 57, 81, 56, 56, 81, 80, 58, 82, 57, 57, 82, 81, 59, 83, 58, 58, 83, 82, 60, 84, 59, 59, 84, 83, 61, 85, 60, 60, 85, 84, 62, 86, 61, 61, 86, 85, 63, 87, 62, 62, 87, 86, 64, 88, 63, 63, 88, 87, 65, 89, 64, 64, 89, 88, 66, 90, 65, 65, 90, 89, 67, 91, 66, 66, 91, 90, 68, 92, 67, 67, 92, 91, 69, 93, 68, 68, 93, 92, 70, 94, 69, 69, 94, 93, 71, 95, 70, 70, 95, 94, 72, 96, 71, 71, 96, 95, 73, 96, 72, 73, 74, 171, 73, 193, 96, 73, 171, 170, 73, 170, 193, 74, 75, 172, 74, 172, 171, 75, 76, 173, 75, 173, 172, 76, 77, 174, 76, 174, 173, 77, 78, 175, 77, 175, 174, 78, 79, 176, 78, 176, 175, 79, 80, 177, 79, 177, 176, 80, 81, 178, 80, 178, 177, 81, 82, 179, 81, 179, 178, 82, 83, 180, 82, 180, 179, 83, 84, 181, 83, 181, 180, 84, 85, 182, 84, 182, 181, 85, 86, 183, 85, 183, 182, 86, 87, 184, 86, 184, 183, 87, 88, 185, 87, 185, 184, 88, 89, 186, 88, 186, 185, 89, 90, 187, 89, 187, 186, 90, 91, 188, 90, 188, 187, 91, 92, 189, 91, 189, 188, 92, 93, 190, 92, 190, 189, 93, 94, 191, 93, 191, 190, 94, 95, 192, 94, 192, 191, 95, 96, 193, 95, 193, 192, 97, 98, 99, 97, 121, 98, 97, 99, 100, 97, 100, 101, 97, 101, 102, 97, 102, 103, 97, 103, 104, 97, 104, 105, 97, 105, 106, 97, 106, 107, 97, 107, 108, 97, 108, 109, 97, 109, 110, 97, 110, 111, 97, 111, 112, 97, 112, 113, 97, 113, 114, 97, 114, 115, 97, 115, 116, 97, 116, 117, 97, 117, 118, 97, 118, 119, 97, 119, 120, 97, 120, 121, 98, 123, 99, 98, 121, 122, 98, 122, 123, 99, 124, 100, 99, 123, 124, 100, 125, 101, 100, 124, 125, 101, 126, 102, 101, 125, 126, 102, 127, 103, 102, 126, 127, 103, 128, 104, 103, 127, 128, 104, 129, 105, 104, 128, 129, 105, 130, 106, 105, 129, 130, 106, 131, 107, 106, 130, 131, 107, 132, 108, 107, 131, 132, 108, 133, 109, 108, 132, 133, 109, 134, 110, 109, 133, 134, 110, 135, 111, 110, 134, 135, 111, 136, 112, 111, 135, 136, 112, 137, 113, 112, 136, 137, 113, 138, 114, 113, 137, 138, 114, 139, 115, 114, 138, 139, 115, 140, 116, 115, 139, 140, 116, 141, 117, 116, 140, 141, 117, 142, 118, 117, 141, 142, 118, 143, 119, 118, 142, 143, 119, 144, 120, 119, 143, 144, 120, 145, 121, 120, 144, 145, 121, 145, 122, 122, 147, 123, 122, 145, 146, 122, 146, 147, 123, 148, 124, 123, 147, 148, 124, 149, 125, 124, 148, 149, 125, 150, 126, 125, 149, 150, 126, 151, 127, 126, 150, 151, 127, 152, 128, 127, 151, 152, 128, 153, 129, 128, 152, 153, 129, 154, 130, 129, 153, 154, 130, 155, 131, 130, 154, 155, 131, 156, 132, 131, 155, 156, 132, 157, 133, 132, 156, 157, 133, 158, 134, 133, 157, 158, 134, 159, 135, 134, 158, 159, 135, 160, 136, 135, 159, 160, 136, 161, 137, 136, 160, 161, 137, 162, 138, 137, 161, 162, 138, 163, 139, 138, 162, 163, 139, 164, 140, 139, 163, 164, 140, 165, 141, 140, 164, 165, 141, 166, 142, 141, 165, 166, 142, 167, 143, 142, 166, 167, 143, 168, 144, 143, 167, 168, 144, 169, 145, 144, 168, 169, 145, 169, 146, 146, 171, 147, 146, 169, 170, 146, 170, 171, 147, 172, 148, 147, 171, 172, 148, 173, 149, 148, 172, 173, 149, 174, 150, 149, 173, 174, 150, 175, 151, 150, 174, 175, 151, 176, 152, 151, 175, 176, 152, 177, 153, 152, 176, 177, 153, 178, 154, 153, 177, 178, 154, 179, 155, 154, 178, 179, 155, 180, 156, 155, 179, 180, 156, 181, 157, 156, 180, 181, 157, 182, 158, 157, 181, 182, 158, 183, 159, 158, 182, 183, 159, 184, 160, 159, 183, 184, 160, 185, 161, 160, 184, 185, 161, 186, 162, 161, 185, 186, 162, 187, 163, 162, 186, 187, 163, 188, 164, 163, 187, 188, 164, 189, 165, 164, 188, 189, 165, 190, 166, 165, 189, 190, 166, 191, 167, 166, 190, 191, 167, 192, 168, 167, 191, 192, 168, 193, 169, 168, 192, 193, 169, 193, 170]
        custom float3[] tet_surf_points = [(0, 0, 0), (0.00875, 0, 0.001), (0.008451851, 0.0017470286, 0.0009330127), (0.0075777224, 0.003375, 0.00075), (0.0061871842, 0.004772971, 0.0005), (0.004375, 0.0058456715, 0.00025), (0.0022646666, 0.0065199994, 0.0000669873), (5.35783e-19, 0.00675, 3.7493994e-36), (-0.0022646666, 0.0065199994, 0.0000669873), (-0.004375, 0.0058456715, 0.00025), (-0.0061871842, 0.004772971, 0.0005), (-0.0075777224, 0.003375, 0.00075), (-0.008451851, 0.0017470286, 0.0009330127), (-0.00875, 8.266366e-19, 0.001), (-0.008451851, -0.0017470286, 0.0009330127), (-0.0075777224, -0.003375, 0.00075), (-0.0061871842, -0.004772971, 0.0005), (-0.004375, -0.0058456715, 0.00025), (-0.0022646666, -0.0065199994, 0.0000669873), (-1.6073489e-18, -0.00675, 3.3744594e-35), (0.0022646666, -0.0065199994, 0.0000669873), (0.004375, -0.0058456715, 0.00025), (0.0061871842, -0.004772971, 0.0005), (0.0075777224, -0.003375, 0.00075), (0.008451851, -0.0017470286, 0.0009330127), (0.0175, 0, 0.004), (0.016903702, 0.003494057, 0.0037320508), (0.015155445, 0.00675, 0.003), (0.0123743685, 0.009545942, 0.002), (0.00875, 0.011691343, 0.001), (0.004529333, 0.013039999, 0.0002679492), (1.071566e-18, 0.0135, 1.4997597e-35), (-0.004529333, 0.013039999, 0.0002679492), (-0.00875, 0.011691343, 0.001), (-0.0123743685, 0.009545942, 0.002), (-0.015155445, 0.00675, 0.003), (-0.016903702, 0.003494057, 0.0037320508), (-0.0175, 1.6532732e-18, 0.004), (-0.016903702, -0.003494057, 0.0037320508), (-0.015155445, -0.00675, 0.003), (-0.0123743685, -0.009545942, 0.002), (-0.00875, -0.011691343, 0.001), (-0.004529333, -0.013039999, 0.0002679492), (-3.2146979e-18, -0.0135, 1.3497838e-34), (0.004529333, -0.013039999, 0.0002679492), (0.00875, -0.011691343, 0.001), (0.0123743685, -0.009545942, 0.002), (0.015155445, -0.00675, 0.003), (0.016903702, -0.003494057, 0.0037320508), (0.02625, 0, 0.009), (0.025355553, 0.005241086, 0.008397114), (0.022733167, 0.010125, 0.00675), (0.018561553, 0.014318912, 0.0045), (0.013125, 0.017537015, 0.00225), (0.006794, 0.019559998, 0.0006028857), (1.6073489e-18, 0.02025, 3.3744594e-35), (-0.006794, 0.019559998, 0.0006028857), (-0.013125, 0.017537015, 0.00225), (-0.018561553, 0.014318912, 0.0045), (-0.022733167, 0.010125, 0.00675), (-0.025355553, 0.005241086, 0.008397114), (-0.02625, 2.4799098e-18, 0.009), (-0.025355553, -0.005241086, 0.008397114), (-0.022733167, -0.010125, 0.00675), (-0.018561553, -0.014318912, 0.0045), (-0.013125, -0.017537015, 0.00225), (-0.006794, -0.019559998, 0.0006028857), (-4.822047e-18, -0.02025, 3.0370136e-34), (0.006794, -0.019559998, 0.0006028857), (0.013125, -0.017537015, 0.00225), (0.018561553, -0.014318912, 0.0045), (0.022733167, -0.010125, 0.00675), (0.025355553, -0.005241086, 0.008397114), (0.035, 0, 0.016), (0.033807404, 0.006988114, 0.014928203), (0.03031089, 0.0135, 0.012), (0.024748737, 0.019091884, 0.008), (0.0175, 0.023382686, 0.004), (0.009058666, 0.026079997, 0.0010717968), (2.143132e-18, 0.027, 5.999039e-35), (-0.009058666, 0.026079997, 0.0010717968), (-0.0175, 0.023382686, 0.004), (-0.024748737, 0.019091884, 0.008), (-0.03031089, 0.0135, 0.012), (-0.033807404, 0.006988114, 0.014928203), (-0.035, 3.3065463e-18, 0.016), (-0.033807404, -0.006988114, 0.014928203), (-0.03031089, -0.0135, 0.012), (-0.024748737, -0.019091884, 0.008), (-0.0175, -0.023382686, 0.004), (-0.009058666, -0.026079997, 0.0010717968), (-6.4293957e-18, -0.027, 5.399135e-34), (0.009058666, -0.026079997, 0.0010717968), (0.0175, -0.023382686, 0.004), (0.024748737, -0.019091884, 0.008), (0.03031089, -0.0135, 0.012), (0.033807404, -0.006988114, 0.014928203), (0, 0, 0.005), (0.00875, 0, 0.006), (0.008451851, 0.0017470286, 0.005933013), (0.0075777224, 0.003375, 0.00575), (0.0061871842, 0.004772971, 0.0055), (0.004375, 0.0058456715, 0.00525), (0.0022646666, 0.0065199994, 0.005066987), (5.35783e-19, 0.00675, 0.005), (-0.0022646666, 0.0065199994, 0.005066987), (-0.004375, 0.0058456715, 0.00525), (-0.0061871842, 0.004772971, 0.0055), (-0.0075777224, 0.003375, 0.00575), (-0.008451851, 0.0017470286, 0.005933013), (-0.00875, 8.266366e-19, 0.006), (-0.008451851, -0.0017470286, 0.005933013), (-0.0075777224, -0.003375, 0.00575), (-0.0061871842, -0.004772971, 0.0055), (-0.004375, -0.0058456715, 0.00525), (-0.0022646666, -0.0065199994, 0.005066987), (-1.6073489e-18, -0.00675, 0.005), (0.0022646666, -0.0065199994, 0.005066987), (0.004375, -0.0058456715, 0.00525), (0.0061871842, -0.004772971, 0.0055), (0.0075777224, -0.003375, 0.00575), (0.008451851, -0.0017470286, 0.005933013), (0.0175, 0, 0.009), (0.016903702, 0.003494057, 0.008732051), (0.015155445, 0.00675, 0.008), (0.0123743685, 0.009545942, 0.007), (0.00875, 0.011691343, 0.006), (0.004529333, 0.013039999, 0.0052679493), (1.071566e-18, 0.0135, 0.005), (-0.004529333, 0.013039999, 0.0052679493), (-0.00875, 0.011691343, 0.006), (-0.0123743685, 0.009545942, 0.007), (-0.015155445, 0.00675, 0.008), (-0.016903702, 0.003494057, 0.008732051), (-0.0175, 1.6532732e-18, 0.009), (-0.016903702, -0.003494057, 0.008732051), (-0.015155445, -0.00675, 0.008), (-0.0123743685, -0.009545942, 0.007), (-0.00875, -0.011691343, 0.006), (-0.004529333, -0.013039999, 0.0052679493), (-3.2146979e-18, -0.0135, 0.005), (0.004529333, -0.013039999, 0.0052679493), (0.00875, -0.011691343, 0.006), (0.0123743685, -0.009545942, 0.007), (0.015155445, -0.00675, 0.008), (0.016903702, -0.003494057, 0.008732051), (0.02625, 0, 0.014), (0.025355553, 0.005241086, 0.013397114), (0.022733167, 0.010125, 0.01175), (0.018561553, 0.014318912, 0.0095), (0.013125, 0.017537015, 0.00725), (0.006794, 0.019559998, 0.0056028855), (1.6073489e-18, 0.02025, 0.005), (-0.006794, 0.019559998, 0.0056028855), (-0.013125, 0.017537015, 0.00725), (-0.018561553, 0.014318912, 0.0095), (-0.022733167, 0.010125, 0.01175), (-0.025355553, 0.005241086, 0.013397114), (-0.02625, 2.4799098e-18, 0.014), (-0.025355553, -0.005241086, 0.013397114), (-0.022733167, -0.010125, 0.01175), (-0.018561553, -0.014318912, 0.0095), (-0.013125, -0.017537015, 0.00725), (-0.006794, -0.019559998, 0.0056028855), (-4.822047e-18, -0.02025, 0.005), (0.006794, -0.019559998, 0.0056028855), (0.013125, -0.017537015, 0.00725), (0.018561553, -0.014318912, 0.0095), (0.022733167, -0.010125, 0.01175), (0.025355553, -0.005241086, 0.013397114), (0.035, 0, 0.021), (0.033807404, 0.006988114, 0.019928204), (0.03031089, 0.0135, 0.017), (0.024748737, 0.019091884, 0.013), (0.0175, 0.023382686, 0.009), (0.009058666, 0.026079997, 0.0060717966), (2.143132e-18, 0.027, 0.005), (-0.009058666, 0.026079997, 0.0060717966), (-0.0175, 0.023382686, 0.009), (-0.024748737, 0.019091884, 0.013), (-0.03031089, 0.0135, 0.017), (-0.033807404, 0.006988114, 0.019928204), (-0.035, 3.3065463e-18, 0.021), (-0.033807404, -0.006988114, 0.019928204), (-0.03031089, -0.0135, 0.017), (-0.024748737, -0.019091884, 0.013), (-0.0175, -0.023382686, 0.009), (-0.009058666, -0.026079997, 0.0060717966), (-6.4293957e-18, -0.027, 0.005), (0.009058666, -0.026079997, 0.0060717966), (0.0175, -0.023382686, 0.009), (0.024748737, -0.019091884, 0.013), (0.03031089, -0.0135, 0.017), (0.033807404, -0.006988114, 0.019928204)]
    }
}
