#usda 1.0
(
    defaultPrim = "chip_serving_plate_visual"
    metersPerUnit = 1
    upAxis = "Z"
)

def Xform "chip_serving_plate_visual"
{
    def Material "cream_glaze"
    {
        token outputs:surface.connect = </chip_serving_plate_visual/cream_glaze/surface.outputs:surface>

        def Shader "surface"
        {
            uniform token info:id = "UsdPreviewSurface"
            color3f inputs:diffuseColor = (0.91, 0.87, 0.75)
            float inputs:roughness = 0.28
            token outputs:surface
        }
    }

    def Material "blue_rim"
    {
        token outputs:surface.connect = </chip_serving_plate_visual/blue_rim/surface.outputs:surface>

        def Shader "surface"
        {
            uniform token info:id = "UsdPreviewSurface"
            color3f inputs:diffuseColor = (0.22, 0.38, 0.4)
            float inputs:roughness = 0.3
            token outputs:surface
        }
    }

    def Material "foot_material"
    {
        token outputs:surface.connect = </chip_serving_plate_visual/foot_material/surface.outputs:surface>

        def Shader "surface"
        {
            uniform token info:id = "UsdPreviewSurface"
            color3f inputs:diffuseColor = (0.7, 0.65, 0.53)
            float inputs:roughness = 0.6
            token outputs:surface
        }
    }

    def Mesh "plate" (
        prepend apiSchemas = ["MaterialBindingAPI"]
    )
    {
        uniform bool doubleSided = 1
        int[] faceVertexCounts = [3, 3, 3, 3, 3, 3, 3, 3, 3, 3, 3, 3, 3, 3, 3, 3, 3, 3, 3, 3, 3, 3, 3, 3, 3, 3, 3, 3, 3, 3, 3, 3, 3, 3, 3, 3, 3, 3, 3, 3, 3, 3, 3, 3, 3, 3, 3, 3, 3, 3, 3, 3, 3, 3, 3, 3, 3, 3, 3, 3, 3, 3, 3, 3, 3, 3, 3, 3, 3, 3, 3, 3, 3, 3, 3, 3, 3, 3, 3, 3, 3, 3, 3, 3, 3, 3, 3, 3, 3, 3, 3, 3, 3, 3, 3, 3, 3, 3, 3, 3, 3, 3, 3, 3, 3, 3, 3, 3, 3, 3, 3, 3, 3, 3, 3, 3, 3, 3, 3, 3, 3, 3, 3, 3, 3, 3, 3, 3, 3, 3, 3, 3, 3, 3, 3, 3, 3, 3, 3, 3, 3, 3, 3, 3, 3, 3, 3, 3, 3, 3, 3, 3, 3, 3, 3, 3, 3, 3, 3, 3, 3, 3, 3, 3, 3, 3, 3, 3, 3, 3, 3, 3, 3, 3, 3, 3, 3, 3, 3, 3, 3, 3, 3, 3, 3, 3, 3, 3, 3, 3, 3, 3, 3, 3, 3, 3, 3, 3, 3, 3, 3, 3, 3, 3, 3, 3, 3, 3, 3, 3, 3, 3, 3, 3, 3, 3, 3, 3, 3, 3, 3, 3, 3, 3, 3, 3, 3, 3, 3, 3, 3, 3, 3, 3, 3, 3, 3, 3, 3, 3, 3, 3, 3, 3, 3, 3, 3, 3, 3, 3, 3, 3, 3, 3, 3, 3, 3, 3, 3, 3, 3, 3, 3, 3, 3, 3, 3, 3, 3, 3, 3, 3, 3, 3, 3, 3, 3, 3, 3, 3, 3, 3, 3, 3, 3, 3, 3, 3, 3, 3, 3, 3, 3, 3, 3, 3, 3, 3, 3, 3, 3, 3, 3, 3, 3, 3, 3, 3, 3, 3, 3, 3, 3, 3, 3, 3, 3, 3, 3, 3, 3, 3, 3, 3, 3, 3, 3, 3, 3, 3, 3, 3, 3, 3, 3, 3, 3, 3, 3, 3, 3, 3, 3, 3, 3, 3, 3, 3, 3, 3, 3, 3, 3, 3, 3, 3, 3, 3, 3, 3, 3, 3, 3, 3, 3, 3, 3, 3, 3, 3, 3, 3, 3, 3, 3, 3, 3, 3, 3, 3, 3, 3, 3, 3, 3, 3, 3, 3, 3, 3, 3, 3, 3, 3, 3, 3, 3, 3, 3, 3, 3, 3, 3, 3, 3, 3, 3, 3, 3, 3, 3, 3, 3, 3, 3, 3, 3, 3, 3, 3, 3, 3, 3, 3, 3, 3, 3, 3, 3, 3, 3, 3, 3, 3, 3, 3, 3, 3, 3, 3, 3, 3, 3, 3, 3, 3, 3, 3, 3, 3, 3, 3, 3, 3, 3, 3, 3, 3, 3, 3, 3, 3, 3, 3, 3, 3, 3, 3, 3, 3, 3, 3, 3, 3, 3, 3, 3, 3, 3, 3, 3, 3, 3, 3, 3, 3, 3, 3, 3, 3, 3, 3, 3, 3, 3, 3, 3, 3, 3, 3, 3, 3, 3, 3, 3, 3, 3, 3, 3, 3, 3, 3, 3, 3, 3, 3, 3, 3, 3, 3, 3, 3, 3, 3, 3, 3, 3, 3, 3, 3, 3, 3, 3, 3, 3, 3, 3, 3, 3, 3, 3, 3, 3, 3, 3, 3, 3, 3, 3, 3, 3, 3, 3, 3, 3, 3, 3, 3, 3, 3, 3, 3, 3, 3, 3, 3, 3, 3, 3, 3, 3, 3, 3, 3, 3, 3, 3, 3, 3, 3, 3, 3, 3, 3, 3, 3, 3, 3, 3, 3, 3, 3, 3, 3, 3, 3, 3, 3, 3, 3, 3, 3, 3, 3, 3, 3, 3, 3, 3, 3, 3, 3, 3, 3, 3, 3, 3, 3, 3, 3, 3, 3, 3, 3, 3, 3, 3, 3, 3, 3, 3, 3, 3, 3, 3, 3, 3, 3, 3, 3, 3, 3, 3, 3, 3, 3, 3, 3, 3, 3, 3, 3, 3, 3, 3, 3, 3, 3, 3, 3, 3, 3, 3, 3, 3, 3, 3, 3, 3, 3, 3, 3, 3, 3, 3, 3, 3, 3, 3, 3, 3, 3, 3, 3, 3, 3, 3, 3, 3, 3, 3, 3, 3, 3, 3, 3, 3, 3, 3, 3, 3, 3, 3, 3, 3, 3, 3, 3, 3, 3, 3, 3, 3, 3, 3, 3, 3, 3, 3, 3, 3, 3, 3, 3, 3, 3, 3, 3, 3, 3, 3, 3, 3, 3, 3, 3, 3, 3, 3, 3, 3, 3, 3, 3, 3, 3, 3, 3, 3, 3, 3, 3, 3, 3, 3, 3, 3, 3, 3, 3, 3, 3, 3, 3, 3, 3, 3, 3, 3, 3, 3, 3, 3, 3, 3, 3, 3, 3, 3, 3, 3, 3, 3, 3, 3, 3, 3, 3, 3, 3, 3, 3, 3, 3, 3, 3, 3, 3, 3, 3, 3, 3, 3, 3, 3, 3, 3, 3, 3, 3, 3, 3, 3, 3, 3, 3, 3, 3, 3, 3, 3, 3, 3, 3, 3, 3, 3, 3, 3, 3, 3, 3, 3, 3, 3, 3, 3, 3, 3, 3, 3, 3, 3, 3, 3, 3, 3, 3, 3, 3, 3, 3, 3, 3, 3, 3, 3, 3, 3, 3, 3, 3, 3, 3, 3, 3, 3, 3, 3, 3, 3, 3, 3, 3, 3, 3, 3, 3, 3, 3, 3, 3, 3, 3, 3, 3, 3, 3, 3, 3, 3, 3, 3, 3, 3, 3, 3, 3, 3, 3, 3, 3, 3, 3, 3, 3, 3, 3, 3, 3, 3, 3, 3, 3, 3, 3, 3, 3, 3, 3, 3, 3, 3, 3, 3, 3, 3, 3, 3, 3, 3, 3, 3, 3, 3, 3, 3, 3, 3, 3, 3, 3, 3, 3, 3, 3, 3, 3, 3, 3, 3, 3, 3, 3, 3, 3, 3, 3, 3, 3, 3, 3, 3, 3, 3, 3, 3, 3, 3, 3, 3, 3, 3, 3, 3, 3, 3, 3, 3, 3, 3, 3, 3, 3, 3, 3, 3, 3, 3, 3, 3, 3, 3, 3, 3, 3, 3, 3, 3, 3, 3, 3, 3, 3, 3, 3, 3, 3, 3, 3, 3, 3, 3, 3, 3, 3, 3, 3, 3, 3, 3, 3, 3, 3, 3, 3, 3, 3, 3, 3, 3, 3, 3, 3, 3, 3, 3, 3, 3, 3, 3, 3, 3, 3, 3, 3, 3, 3, 3, 3, 3, 3, 3, 3, 3, 3, 3, 3, 3, 3, 3, 3, 3, 3, 3, 3, 3, 3, 3, 3, 3, 3, 3, 3, 3, 3, 3, 3, 3, 3, 3, 3, 3, 3, 3, 3, 3, 3, 3, 3, 3, 3, 3, 3, 3, 3, 3, 3, 3, 3, 3, 3, 3, 3, 3, 3, 3, 3, 3, 3, 3, 3, 3, 3, 3, 3, 3, 3, 3, 3, 3, 3, 3, 3, 3, 3, 3, 3, 3, 3, 3, 3, 3, 3, 3, 3, 3, 3, 3, 3, 3, 3, 3, 3, 3, 3, 3, 3, 3, 3, 3, 3, 3, 3, 3, 3, 3, 3, 3, 3, 3, 3, 3, 3, 3, 3, 3, 3, 3, 3, 3, 3, 3, 3, 3, 3, 3, 3, 3, 3, 3, 3, 3, 3, 3, 3, 3, 3, 3, 3, 3, 3, 3, 3, 3, 3, 3, 3, 3, 3, 3, 3, 3, 3, 3, 3, 3, 3, 3, 3, 3, 3, 3, 3, 3, 3, 3, 3, 3, 3, 3, 3, 3, 3, 3, 3, 3, 3, 3, 3, 3, 3, 3, 3, 3, 3, 3, 3, 3, 3, 3, 3, 3, 3, 3, 3, 3, 3, 3, 3, 3, 3, 3, 3, 3, 3, 3, 3, 3, 3, 3, 3, 3, 3, 3, 3, 3, 3, 3, 3, 3, 3, 3, 3, 3, 3, 3, 3, 3, 3, 3, 3, 3, 3, 3, 3, 3, 3, 3, 3, 3, 3, 3, 3, 3, 3, 3, 3, 3, 3, 3, 3, 3, 3, 3, 3, 3, 3, 3, 3, 3, 3, 3, 3, 3, 3, 3, 3, 3, 3, 3, 3, 3, 3, 3, 3, 3, 3, 3, 3, 3, 3, 3, 3, 3, 3, 3, 3, 3, 3, 3, 3, 3, 3, 3, 3, 3, 3, 3, 3, 3, 3, 3, 3, 3, 3, 3, 3, 3, 3, 3, 3, 3, 3, 3, 3, 3, 3, 3, 3, 3, 3, 3, 3, 3, 3, 3, 3, 3, 3, 3, 3, 3, 3, 3, 3, 3, 3, 3, 3, 3, 3, 3, 3, 3, 3, 3, 3, 3, 3, 3, 3, 3, 3, 3, 3, 3, 3, 3, 3, 3, 3, 3, 3, 3, 3, 3, 3, 3, 3, 3, 3, 3, 3, 3, 3, 3, 3, 3, 3, 3, 3, 3, 3, 3, 3, 3, 3, 3, 3, 3, 3, 3, 3, 3, 3, 3, 3, 3, 3, 3, 3, 3, 3, 3, 3, 3, 3, 3, 3, 3, 3, 3, 3, 3, 3, 3, 3, 3, 3, 3, 3, 3, 3, 3, 3, 3, 3, 3, 3, 3, 3, 3, 3, 3, 3, 3, 3, 3, 3, 3, 3, 3, 3, 3, 3, 3, 3, 3, 3, 3, 3, 3, 3, 3, 3, 3, 3, 3, 3, 3, 3, 3, 3, 3, 3, 3, 3, 3, 3, 3, 3, 3, 3, 3, 3, 3, 3, 3, 3, 3, 3, 3, 3, 3, 3, 3, 3, 3, 3, 3, 3, 3, 3, 3, 3, 3, 3, 3, 3, 3, 3, 3, 3, 3, 3, 3, 3, 3, 3, 3, 3, 3, 3, 3, 3, 3, 3, 3, 3, 3, 3, 3, 3, 3, 3, 3, 3, 3, 3, 3, 3, 3, 3, 3, 3, 3, 3, 3, 3, 3, 3, 3, 3, 3, 3, 3, 3, 3, 3]
        int[] faceVertexIndices = [0, 1, 81, 0, 81, 80, 1, 2, 82, 1, 82, 81, 2, 3, 83, 2, 83, 82, 3, 4, 84, 3, 84, 83, 4, 5, 85, 4, 85, 84, 5, 6, 86, 5, 86, 85, 6, 7, 87, 6, 87, 86, 7, 8, 88, 7, 88, 87, 8, 9, 89, 8, 89, 88, 9, 10, 90, 9, 90, 89, 10, 11, 91, 10, 91, 90, 11, 12, 92, 11, 92, 91, 12, 13, 93, 12, 93, 92, 13, 14, 94, 13, 94, 93, 14, 15, 95, 14, 95, 94, 15, 16, 96, 15, 96, 95, 16, 17, 97, 16, 97, 96, 17, 18, 98, 17, 98, 97, 18, 19, 99, 18, 99, 98, 19, 20, 100, 19, 100, 99, 20, 21, 101, 20, 101, 100, 21, 22, 102, 21, 102, 101, 22, 23, 103, 22, 103, 102, 23, 24, 104, 23, 104, 103, 24, 25, 105, 24, 105, 104, 25, 26, 106, 25, 106, 105, 26, 27, 107, 26, 107, 106, 27, 28, 108, 27, 108, 107, 28, 29, 109, 28, 109, 108, 29, 30, 110, 29, 110, 109, 30, 31, 111, 30, 111, 110, 31, 32, 112, 31, 112, 111, 32, 33, 113, 32, 113, 112, 33, 34, 114, 33, 114, 113, 34, 35, 115, 34, 115, 114, 35, 36, 116, 35, 116, 115, 36, 37, 117, 36, 117, 116, 37, 38, 118, 37, 118, 117, 38, 39, 119, 38, 119, 118, 39, 40, 120, 39, 120, 119, 40, 41, 121, 40, 121, 120, 41, 42, 122, 41, 122, 121, 42, 43, 123, 42, 123, 122, 43, 44, 124, 43, 124, 123, 44, 45, 125, 44, 125, 124, 45, 46, 126, 45, 126, 125, 46, 47, 127, 46, 127, 126, 47, 48, 128, 47, 128, 127, 48, 49, 129, 48, 129, 128, 49, 50, 130, 49, 130, 129, 50, 51, 131, 50, 131, 130, 51, 52, 132, 51, 132, 131, 52, 53, 133, 52, 133, 132, 53, 54, 134, 53, 134, 133, 54, 55, 135, 54, 135, 134, 55, 56, 136, 55, 136, 135, 56, 57, 137, 56, 137, 136, 57, 58, 138, 57, 138, 137, 58, 59, 139, 58, 139, 138, 59, 60, 140, 59, 140, 139, 60, 61, 141, 60, 141, 140, 61, 62, 142, 61, 142, 141, 62, 63, 143, 62, 143, 142, 63, 64, 144, 63, 144, 143, 64, 65, 145, 64, 145, 144, 65, 66, 146, 65, 146, 145, 66, 67, 147, 66, 147, 146, 67, 68, 148, 67, 148, 147, 68, 69, 149, 68, 149, 148, 69, 70, 150, 69, 150, 149, 70, 71, 151, 70, 151, 150, 71, 72, 152, 71, 152, 151, 72, 73, 153, 72, 153, 152, 73, 74, 154, 73, 154, 153, 74, 75, 155, 74, 155, 154, 75, 76, 156, 75, 156, 155, 76, 77, 157, 76, 157, 156, 77, 78, 158, 77, 158, 157, 78, 79, 159, 78, 159, 158, 79, 0, 80, 79, 80, 159, 80, 81, 161, 80, 161, 160, 81, 82, 162, 81, 162, 161, 82, 83, 163, 82, 163, 162, 83, 84, 164, 83, 164, 163, 84, 85, 165, 84, 165, 164, 85, 86, 166, 85, 166, 165, 86, 87, 167, 86, 167, 166, 87, 88, 168, 87, 168, 167, 88, 89, 169, 88, 169, 168, 89, 90, 170, 89, 170, 169, 90, 91, 171, 90, 171, 170, 91, 92, 172, 91, 172, 171, 92, 93, 173, 92, 173, 172, 93, 94, 174, 93, 174, 173, 94, 95, 175, 94, 175, 174, 95, 96, 176, 95, 176, 175, 96, 97, 177, 96, 177, 176, 97, 98, 178, 97, 178, 177, 98, 99, 179, 98, 179, 178, 99, 100, 180, 99, 180, 179, 100, 101, 181, 100, 181, 180, 101, 102, 182, 101, 182, 181, 102, 103, 183, 102, 183, 182, 103, 104, 184, 103, 184, 183, 104, 105, 185, 104, 185, 184, 105, 106, 186, 105, 186, 185, 106, 107, 187, 106, 187, 186, 107, 108, 188, 107, 188, 187, 108, 109, 189, 108, 189, 188, 109, 110, 190, 109, 190, 189, 110, 111, 191, 110, 191, 190, 111, 112, 192, 111, 192, 191, 112, 113, 193, 112, 193, 192, 113, 114, 194, 113, 194, 193, 114, 115, 195, 114, 195, 194, 115, 116, 196, 115, 196, 195, 116, 117, 197, 116, 197, 196, 117, 118, 198, 117, 198, 197, 118, 119, 199, 118, 199, 198, 119, 120, 200, 119, 200, 199, 120, 121, 201, 120, 201, 200, 121, 122, 202, 121, 202, 201, 122, 123, 203, 122, 203, 202, 123, 124, 204, 123, 204, 203, 124, 125, 205, 124, 205, 204, 125, 126, 206, 125, 206, 205, 126, 127, 207, 126, 207, 206, 127, 128, 208, 127, 208, 207, 128, 129, 209, 128, 209, 208, 129, 130, 210, 129, 210, 209, 130, 131, 211, 130, 211, 210, 131, 132, 212, 131, 212, 211, 132, 133, 213, 132, 213, 212, 133, 134, 214, 133, 214, 213, 134, 135, 215, 134, 215, 214, 135, 136, 216, 135, 216, 215, 136, 137, 217, 136, 217, 216, 137, 138, 218, 137, 218, 217, 138, 139, 219, 138, 219, 218, 139, 140, 220, 139, 220, 219, 140, 141, 221, 140, 221, 220, 141, 142, 222, 141, 222, 221, 142, 143, 223, 142, 223, 222, 143, 144, 224, 143, 224, 223, 144, 145, 225, 144, 225, 224, 145, 146, 226, 145, 226, 225, 146, 147, 227, 146, 227, 226, 147, 148, 228, 147, 228, 227, 148, 149, 229, 148, 229, 228, 149, 150, 230, 149, 230, 229, 150, 151, 231, 150, 231, 230, 151, 152, 232, 151, 232, 231, 152, 153, 233, 152, 233, 232, 153, 154, 234, 153, 234, 233, 154, 155, 235, 154, 235, 234, 155, 156, 236, 155, 236, 235, 156, 157, 237, 156, 237, 236, 157, 158, 238, 157, 238, 237, 158, 159, 239, 158, 239, 238, 159, 80, 160, 159, 160, 239, 160, 161, 241, 160, 241, 240, 161, 162, 242, 161, 242, 241, 162, 163, 243, 162, 243, 242, 163, 164, 244, 163, 244, 243, 164, 165, 245, 164, 245, 244, 165, 166, 246, 165, 246, 245, 166, 167, 247, 166, 247, 246, 167, 168, 248, 167, 248, 247, 168, 169, 249, 168, 249, 248, 169, 170, 250, 169, 250, 249, 170, 171, 251, 170, 251, 250, 171, 172, 252, 171, 252, 251, 172, 173, 253, 172, 253, 252, 173, 174, 254, 173, 254, 253, 174, 175, 255, 174, 255, 254, 175, 176, 256, 175, 256, 255, 176, 177, 257, 176, 257, 256, 177, 178, 258, 177, 258, 257, 178, 179, 259, 178, 259, 258, 179, 180, 260, 179, 260, 259, 180, 181, 261, 180, 261, 260, 181, 182, 262, 181, 262, 261, 182, 183, 263, 182, 263, 262, 183, 184, 264, 183, 264, 263, 184, 185, 265, 184, 265, 264, 185, 186, 266, 185, 266, 265, 186, 187, 267, 186, 267, 266, 187, 188, 268, 187, 268, 267, 188, 189, 269, 188, 269, 268, 189, 190, 270, 189, 270, 269, 190, 191, 271, 190, 271, 270, 191, 192, 272, 191, 272, 271, 192, 193, 273, 192, 273, 272, 193, 194, 274, 193, 274, 273, 194, 195, 275, 194, 275, 274, 195, 196, 276, 195, 276, 275, 196, 197, 277, 196, 277, 276, 197, 198, 278, 197, 278, 277, 198, 199, 279, 198, 279, 278, 199, 200, 280, 199, 280, 279, 200, 201, 281, 200, 281, 280, 201, 202, 282, 201, 282, 281, 202, 203, 283, 202, 283, 282, 203, 204, 284, 203, 284, 283, 204, 205, 285, 204, 285, 284, 205, 206, 286, 205, 286, 285, 206, 207, 287, 206, 287, 286, 207, 208, 288, 207, 288, 287, 208, 209, 289, 208, 289, 288, 209, 210, 290, 209, 290, 289, 210, 211, 291, 210, 291, 290, 211, 212, 292, 211, 292, 291, 212, 213, 293, 212, 293, 292, 213, 214, 294, 213, 294, 293, 214, 215, 295, 214, 295, 294, 215, 216, 296, 215, 296, 295, 216, 217, 297, 216, 297, 296, 217, 218, 298, 217, 298, 297, 218, 219, 299, 218, 299, 298, 219, 220, 300, 219, 300, 299, 220, 221, 301, 220, 301, 300, 221, 222, 302, 221, 302, 301, 222, 223, 303, 222, 303, 302, 223, 224, 304, 223, 304, 303, 224, 225, 305, 224, 305, 304, 225, 226, 306, 225, 306, 305, 226, 227, 307, 226, 307, 306, 227, 228, 308, 227, 308, 307, 228, 229, 309, 228, 309, 308, 229, 230, 310, 229, 310, 309, 230, 231, 311, 230, 311, 310, 231, 232, 312, 231, 312, 311, 232, 233, 313, 232, 313, 312, 233, 234, 314, 233, 314, 313, 234, 235, 315, 234, 315, 314, 235, 236, 316, 235, 316, 315, 236, 237, 317, 236, 317, 316, 237, 238, 318, 237, 318, 317, 238, 239, 319, 238, 319, 318, 239, 160, 240, 239, 240, 319, 240, 241, 321, 240, 321, 320, 241, 242, 322, 241, 322, 321, 242, 243, 323, 242, 323, 322, 243, 244, 324, 243, 324, 323, 244, 245, 325, 244, 325, 324, 245, 246, 326, 245, 326, 325, 246, 247, 327, 246, 327, 326, 247, 248, 328, 247, 328, 327, 248, 249, 329, 248, 329, 328, 249, 250, 330, 249, 330, 329, 250, 251, 331, 250, 331, 330, 251, 252, 332, 251, 332, 331, 252, 253, 333, 252, 333, 332, 253, 254, 334, 253, 334, 333, 254, 255, 335, 254, 335, 334, 255, 256, 336, 255, 336, 335, 256, 257, 337, 256, 337, 336, 257, 258, 338, 257, 338, 337, 258, 259, 339, 258, 339, 338, 259, 260, 340, 259, 340, 339, 260, 261, 341, 260, 341, 340, 261, 262, 342, 261, 342, 341, 262, 263, 343, 262, 343, 342, 263, 264, 344, 263, 344, 343, 264, 265, 345, 264, 345, 344, 265, 266, 346, 265, 346, 345, 266, 267, 347, 266, 347, 346, 267, 268, 348, 267, 348, 347, 268, 269, 349, 268, 349, 348, 269, 270, 350, 269, 350, 349, 270, 271, 351, 270, 351, 350, 271, 272, 352, 271, 352, 351, 272, 273, 353, 272, 353, 352, 273, 274, 354, 273, 354, 353, 274, 275, 355, 274, 355, 354, 275, 276, 356, 275, 356, 355, 276, 277, 357, 276, 357, 356, 277, 278, 358, 277, 358, 357, 278, 279, 359, 278, 359, 358, 279, 280, 360, 279, 360, 359, 280, 281, 361, 280, 361, 360, 281, 282, 362, 281, 362, 361, 282, 283, 363, 282, 363, 362, 283, 284, 364, 283, 364, 363, 284, 285, 365, 284, 365, 364, 285, 286, 366, 285, 366, 365, 286, 287, 367, 286, 367, 366, 287, 288, 368, 287, 368, 367, 288, 289, 369, 288, 369, 368, 289, 290, 370, 289, 370, 369, 290, 291, 371, 290, 371, 370, 291, 292, 372, 291, 372, 371, 292, 293, 373, 292, 373, 372, 293, 294, 374, 293, 374, 373, 294, 295, 375, 294, 375, 374, 295, 296, 376, 295, 376, 375, 296, 297, 377, 296, 377, 376, 297, 298, 378, 297, 378, 377, 298, 299, 379, 298, 379, 378, 299, 300, 380, 299, 380, 379, 300, 301, 381, 300, 381, 380, 301, 302, 382, 301, 382, 381, 302, 303, 383, 302, 383, 382, 303, 304, 384, 303, 384, 383, 304, 305, 385, 304, 385, 384, 305, 306, 386, 305, 386, 385, 306, 307, 387, 306, 387, 386, 307, 308, 388, 307, 388, 387, 308, 309, 389, 308, 389, 388, 309, 310, 390, 309, 390, 389, 310, 311, 391, 310, 391, 390, 311, 312, 392, 311, 392, 391, 312, 313, 393, 312, 393, 392, 313, 314, 394, 313, 394, 393, 314, 315, 395, 314, 395, 394, 315, 316, 396, 315, 396, 395, 316, 317, 397, 316, 397, 396, 317, 318, 398, 317, 398, 397, 318, 319, 399, 318, 399, 398, 319, 240, 320, 319, 320, 399, 320, 321, 401, 320, 401, 400, 321, 322, 402, 321, 402, 401, 322, 323, 403, 322, 403, 402, 323, 324, 404, 323, 404, 403, 324, 325, 405, 324, 405, 404, 325, 326, 406, 325, 406, 405, 326, 327, 407, 326, 407, 406, 327, 328, 408, 327, 408, 407, 328, 329, 409, 328, 409, 408, 329, 330, 410, 329, 410, 409, 330, 331, 411, 330, 411, 410, 331, 332, 412, 331, 412, 411, 332, 333, 413, 332, 413, 412, 333, 334, 414, 333, 414, 413, 334, 335, 415, 334, 415, 414, 335, 336, 416, 335, 416, 415, 336, 337, 417, 336, 417, 416, 337, 338, 418, 337, 418, 417, 338, 339, 419, 338, 419, 418, 339, 340, 420, 339, 420, 419, 340, 341, 421, 340, 421, 420, 341, 342, 422, 341, 422, 421, 342, 343, 423, 342, 423, 422, 343, 344, 424, 343, 424, 423, 344, 345, 425, 344, 425, 424, 345, 346, 426, 345, 426, 425, 346, 347, 427, 346, 427, 426, 347, 348, 428, 347, 428, 427, 348, 349, 429, 348, 429, 428, 349, 350, 430, 349, 430, 429, 350, 351, 431, 350, 431, 430, 351, 352, 432, 351, 432, 431, 352, 353, 433, 352, 433, 432, 353, 354, 434, 353, 434, 433, 354, 355, 435, 354, 435, 434, 355, 356, 436, 355, 436, 435, 356, 357, 437, 356, 437, 436, 357, 358, 438, 357, 438, 437, 358, 359, 439, 358, 439, 438, 359, 360, 440, 359, 440, 439, 360, 361, 441, 360, 441, 440, 361, 362, 442, 361, 442, 441, 362, 363, 443, 362, 443, 442, 363, 364, 444, 363, 444, 443, 364, 365, 445, 364, 445, 444, 365, 366, 446, 365, 446, 445, 366, 367, 447, 366, 447, 446, 367, 368, 448, 367, 448, 447, 368, 369, 449, 368, 449, 448, 369, 370, 450, 369, 450, 449, 370, 371, 451, 370, 451, 450, 371, 372, 452, 371, 452, 451, 372, 373, 453, 372, 453, 452, 373, 374, 454, 373, 454, 453, 374, 375, 455, 374, 455, 454, 375, 376, 456, 375, 456, 455, 376, 377, 457, 376, 457, 456, 377, 378, 458, 377, 458, 457, 378, 379, 459, 378, 459, 458, 379, 380, 460, 379, 460, 459, 380, 381, 461, 380, 461, 460, 381, 382, 462, 381, 462, 461, 382, 383, 463, 382, 463, 462, 383, 384, 464, 383, 464, 463, 384, 385, 465, 384, 465, 464, 385, 386, 466, 385, 466, 465, 386, 387, 467, 386, 467, 466, 387, 388, 468, 387, 468, 467, 388, 389, 469, 388, 469, 468, 389, 390, 470, 389, 470, 469, 390, 391, 471, 390, 471, 470, 391, 392, 472, 391, 472, 471, 392, 393, 473, 392, 473, 472, 393, 394, 474, 393, 474, 473, 394, 395, 475, 394, 475, 474, 395, 396, 476, 395, 476, 475, 396, 397, 477, 396, 477, 476, 397, 398, 478, 397, 478, 477, 398, 399, 479, 398, 479, 478, 399, 320, 400, 399, 400, 479, 400, 401, 481, 400, 481, 480, 401, 402, 482, 401, 482, 481, 402, 403, 483, 402, 483, 482, 403, 404, 484, 403, 484, 483, 404, 405, 485, 404, 485, 484, 405, 406, 486, 405, 486, 485, 406, 407, 487, 406, 487, 486, 407, 408, 488, 407, 488, 487, 408, 409, 489, 408, 489, 488, 409, 410, 490, 409, 490, 489, 410, 411, 491, 410, 491, 490, 411, 412, 492, 411, 492, 491, 412, 413, 493, 412, 493, 492, 413, 414, 494, 413, 494, 493, 414, 415, 495, 414, 495, 494, 415, 416, 496, 415, 496, 495, 416, 417, 497, 416, 497, 496, 417, 418, 498, 417, 498, 497, 418, 419, 499, 418, 499, 498, 419, 420, 500, 419, 500, 499, 420, 421, 501, 420, 501, 500, 421, 422, 502, 421, 502, 501, 422, 423, 503, 422, 503, 502, 423, 424, 504, 423, 504, 503, 424, 425, 505, 424, 505, 504, 425, 426, 506, 425, 506, 505, 426, 427, 507, 426, 507, 506, 427, 428, 508, 427, 508, 507, 428, 429, 509, 428, 509, 508, 429, 430, 510, 429, 510, 509, 430, 431, 511, 430, 511, 510, 431, 432, 512, 431, 512, 511, 432, 433, 513, 432, 513, 512, 433, 434, 514, 433, 514, 513, 434, 435, 515, 434, 515, 514, 435, 436, 516, 435, 516, 515, 436, 437, 517, 436, 517, 516, 437, 438, 518, 437, 518, 517, 438, 439, 519, 438, 519, 518, 439, 440, 520, 439, 520, 519, 440, 441, 521, 440, 521, 520, 441, 442, 522, 441, 522, 521, 442, 443, 523, 442, 523, 522, 443, 444, 524, 443, 524, 523, 444, 445, 525, 444, 525, 524, 445, 446, 526, 445, 526, 525, 446, 447, 527, 446, 527, 526, 447, 448, 528, 447, 528, 527, 448, 449, 529, 448, 529, 528, 449, 450, 530, 449, 530, 529, 450, 451, 531, 450, 531, 530, 451, 452, 532, 451, 532, 531, 452, 453, 533, 452, 533, 532, 453, 454, 534, 453, 534, 533, 454, 455, 535, 454, 535, 534, 455, 456, 536, 455, 536, 535, 456, 457, 537, 456, 537, 536, 457, 458, 538, 457, 538, 537, 458, 459, 539, 458, 539, 538, 459, 460, 540, 459, 540, 539, 460, 461, 541, 460, 541, 540, 461, 462, 542, 461, 542, 541, 462, 463, 543, 462, 543, 542, 463, 464, 544, 463, 544, 543, 464, 465, 545, 464, 545, 544, 465, 466, 546, 465, 546, 545, 466, 467, 547, 466, 547, 546, 467, 468, 548, 467, 548, 547, 468, 469, 549, 468, 549, 548, 469, 470, 550, 469, 550, 549, 470, 471, 551, 470, 551, 550, 471, 472, 552, 471, 552, 551, 472, 473, 553, 472, 553, 552, 473, 474, 554, 473, 554, 553, 474, 475, 555, 474, 555, 554, 475, 476, 556, 475, 556, 555, 476, 477, 557, 476, 557, 556, 477, 478, 558, 477, 558, 557, 478, 479, 559, 478, 559, 558, 479, 400, 480, 479, 480, 559, 480, 481, 561, 480, 561, 560, 481, 482, 562, 481, 562, 561, 482, 483, 563, 482, 563, 562, 483, 484, 564, 483, 564, 563, 484, 485, 565, 484, 565, 564, 485, 486, 566, 485, 566, 565, 486, 487, 567, 486, 567, 566, 487, 488, 568, 487, 568, 567, 488, 489, 569, 488, 569, 568, 489, 490, 570, 489, 570, 569, 490, 491, 571, 490, 571, 570, 491, 492, 572, 491, 572, 571, 492, 493, 573, 492, 573, 572, 493, 494, 574, 493, 574, 573, 494, 495, 575, 494, 575, 574, 495, 496, 576, 495, 576, 575, 496, 497, 577, 496, 577, 576, 497, 498, 578, 497, 578, 577, 498, 499, 579, 498, 579, 578, 499, 500, 580, 499, 580, 579, 500, 501, 581, 500, 581, 580, 501, 502, 582, 501, 582, 581, 502, 503, 583, 502, 583, 582, 503, 504, 584, 503, 584, 583, 504, 505, 585, 504, 585, 584, 505, 506, 586, 505, 586, 585, 506, 507, 587, 506, 587, 586, 507, 508, 588, 507, 588, 587, 508, 509, 589, 508, 589, 588, 509, 510, 590, 509, 590, 589, 510, 511, 591, 510, 591, 590, 511, 512, 592, 511, 592, 591, 512, 513, 593, 512, 593, 592, 513, 514, 594, 513, 594, 593, 514, 515, 595, 514, 595, 594, 515, 516, 596, 515, 596, 595, 516, 517, 597, 516, 597, 596, 517, 518, 598, 517, 598, 597, 518, 519, 599, 518, 599, 598, 519, 520, 600, 519, 600, 599, 520, 521, 601, 520, 601, 600, 521, 522, 602, 521, 602, 601, 522, 523, 603, 522, 603, 602, 523, 524, 604, 523, 604, 603, 524, 525, 605, 524, 605, 604, 525, 526, 606, 525, 606, 605, 526, 527, 607, 526, 607, 606, 527, 528, 608, 527, 608, 607, 528, 529, 609, 528, 609, 608, 529, 530, 610, 529, 610, 609, 530, 531, 611, 530, 611, 610, 531, 532, 612, 531, 612, 611, 532, 533, 613, 532, 613, 612, 533, 534, 614, 533, 614, 613, 534, 535, 615, 534, 615, 614, 535, 536, 616, 535, 616, 615, 536, 537, 617, 536, 617, 616, 537, 538, 618, 537, 618, 617, 538, 539, 619, 538, 619, 618, 539, 540, 620, 539, 620, 619, 540, 541, 621, 540, 621, 620, 541, 542, 622, 541, 622, 621, 542, 543, 623, 542, 623, 622, 543, 544, 624, 543, 624, 623, 544, 545, 625, 544, 625, 624, 545, 546, 626, 545, 626, 625, 546, 547, 627, 546, 627, 626, 547, 548, 628, 547, 628, 627, 548, 549, 629, 548, 629, 628, 549, 550, 630, 549, 630, 629, 550, 551, 631, 550, 631, 630, 551, 552, 632, 551, 632, 631, 552, 553, 633, 552, 633, 632, 553, 554, 634, 553, 634, 633, 554, 555, 635, 554, 635, 634, 555, 556, 636, 555, 636, 635, 556, 557, 637, 556, 637, 636, 557, 558, 638, 557, 638, 637, 558, 559, 639, 558, 639, 638, 559, 480, 560, 559, 560, 639, 560, 561, 641, 560, 641, 640, 561, 562, 642, 561, 642, 641, 562, 563, 643, 562, 643, 642, 563, 564, 644, 563, 644, 643, 564, 565, 645, 564, 645, 644, 565, 566, 646, 565, 646, 645, 566, 567, 647, 566, 647, 646, 567, 568, 648, 567, 648, 647, 568, 569, 649, 568, 649, 648, 569, 570, 650, 569, 650, 649, 570, 571, 651, 570, 651, 650, 571, 572, 652, 571, 652, 651, 572, 573, 653, 572, 653, 652, 573, 574, 654, 573, 654, 653, 574, 575, 655, 574, 655, 654, 575, 576, 656, 575, 656, 655, 576, 577, 657, 576, 657, 656, 577, 578, 658, 577, 658, 657, 578, 579, 659, 578, 659, 658, 579, 580, 660, 579, 660, 659, 580, 581, 661, 580, 661, 660, 581, 582, 662, 581, 662, 661, 582, 583, 663, 582, 663, 662, 583, 584, 664, 583, 664, 663, 584, 585, 665, 584, 665, 664, 585, 586, 666, 585, 666, 665, 586, 587, 667, 586, 667, 666, 587, 588, 668, 587, 668, 667, 588, 589, 669, 588, 669, 668, 589, 590, 670, 589, 670, 669, 590, 591, 671, 590, 671, 670, 591, 592, 672, 591, 672, 671, 592, 593, 673, 592, 673, 672, 593, 594, 674, 593, 674, 673, 594, 595, 675, 594, 675, 674, 595, 596, 676, 595, 676, 675, 596, 597, 677, 596, 677, 676, 597, 598, 678, 597, 678, 677, 598, 599, 679, 598, 679, 678, 599, 600, 680, 599, 680, 679, 600, 601, 681, 600, 681, 680, 601, 602, 682, 601, 682, 681, 602, 603, 683, 602, 683, 682, 603, 604, 684, 603, 684, 683, 604, 605, 685, 604, 685, 684, 605, 606, 686, 605, 686, 685, 606, 607, 687, 606, 687, 686, 607, 608, 688, 607, 688, 687, 608, 609, 689, 608, 689, 688, 609, 610, 690, 609, 690, 689, 610, 611, 691, 610, 691, 690, 611, 612, 692, 611, 692, 691, 612, 613, 693, 612, 693, 692, 613, 614, 694, 613, 694, 693, 614, 615, 695, 614, 695, 694, 615, 616, 696, 615, 696, 695, 616, 617, 697, 616, 697, 696, 617, 618, 698, 617, 698, 697, 618, 619, 699, 618, 699, 698, 619, 620, 700, 619, 700, 699, 620, 621, 701, 620, 701, 700, 621, 622, 702, 621, 702, 701, 622, 623, 703, 622, 703, 702, 623, 624, 704, 623, 704, 703, 624, 625, 705, 624, 705, 704, 625, 626, 706, 625, 706, 705, 626, 627, 707, 626, 707, 706, 627, 628, 708, 627, 708, 707, 628, 629, 709, 628, 709, 708, 629, 630, 710, 629, 710, 709, 630, 631, 711, 630, 711, 710, 631, 632, 712, 631, 712, 711, 632, 633, 713, 632, 713, 712, 633, 634, 714, 633, 714, 713, 634, 635, 715, 634, 715, 714, 635, 636, 716, 635, 716, 715, 636, 637, 717, 636, 717, 716, 637, 638, 718, 637, 718, 717, 638, 639, 719, 638, 719, 718, 639, 560, 640, 639, 640, 719, 640, 641, 721, 640, 721, 720, 641, 642, 722, 641, 722, 721, 642, 643, 723, 642, 723, 722, 643, 644, 724, 643, 724, 723, 644, 645, 725, 644, 725, 724, 645, 646, 726, 645, 726, 725, 646, 647, 727, 646, 727, 726, 647, 648, 728, 647, 728, 727, 648, 649, 729, 648, 729, 728, 649, 650, 730, 649, 730, 729, 650, 651, 731, 650, 731, 730, 651, 652, 732, 651, 732, 731, 652, 653, 733, 652, 733, 732, 653, 654, 734, 653, 734, 733, 654, 655, 735, 654, 735, 734, 655, 656, 736, 655, 736, 735, 656, 657, 737, 656, 737, 736, 657, 658, 738, 657, 738, 737, 658, 659, 739, 658, 739, 738, 659, 660, 740, 659, 740, 739, 660, 661, 741, 660, 741, 740, 661, 662, 742, 661, 742, 741, 662, 663, 743, 662, 743, 742, 663, 664, 744, 663, 744, 743, 664, 665, 745, 664, 745, 744, 665, 666, 746, 665, 746, 745, 666, 667, 747, 666, 747, 746, 667, 668, 748, 667, 748, 747, 668, 669, 749, 668, 749, 748, 669, 670, 750, 669, 750, 749, 670, 671, 751, 670, 751, 750, 671, 672, 752, 671, 752, 751, 672, 673, 753, 672, 753, 752, 673, 674, 754, 673, 754, 753, 674, 675, 755, 674, 755, 754, 675, 676, 756, 675, 756, 755, 676, 677, 757, 676, 757, 756, 677, 678, 758, 677, 758, 757, 678, 679, 759, 678, 759, 758, 679, 680, 760, 679, 760, 759, 680, 681, 761, 680, 761, 760, 681, 682, 762, 681, 762, 761, 682, 683, 763, 682, 763, 762, 683, 684, 764, 683, 764, 763, 684, 685, 765, 684, 765, 764, 685, 686, 766, 685, 766, 765, 686, 687, 767, 686, 767, 766, 687, 688, 768, 687, 768, 767, 688, 689, 769, 688, 769, 768, 689, 690, 770, 689, 770, 769, 690, 691, 771, 690, 771, 770, 691, 692, 772, 691, 772, 771, 692, 693, 773, 692, 773, 772, 693, 694, 774, 693, 774, 773, 694, 695, 775, 694, 775, 774, 695, 696, 776, 695, 776, 775, 696, 697, 777, 696, 777, 776, 697, 698, 778, 697, 778, 777, 698, 699, 779, 698, 779, 778, 699, 700, 780, 699, 780, 779, 700, 701, 781, 700, 781, 780, 701, 702, 782, 701, 782, 781, 702, 703, 783, 702, 783, 782, 703, 704, 784, 703, 784, 783, 704, 705, 785, 704, 785, 784, 705, 706, 786, 705, 786, 785, 706, 707, 787, 706, 787, 786, 707, 708, 788, 707, 788, 787, 708, 709, 789, 708, 789, 788, 709, 710, 790, 709, 790, 789, 710, 711, 791, 710, 791, 790, 711, 712, 792, 711, 792, 791, 712, 713, 793, 712, 793, 792, 713, 714, 794, 713, 794, 793, 714, 715, 795, 714, 795, 794, 715, 716, 796, 715, 796, 795, 716, 717, 797, 716, 797, 796, 717, 718, 798, 717, 798, 797, 718, 719, 799, 718, 799, 798, 719, 640, 720, 719, 720, 799, 720, 721, 801, 720, 801, 800, 721, 722, 802, 721, 802, 801, 722, 723, 803, 722, 803, 802, 723, 724, 804, 723, 804, 803, 724, 725, 805, 724, 805, 804, 725, 726, 806, 725, 806, 805, 726, 727, 807, 726, 807, 806, 727, 728, 808, 727, 808, 807, 728, 729, 809, 728, 809, 808, 729, 730, 810, 729, 810, 809, 730, 731, 811, 730, 811, 810, 731, 732, 812, 731, 812, 811, 732, 733, 813, 732, 813, 812, 733, 734, 814, 733, 814, 813, 734, 735, 815, 734, 815, 814, 735, 736, 816, 735, 816, 815, 736, 737, 817, 736, 817, 816, 737, 738, 818, 737, 818, 817, 738, 739, 819, 738, 819, 818, 739, 740, 820, 739, 820, 819, 740, 741, 821, 740, 821, 820, 741, 742, 822, 741, 822, 821, 742, 743, 823, 742, 823, 822, 743, 744, 824, 743, 824, 823, 744, 745, 825, 744, 825, 824, 745, 746, 826, 745, 826, 825, 746, 747, 827, 746, 827, 826, 747, 748, 828, 747, 828, 827, 748, 749, 829, 748, 829, 828, 749, 750, 830, 749, 830, 829, 750, 751, 831, 750, 831, 830, 751, 752, 832, 751, 832, 831, 752, 753, 833, 752, 833, 832, 753, 754, 834, 753, 834, 833, 754, 755, 835, 754, 835, 834, 755, 756, 836, 755, 836, 835, 756, 757, 837, 756, 837, 836, 757, 758, 838, 757, 838, 837, 758, 759, 839, 758, 839, 838, 759, 760, 840, 759, 840, 839, 760, 761, 841, 760, 841, 840, 761, 762, 842, 761, 842, 841, 762, 763, 843, 762, 843, 842, 763, 764, 844, 763, 844, 843, 764, 765, 845, 764, 845, 844, 765, 766, 846, 765, 846, 845, 766, 767, 847, 766, 847, 846, 767, 768, 848, 767, 848, 847, 768, 769, 849, 768, 849, 848, 769, 770, 850, 769, 850, 849, 770, 771, 851, 770, 851, 850, 771, 772, 852, 771, 852, 851, 772, 773, 853, 772, 853, 852, 773, 774, 854, 773, 854, 853, 774, 775, 855, 774, 855, 854, 775, 776, 856, 775, 856, 855, 776, 777, 857, 776, 857, 856, 777, 778, 858, 777, 858, 857, 778, 779, 859, 778, 859, 858, 779, 780, 860, 779, 860, 859, 780, 781, 861, 780, 861, 860, 781, 782, 862, 781, 862, 861, 782, 783, 863, 782, 863, 862, 783, 784, 864, 783, 864, 863, 784, 785, 865, 784, 865, 864, 785, 786, 866, 785, 866, 865, 786, 787, 867, 786, 867, 866, 787, 788, 868, 787, 868, 867, 788, 789, 869, 788, 869, 868, 789, 790, 870, 789, 870, 869, 790, 791, 871, 790, 871, 870, 791, 792, 872, 791, 872, 871, 792, 793, 873, 792, 873, 872, 793, 794, 874, 793, 874, 873, 794, 795, 875, 794, 875, 874, 795, 796, 876, 795, 876, 875, 796, 797, 877, 796, 877, 876, 797, 798, 878, 797, 878, 877, 798, 799, 879, 798, 879, 878, 799, 720, 800, 799, 800, 879]
        rel material:binding = </chip_serving_plate_visual/cream_glaze>
        point3f[] points = [(0.001, 0, 0.006), (0.0009984574, 0.00023808968, 0.006), (0.0009938251, 0.00033619028, 0.006), (0.0009860882, 0.00041068756, 0.006), (0.0009752213, 0.000472509, 0.006), (0.00096118654, 0.000525822, 0.006), (0.0009439314, 0.00057271996, 0.006), (0.00092338515, 0.0006144145, 0.006), (0.0008994537, 0.0006516708, 0.006), (0.0008720126, 0.0006850009, 0.006), (0.0008408964, 0.00071476196, 0.006), (0.0008058834, 0.0007412107, 0.006), (0.00076667155, 0.0007645357, 0.006), (0.0007228406, 0.0007848774, 0.006), (0.0006737882, 0.00080234173, 0.006), (0.00061861414, 0.00081700855, 0.006), (0.000555893, 0.0008289381, 0.006), (0.00048316183, 0.00083817495, 0.006), (0.00039551797, 0.00084475137, 0.006), (0.0002801055, 0.0008486889, 0.006), (7.8251095e-12, 0.00085, 0.006), (-0.0002801055, 0.0008486889, 0.006), (-0.00039551797, 0.00084475137, 0.006), (-0.00048316183, 0.00083817495, 0.006), (-0.000555893, 0.0008289381, 0.006), (-0.00061861414, 0.00081700855, 0.006), (-0.0006737882, 0.00080234173, 0.006), (-0.0007228406, 0.0007848774, 0.006), (-0.00076667155, 0.0007645357, 0.006), (-0.0008058834, 0.0007412107, 0.006), (-0.0008408964, 0.00071476196, 0.006), (-0.0008720126, 0.0006850009, 0.006), (-0.0008994537, 0.0006516708, 0.006), (-0.00092338515, 0.0006144145, 0.006), (-0.0009439314, 0.00057271996, 0.006), (-0.00096118654, 0.000525822, 0.006), (-0.0009752213, 0.000472509, 0.006), (-0.0009860882, 0.00041068756, 0.006), (-0.0009938251, 0.00033619028, 0.006), (-0.0009984574, 0.00023808968, 0.006), (-0.001, 9.40642e-12, 0.006), (-0.0009984574, -0.00023808968, 0.006), (-0.0009938251, -0.00033619028, 0.006), (-0.0009860882, -0.00041068756, 0.006), (-0.0009752213, -0.000472509, 0.006), (-0.00096118654, -0.000525822, 0.006), (-0.0009439314, -0.00057271996, 0.006), (-0.00092338515, -0.0006144145, 0.006), (-0.0008994537, -0.0006516708, 0.006), (-0.0008720126, -0.0006850009, 0.006), (-0.0008408964, -0.00071476196, 0.006), (-0.0008058834, -0.0007412107, 0.006), (-0.00076667155, -0.0007645357, 0.006), (-0.0007228406, -0.0007848774, 0.006), (-0.0006737882, -0.00080234173, 0.006), (-0.00061861414, -0.00081700855, 0.006), (-0.000555893, -0.0008289381, 0.006), (-0.00048316183, -0.00083817495, 0.006), (-0.00039551797, -0.00084475137, 0.006), (-0.0002801055, -0.0008486889, 0.006), (-1.3553487e-11, -0.00085, 0.006), (0.0002801055, -0.0008486889, 0.006), (0.00039551797, -0.00084475137, 0.006), (0.00048316183, -0.00083817495, 0.006), (0.000555893, -0.0008289381, 0.006), (0.00061861414, -0.00081700855, 0.006), (0.0006737882, -0.00080234173, 0.006), (0.0007228406, -0.0007848774, 0.006), (0.00076667155, -0.0007645357, 0.006), (0.0008058834, -0.0007412107, 0.006), (0.0008408964, -0.00071476196, 0.006), (0.0008720126, -0.0006850009, 0.006), (0.0008994537, -0.0006516708, 0.006), (0.00092338515, -0.0006144145, 0.006), (0.0009439314, -0.00057271996, 0.006), (0.00096118654, -0.000525822, 0.006), (0.0009752213, -0.000472509, 0.006), (0.0009860882, -0.00041068756, 0.006), (0.0009938251, -0.00033619028, 0.006), (0.0009984574, -0.00023808968, 0.006), (0.056, 0, 0.006), (0.05591362, 0.013333023, 0.006), (0.055654205, 0.018826656, 0.006), (0.05522094, 0.022998504, 0.006), (0.05461239, 0.026460506, 0.006), (0.053826444, 0.029446032, 0.006), (0.05286016, 0.032072317, 0.006), (0.05170957, 0.034407213, 0.006), (0.050369408, 0.036493566, 0.006), (0.048832707, 0.038360048, 0.006), (0.0470902, 0.04002667, 0.006), (0.04512947, 0.0415078, 0.006), (0.042933606, 0.042813998, 0.006), (0.040479075, 0.043953136, 0.006), (0.03773214, 0.044931136, 0.006), (0.03464239, 0.045752477, 0.006), (0.031130007, 0.046420533, 0.006), (0.027057063, 0.046937797, 0.006), (0.022149006, 0.047306076, 0.006), (0.015685908, 0.047526576, 0.006), (4.3820614e-10, 0.0476, 0.006), (-0.015685908, 0.047526576, 0.006), (-0.022149006, 0.047306076, 0.006), (-0.027057063, 0.046937797, 0.006), (-0.031130007, 0.046420533, 0.006), (-0.03464239, 0.045752477, 0.006), (-0.03773214, 0.044931136, 0.006), (-0.040479075, 0.043953136, 0.006), (-0.042933606, 0.042813998, 0.006), (-0.04512947, 0.0415078, 0.006), (-0.0470902, 0.04002667, 0.006), (-0.048832707, 0.038360048, 0.006), (-0.050369408, 0.036493566, 0.006), (-0.05170957, 0.034407213, 0.006), (-0.05286016, 0.032072317, 0.006), (-0.053826444, 0.029446032, 0.006), (-0.05461239, 0.026460506, 0.006), (-0.05522094, 0.022998504, 0.006), (-0.055654205, 0.018826656, 0.006), (-0.05591362, 0.013333023, 0.006), (-0.056, 5.267595e-10, 0.006), (-0.05591362, -0.013333023, 0.006), (-0.055654205, -0.018826656, 0.006), (-0.05522094, -0.022998504, 0.006), (-0.05461239, -0.026460506, 0.006), (-0.053826444, -0.029446032, 0.006), (-0.05286016, -0.032072317, 0.006), (-0.05170957, -0.034407213, 0.006), (-0.050369408, -0.036493566, 0.006), (-0.048832707, -0.038360048, 0.006), (-0.0470902, -0.04002667, 0.006), (-0.04512947, -0.0415078, 0.006), (-0.042933606, -0.042813998, 0.006), (-0.040479075, -0.043953136, 0.006), (-0.03773214, -0.044931136, 0.006), (-0.03464239, -0.045752477, 0.006), (-0.031130007, -0.046420533, 0.006), (-0.027057063, -0.046937797, 0.006), (-0.022149006, -0.047306076, 0.006), (-0.015685908, -0.047526576, 0.006), (-7.589953e-10, -0.0476, 0.006), (0.015685908, -0.047526576, 0.006), (0.022149006, -0.047306076, 0.006), (0.027057063, -0.046937797, 0.006), (0.031130007, -0.046420533, 0.006), (0.03464239, -0.045752477, 0.006), (0.03773214, -0.044931136, 0.006), (0.040479075, -0.043953136, 0.006), (0.042933606, -0.042813998, 0.006), (0.04512947, -0.0415078, 0.006), (0.0470902, -0.04002667, 0.006), (0.048832707, -0.038360048, 0.006), (0.050369408, -0.036493566, 0.006), (0.05170957, -0.034407213, 0.006), (0.05286016, -0.032072317, 0.006), (0.053826444, -0.029446032, 0.006), (0.05461239, -0.026460506, 0.006), (0.05522094, -0.022998504, 0.006), (0.055654205, -0.018826656, 0.006), (0.05591362, -0.013333023, 0.006), (0.06, 0, 0.006), (0.059907448, 0.014285381, 0.006), (0.059629507, 0.020171417, 0.006), (0.05916529, 0.024641253, 0.006), (0.058513276, 0.028350541, 0.006), (0.057671193, 0.03154932, 0.006), (0.056635886, 0.034363195, 0.006), (0.05540311, 0.036864873, 0.006), (0.053967223, 0.03910025, 0.006), (0.052320756, 0.041100055, 0.006), (0.050453786, 0.042885717, 0.006), (0.048353005, 0.044472642, 0.006), (0.04600029, 0.04587214, 0.006), (0.043370437, 0.047092643, 0.006), (0.04042729, 0.048140503, 0.006), (0.037116848, 0.049020514, 0.006), (0.03335358, 0.049736284, 0.006), (0.02898971, 0.0502905, 0.006), (0.023731079, 0.05068508, 0.006), (0.01680633, 0.050921332, 0.006), (4.695066e-10, 0.051, 0.006), (-0.01680633, 0.050921332, 0.006), (-0.023731079, 0.05068508, 0.006), (-0.02898971, 0.0502905, 0.006), (-0.03335358, 0.049736284, 0.006), (-0.037116848, 0.049020514, 0.006), (-0.04042729, 0.048140503, 0.006), (-0.043370437, 0.047092643, 0.006), (-0.04600029, 0.04587214, 0.006), (-0.048353005, 0.044472642, 0.006), (-0.050453786, 0.042885717, 0.006), (-0.052320756, 0.041100055, 0.006), (-0.053967223, 0.03910025, 0.006), (-0.05540311, 0.036864873, 0.006), (-0.056635886, 0.034363195, 0.006), (-0.057671193, 0.03154932, 0.006), (-0.058513276, 0.028350541, 0.006), (-0.05916529, 0.024641253, 0.006), (-0.059629507, 0.020171417, 0.006), (-0.059907448, 0.014285381, 0.006), (-0.06, 5.643852e-10, 0.006), (-0.059907448, -0.014285381, 0.006), (-0.059629507, -0.020171417, 0.006), (-0.05916529, -0.024641253, 0.006), (-0.058513276, -0.028350541, 0.006), (-0.057671193, -0.03154932, 0.006), (-0.056635886, -0.034363195, 0.006), (-0.05540311, -0.036864873, 0.006), (-0.053967223, -0.03910025, 0.006), (-0.052320756, -0.041100055, 0.006), (-0.050453786, -0.042885717, 0.006), (-0.048353005, -0.044472642, 0.006), (-0.04600029, -0.04587214, 0.006), (-0.043370437, -0.047092643, 0.006), (-0.04042729, -0.048140503, 0.006), (-0.037116848, -0.049020514, 0.006), (-0.03335358, -0.049736284, 0.006), (-0.02898971, -0.0502905, 0.006), (-0.023731079, -0.05068508, 0.006), (-0.01680633, -0.050921332, 0.006), (-8.132092e-10, -0.051, 0.006), (0.01680633, -0.050921332, 0.006), (0.023731079, -0.05068508, 0.006), (0.02898971, -0.0502905, 0.006), (0.03335358, -0.049736284, 0.006), (0.037116848, -0.049020514, 0.006), (0.04042729, -0.048140503, 0.006), (0.043370437, -0.047092643, 0.006), (0.04600029, -0.04587214, 0.006), (0.048353005, -0.044472642, 0.006), (0.050453786, -0.042885717, 0.006), (0.052320756, -0.041100055, 0.006), (0.053967223, -0.03910025, 0.006), (0.05540311, -0.036864873, 0.006), (0.056635886, -0.034363195, 0.006), (0.057671193, -0.03154932, 0.006), (0.058513276, -0.028350541, 0.006), (0.05916529, -0.024641253, 0.006), (0.059629507, -0.020171417, 0.006), (0.059907448, -0.014285381, 0.006), (0.065, 0, 0.008), (0.064899735, 0.015475829, 0.008), (0.064598635, 0.021852368, 0.008), (0.064095736, 0.02669469, 0.008), (0.06338938, 0.030713087, 0.008), (0.062477123, 0.034178432, 0.008), (0.061355542, 0.037226796, 0.008), (0.060020037, 0.039936945, 0.008), (0.058464494, 0.042358603, 0.008), (0.056680817, 0.044525057, 0.008), (0.054658268, 0.046459526, 0.008), (0.05238242, 0.048178695, 0.008), (0.04983365, 0.049694818, 0.008), (0.04698464, 0.05101703, 0.008), (0.04379623, 0.052152213, 0.008), (0.04020992, 0.053105555, 0.008), (0.036133043, 0.053880975, 0.008), (0.03140552, 0.054481372, 0.008), (0.025708668, 0.054908838, 0.008), (0.018206857, 0.055164777, 0.008), (5.0863214e-10, 0.05525, 0.008), (-0.018206857, 0.055164777, 0.008), (-0.025708668, 0.054908838, 0.008), (-0.03140552, 0.054481372, 0.008), (-0.036133043, 0.053880975, 0.008), (-0.04020992, 0.053105555, 0.008), (-0.04379623, 0.052152213, 0.008), (-0.04698464, 0.05101703, 0.008), (-0.04983365, 0.049694818, 0.008), (-0.05238242, 0.048178695, 0.008), (-0.054658268, 0.046459526, 0.008), (-0.056680817, 0.044525057, 0.008), (-0.058464494, 0.042358603, 0.008), (-0.060020037, 0.039936945, 0.008), (-0.061355542, 0.037226796, 0.008), (-0.062477123, 0.034178432, 0.008), (-0.06338938, 0.030713087, 0.008), (-0.064095736, 0.02669469, 0.008), (-0.064598635, 0.021852368, 0.008), (-0.064899735, 0.015475829, 0.008), (-0.065, 6.114173e-10, 0.008), (-0.064899735, -0.015475829, 0.008), (-0.064598635, -0.021852368, 0.008), (-0.064095736, -0.02669469, 0.008), (-0.06338938, -0.030713087, 0.008), (-0.062477123, -0.034178432, 0.008), (-0.061355542, -0.037226796, 0.008), (-0.060020037, -0.039936945, 0.008), (-0.058464494, -0.042358603, 0.008), (-0.056680817, -0.044525057, 0.008), (-0.054658268, -0.046459526, 0.008), (-0.05238242, -0.048178695, 0.008), (-0.04983365, -0.049694818, 0.008), (-0.04698464, -0.05101703, 0.008), (-0.04379623, -0.052152213, 0.008), (-0.04020992, -0.053105555, 0.008), (-0.036133043, -0.053880975, 0.008), (-0.03140552, -0.054481372, 0.008), (-0.025708668, -0.054908838, 0.008), (-0.018206857, -0.055164777, 0.008), (-8.809767e-10, -0.05525, 0.008), (0.018206857, -0.055164777, 0.008), (0.025708668, -0.054908838, 0.008), (0.03140552, -0.054481372, 0.008), (0.036133043, -0.053880975, 0.008), (0.04020992, -0.053105555, 0.008), (0.04379623, -0.052152213, 0.008), (0.04698464, -0.05101703, 0.008), (0.04983365, -0.049694818, 0.008), (0.05238242, -0.048178695, 0.008), (0.054658268, -0.046459526, 0.008), (0.056680817, -0.044525057, 0.008), (0.058464494, -0.042358603, 0.008), (0.060020037, -0.039936945, 0.008), (0.061355542, -0.037226796, 0.008), (0.062477123, -0.034178432, 0.008), (0.06338938, -0.030713087, 0.008), (0.064095736, -0.02669469, 0.008), (0.064598635, -0.021852368, 0.008), (0.064899735, -0.015475829, 0.008), (0.069, 0, 0.012), (0.06889357, 0.016428187, 0.012), (0.06857393, 0.02319713, 0.012), (0.06804009, 0.028337441, 0.012), (0.06729027, 0.032603122, 0.012), (0.06632187, 0.03628172, 0.012), (0.06513127, 0.039517675, 0.012), (0.06371357, 0.0423946, 0.012), (0.06206231, 0.044965286, 0.012), (0.06016887, 0.04726506, 0.012), (0.05802185, 0.049318574, 0.012), (0.055605955, 0.05114354, 0.012), (0.052900337, 0.05275296, 0.012), (0.049876004, 0.05415654, 0.012), (0.046491385, 0.055361576, 0.012), (0.042684376, 0.05637359, 0.012), (0.038356613, 0.05719673, 0.012), (0.033338167, 0.057834074, 0.012), (0.02729074, 0.058287844, 0.012), (0.01932728, 0.05855953, 0.012), (5.3993254e-10, 0.05865, 0.012), (-0.01932728, 0.05855953, 0.012), (-0.02729074, 0.058287844, 0.012), (-0.033338167, 0.057834074, 0.012), (-0.038356613, 0.05719673, 0.012), (-0.042684376, 0.05637359, 0.012), (-0.046491385, 0.055361576, 0.012), (-0.049876004, 0.05415654, 0.012), (-0.052900337, 0.05275296, 0.012), (-0.055605955, 0.05114354, 0.012), (-0.05802185, 0.049318574, 0.012), (-0.06016887, 0.04726506, 0.012), (-0.06206231, 0.044965286, 0.012), (-0.06371357, 0.0423946, 0.012), (-0.06513127, 0.039517675, 0.012), (-0.06632187, 0.03628172, 0.012), (-0.06729027, 0.032603122, 0.012), (-0.06804009, 0.028337441, 0.012), (-0.06857393, 0.02319713, 0.012), (-0.06889357, 0.016428187, 0.012), (-0.069, 6.4904293e-10, 0.012), (-0.06889357, -0.016428187, 0.012), (-0.06857393, -0.02319713, 0.012), (-0.06804009, -0.028337441, 0.012), (-0.06729027, -0.032603122, 0.012), (-0.06632187, -0.03628172, 0.012), (-0.06513127, -0.039517675, 0.012), (-0.06371357, -0.0423946, 0.012), (-0.06206231, -0.044965286, 0.012), (-0.06016887, -0.04726506, 0.012), (-0.05802185, -0.049318574, 0.012), (-0.055605955, -0.05114354, 0.012), (-0.052900337, -0.05275296, 0.012), (-0.049876004, -0.05415654, 0.012), (-0.046491385, -0.055361576, 0.012), (-0.042684376, -0.05637359, 0.012), (-0.038356613, -0.05719673, 0.012), (-0.033338167, -0.057834074, 0.012), (-0.02729074, -0.058287844, 0.012), (-0.01932728, -0.05855953, 0.012), (-9.351906e-10, -0.05865, 0.012), (0.01932728, -0.05855953, 0.012), (0.02729074, -0.058287844, 0.012), (0.033338167, -0.057834074, 0.012), (0.038356613, -0.05719673, 0.012), (0.042684376, -0.05637359, 0.012), (0.046491385, -0.055361576, 0.012), (0.049876004, -0.05415654, 0.012), (0.052900337, -0.05275296, 0.012), (0.055605955, -0.05114354, 0.012), (0.05802185, -0.049318574, 0.012), (0.06016887, -0.04726506, 0.012), (0.06206231, -0.044965286, 0.012), (0.06371357, -0.0423946, 0.012), (0.06513127, -0.039517675, 0.012), (0.06632187, -0.03628172, 0.012), (0.06729027, -0.032603122, 0.012), (0.06804009, -0.028337441, 0.012), (0.06857393, -0.02319713, 0.012), (0.06889357, -0.016428187, 0.012), (0.071, 0, 0.013), (0.07089048, 0.016904367, 0.013), (0.07056158, 0.023869509, 0.013), (0.070012264, 0.029158818, 0.013), (0.06924071, 0.03354814, 0.013), (0.06824424, 0.03733336, 0.013), (0.06701913, 0.040663116, 0.013), (0.06556035, 0.043623433, 0.013), (0.06386121, 0.046268627, 0.013), (0.061912894, 0.04863506, 0.013), (0.059703644, 0.0507481, 0.013), (0.05721772, 0.05262596, 0.013), (0.05443368, 0.054282032, 0.013), (0.051321685, 0.055726293, 0.013), (0.04783896, 0.05696626, 0.013), (0.0439216, 0.058007605, 0.013), (0.0394684, 0.058854602, 0.013), (0.034304492, 0.05951042, 0.013), (0.028081777, 0.059977345, 0.013), (0.01988749, 0.06025691, 0.013), (5.555828e-10, 0.06035, 0.013), (-0.01988749, 0.06025691, 0.013), (-0.028081777, 0.059977345, 0.013), (-0.034304492, 0.05951042, 0.013), (-0.0394684, 0.058854602, 0.013), (-0.0439216, 0.058007605, 0.013), (-0.04783896, 0.05696626, 0.013), (-0.051321685, 0.055726293, 0.013), (-0.05443368, 0.054282032, 0.013), (-0.05721772, 0.05262596, 0.013), (-0.059703644, 0.0507481, 0.013), (-0.061912894, 0.04863506, 0.013), (-0.06386121, 0.046268627, 0.013), (-0.06556035, 0.043623433, 0.013), (-0.06701913, 0.040663116, 0.013), (-0.06824424, 0.03733336, 0.013), (-0.06924071, 0.03354814, 0.013), (-0.070012264, 0.029158818, 0.013), (-0.07056158, 0.023869509, 0.013), (-0.07089048, 0.016904367, 0.013), (-0.071, 6.6785577e-10, 0.013), (-0.07089048, -0.016904367, 0.013), (-0.07056158, -0.023869509, 0.013), (-0.070012264, -0.029158818, 0.013), (-0.06924071, -0.03354814, 0.013), (-0.06824424, -0.03733336, 0.013), (-0.06701913, -0.040663116, 0.013), (-0.06556035, -0.043623433, 0.013), (-0.06386121, -0.046268627, 0.013), (-0.061912894, -0.04863506, 0.013), (-0.059703644, -0.0507481, 0.013), (-0.05721772, -0.05262596, 0.013), (-0.05443368, -0.054282032, 0.013), (-0.051321685, -0.055726293, 0.013), (-0.04783896, -0.05696626, 0.013), (-0.0439216, -0.058007605, 0.013), (-0.0394684, -0.058854602, 0.013), (-0.034304492, -0.05951042, 0.013), (-0.028081777, -0.059977345, 0.013), (-0.01988749, -0.06025691, 0.013), (-9.622976e-10, -0.06035, 0.013), (0.01988749, -0.06025691, 0.013), (0.028081777, -0.059977345, 0.013), (0.034304492, -0.05951042, 0.013), (0.0394684, -0.058854602, 0.013), (0.0439216, -0.058007605, 0.013), (0.04783896, -0.05696626, 0.013), (0.051321685, -0.055726293, 0.013), (0.05443368, -0.054282032, 0.013), (0.05721772, -0.05262596, 0.013), (0.059703644, -0.0507481, 0.013), (0.061912894, -0.04863506, 0.013), (0.06386121, -0.046268627, 0.013), (0.06556035, -0.043623433, 0.013), (0.06701913, -0.040663116, 0.013), (0.06824424, -0.03733336, 0.013), (0.06924071, -0.03354814, 0.013), (0.070012264, -0.029158818, 0.013), (0.07056158, -0.023869509, 0.013), (0.07089048, -0.016904367, 0.013), (0.073, 0, 0.011), (0.0728874, 0.017380547, 0.011), (0.07254923, 0.02454189, 0.011), (0.07198444, 0.029980192, 0.011), (0.071191154, 0.03449316, 0.011), (0.07016662, 0.038385008, 0.011), (0.06890699, 0.041808557, 0.011), (0.06740712, 0.04485226, 0.011), (0.06566012, 0.04757197, 0.011), (0.06365692, 0.050005063, 0.011), (0.061385438, 0.052177623, 0.011), (0.058829486, 0.05410838, 0.011), (0.05596702, 0.055811103, 0.011), (0.052767366, 0.05729605, 0.011), (0.049186535, 0.058570944, 0.011), (0.04515883, 0.059641622, 0.011), (0.040580187, 0.06051248, 0.011), (0.035270814, 0.06118677, 0.011), (0.028872812, 0.061666846, 0.011), (0.020447701, 0.061954286, 0.011), (5.71233e-10, 0.06205, 0.011), (-0.020447701, 0.061954286, 0.011), (-0.028872812, 0.061666846, 0.011), (-0.035270814, 0.06118677, 0.011), (-0.040580187, 0.06051248, 0.011), (-0.04515883, 0.059641622, 0.011), (-0.049186535, 0.058570944, 0.011), (-0.052767366, 0.05729605, 0.011), (-0.05596702, 0.055811103, 0.011), (-0.058829486, 0.05410838, 0.011), (-0.061385438, 0.052177623, 0.011), (-0.06365692, 0.050005063, 0.011), (-0.06566012, 0.04757197, 0.011), (-0.06740712, 0.04485226, 0.011), (-0.06890699, 0.041808557, 0.011), (-0.07016662, 0.038385008, 0.011), (-0.071191154, 0.03449316, 0.011), (-0.07198444, 0.029980192, 0.011), (-0.07254923, 0.02454189, 0.011), (-0.0728874, 0.017380547, 0.011), (-0.073, 6.866686e-10, 0.011), (-0.0728874, -0.017380547, 0.011), (-0.07254923, -0.02454189, 0.011), (-0.07198444, -0.029980192, 0.011), (-0.071191154, -0.03449316, 0.011), (-0.07016662, -0.038385008, 0.011), (-0.06890699, -0.041808557, 0.011), (-0.06740712, -0.04485226, 0.011), (-0.06566012, -0.04757197, 0.011), (-0.06365692, -0.050005063, 0.011), (-0.061385438, -0.052177623, 0.011), (-0.058829486, -0.05410838, 0.011), (-0.05596702, -0.055811103, 0.011), (-0.052767366, -0.05729605, 0.011), (-0.049186535, -0.058570944, 0.011), (-0.04515883, -0.059641622, 0.011), (-0.040580187, -0.06051248, 0.011), (-0.035270814, -0.06118677, 0.011), (-0.028872812, -0.061666846, 0.011), (-0.020447701, -0.061954286, 0.011), (-9.894046e-10, -0.06205, 0.011), (0.020447701, -0.061954286, 0.011), (0.028872812, -0.061666846, 0.011), (0.035270814, -0.06118677, 0.011), (0.040580187, -0.06051248, 0.011), (0.04515883, -0.059641622, 0.011), (0.049186535, -0.058570944, 0.011), (0.052767366, -0.05729605, 0.011), (0.05596702, -0.055811103, 0.011), (0.058829486, -0.05410838, 0.011), (0.061385438, -0.052177623, 0.011), (0.06365692, -0.050005063, 0.011), (0.06566012, -0.04757197, 0.011), (0.06740712, -0.04485226, 0.011), (0.06890699, -0.041808557, 0.011), (0.07016662, -0.038385008, 0.011), (0.071191154, -0.03449316, 0.011), (0.07198444, -0.029980192, 0.011), (0.07254923, -0.02454189, 0.011), (0.0728874, -0.017380547, 0.011), (0.07, 0, 0.006), (0.06989203, 0.016666278, 0.006), (0.069567755, 0.02353332, 0.006), (0.06902617, 0.028748129, 0.006), (0.06826549, 0.03307563, 0.006), (0.06728306, 0.03680754, 0.006), (0.0660752, 0.040090397, 0.006), (0.06463696, 0.043009017, 0.006), (0.06296176, 0.04561696, 0.006), (0.061040882, 0.047950063, 0.006), (0.05886275, 0.05003334, 0.006), (0.056411836, 0.051884748, 0.006), (0.05366701, 0.053517498, 0.006), (0.050598845, 0.054941416, 0.006), (0.04716517, 0.05616392, 0.006), (0.043302987, 0.057190597, 0.006), (0.03891251, 0.058025666, 0.006), (0.03382133, 0.058672246, 0.006), (0.027686259, 0.059132595, 0.006), (0.019607386, 0.05940822, 0.006), (5.477577e-10, 0.0595, 0.006), (-0.019607386, 0.05940822, 0.006), (-0.027686259, 0.059132595, 0.006), (-0.03382133, 0.058672246, 0.006), (-0.03891251, 0.058025666, 0.006), (-0.043302987, 0.057190597, 0.006), (-0.04716517, 0.05616392, 0.006), (-0.050598845, 0.054941416, 0.006), (-0.05366701, 0.053517498, 0.006), (-0.056411836, 0.051884748, 0.006), (-0.05886275, 0.05003334, 0.006), (-0.061040882, 0.047950063, 0.006), (-0.06296176, 0.04561696, 0.006), (-0.06463696, 0.043009017, 0.006), (-0.0660752, 0.040090397, 0.006), (-0.06728306, 0.03680754, 0.006), (-0.06826549, 0.03307563, 0.006), (-0.06902617, 0.028748129, 0.006), (-0.069567755, 0.02353332, 0.006), (-0.06989203, 0.016666278, 0.006), (-0.07, 6.5844935e-10, 0.006), (-0.06989203, -0.016666278, 0.006), (-0.069567755, -0.02353332, 0.006), (-0.06902617, -0.028748129, 0.006), (-0.06826549, -0.03307563, 0.006), (-0.06728306, -0.03680754, 0.006), (-0.0660752, -0.040090397, 0.006), (-0.06463696, -0.043009017, 0.006), (-0.06296176, -0.04561696, 0.006), (-0.061040882, -0.047950063, 0.006), (-0.05886275, -0.05003334, 0.006), (-0.056411836, -0.051884748, 0.006), (-0.05366701, -0.053517498, 0.006), (-0.050598845, -0.054941416, 0.006), (-0.04716517, -0.05616392, 0.006), (-0.043302987, -0.057190597, 0.006), (-0.03891251, -0.058025666, 0.006), (-0.03382133, -0.058672246, 0.006), (-0.027686259, -0.059132595, 0.006), (-0.019607386, -0.05940822, 0.006), (-9.487441e-10, -0.0595, 0.006), (0.019607386, -0.05940822, 0.006), (0.027686259, -0.059132595, 0.006), (0.03382133, -0.058672246, 0.006), (0.03891251, -0.058025666, 0.006), (0.043302987, -0.057190597, 0.006), (0.04716517, -0.05616392, 0.006), (0.050598845, -0.054941416, 0.006), (0.05366701, -0.053517498, 0.006), (0.056411836, -0.051884748, 0.006), (0.05886275, -0.05003334, 0.006), (0.061040882, -0.047950063, 0.006), (0.06296176, -0.04561696, 0.006), (0.06463696, -0.043009017, 0.006), (0.0660752, -0.040090397, 0.006), (0.06728306, -0.03680754, 0.006), (0.06826549, -0.03307563, 0.006), (0.06902617, -0.028748129, 0.006), (0.069567755, -0.02353332, 0.006), (0.06989203, -0.016666278, 0.006), (0.063, 0, 0.002), (0.06290282, 0.01499965, 0.002), (0.062610984, 0.021179987, 0.002), (0.062123556, 0.025873316, 0.002), (0.06143894, 0.029768068, 0.002), (0.06055475, 0.033126786, 0.002), (0.05946768, 0.036081355, 0.002), (0.058173265, 0.038708117, 0.002), (0.056665584, 0.041055262, 0.002), (0.054936793, 0.043155055, 0.002), (0.052976474, 0.04503, 0.002), (0.050770655, 0.046696275, 0.002), (0.048300307, 0.048165746, 0.002), (0.04553896, 0.049447276, 0.002), (0.042448655, 0.05054753, 0.002), (0.03897269, 0.05147154, 0.002), (0.035021257, 0.052223098, 0.002), (0.030439196, 0.05280502, 0.002), (0.024917632, 0.053219333, 0.002), (0.017646646, 0.053467397, 0.002), (4.929819e-10, 0.05355, 0.002), (-0.017646646, 0.053467397, 0.002), (-0.024917632, 0.053219333, 0.002), (-0.030439196, 0.05280502, 0.002), (-0.035021257, 0.052223098, 0.002), (-0.03897269, 0.05147154, 0.002), (-0.042448655, 0.05054753, 0.002), (-0.04553896, 0.049447276, 0.002), (-0.048300307, 0.048165746, 0.002), (-0.050770655, 0.046696275, 0.002), (-0.052976474, 0.04503, 0.002), (-0.054936793, 0.043155055, 0.002), (-0.056665584, 0.041055262, 0.002), (-0.058173265, 0.038708117, 0.002), (-0.05946768, 0.036081355, 0.002), (-0.06055475, 0.033126786, 0.002), (-0.06143894, 0.029768068, 0.002), (-0.062123556, 0.025873316, 0.002), (-0.062610984, 0.021179987, 0.002), (-0.06290282, 0.01499965, 0.002), (-0.063, 5.9260447e-10, 0.002), (-0.06290282, -0.01499965, 0.002), (-0.062610984, -0.021179987, 0.002), (-0.062123556, -0.025873316, 0.002), (-0.06143894, -0.029768068, 0.002), (-0.06055475, -0.033126786, 0.002), (-0.05946768, -0.036081355, 0.002), (-0.058173265, -0.038708117, 0.002), (-0.056665584, -0.041055262, 0.002), (-0.054936793, -0.043155055, 0.002), (-0.052976474, -0.04503, 0.002), (-0.050770655, -0.046696275, 0.002), (-0.048300307, -0.048165746, 0.002), (-0.04553896, -0.049447276, 0.002), (-0.042448655, -0.05054753, 0.002), (-0.03897269, -0.05147154, 0.002), (-0.035021257, -0.052223098, 0.002), (-0.030439196, -0.05280502, 0.002), (-0.024917632, -0.053219333, 0.002), (-0.017646646, -0.053467397, 0.002), (-8.538697e-10, -0.05355, 0.002), (0.017646646, -0.053467397, 0.002), (0.024917632, -0.053219333, 0.002), (0.030439196, -0.05280502, 0.002), (0.035021257, -0.052223098, 0.002), (0.03897269, -0.05147154, 0.002), (0.042448655, -0.05054753, 0.002), (0.04553896, -0.049447276, 0.002), (0.048300307, -0.048165746, 0.002), (0.050770655, -0.046696275, 0.002), (0.052976474, -0.04503, 0.002), (0.054936793, -0.043155055, 0.002), (0.056665584, -0.041055262, 0.002), (0.058173265, -0.038708117, 0.002), (0.05946768, -0.036081355, 0.002), (0.06055475, -0.033126786, 0.002), (0.06143894, -0.029768068, 0.002), (0.062123556, -0.025873316, 0.002), (0.062610984, -0.021179987, 0.002), (0.06290282, -0.01499965, 0.002), (0.05, 0, 0.001), (0.049922872, 0.011904484, 0.001), (0.049691256, 0.016809514, 0.001), (0.04930441, 0.020534378, 0.001), (0.048761062, 0.023625452, 0.001), (0.048059326, 0.0262911, 0.001), (0.04719657, 0.028635997, 0.001), (0.04616926, 0.030720726, 0.001), (0.044972684, 0.032583542, 0.001), (0.04360063, 0.034250043, 0.001), (0.042044822, 0.0357381, 0.001), (0.04029417, 0.037060536, 0.001), (0.038333576, 0.038226783, 0.001), (0.036142033, 0.03924387, 0.001), (0.03368941, 0.040117085, 0.001), (0.030930705, 0.040850427, 0.001), (0.027794648, 0.041446906, 0.001), (0.024158092, 0.04190875, 0.001), (0.0197759, 0.04223757, 0.001), (0.014005275, 0.042434443, 0.001), (3.9125547e-10, 0.0425, 0.001), (-0.014005275, 0.042434443, 0.001), (-0.0197759, 0.04223757, 0.001), (-0.024158092, 0.04190875, 0.001), (-0.027794648, 0.041446906, 0.001), (-0.030930705, 0.040850427, 0.001), (-0.03368941, 0.040117085, 0.001), (-0.036142033, 0.03924387, 0.001), (-0.038333576, 0.038226783, 0.001), (-0.04029417, 0.037060536, 0.001), (-0.042044822, 0.0357381, 0.001), (-0.04360063, 0.034250043, 0.001), (-0.044972684, 0.032583542, 0.001), (-0.04616926, 0.030720726, 0.001), (-0.04719657, 0.028635997, 0.001), (-0.048059326, 0.0262911, 0.001), (-0.048761062, 0.023625452, 0.001), (-0.04930441, 0.020534378, 0.001), (-0.049691256, 0.016809514, 0.001), (-0.049922872, 0.011904484, 0.001), (-0.05, 4.70321e-10, 0.001), (-0.049922872, -0.011904484, 0.001), (-0.049691256, -0.016809514, 0.001), (-0.04930441, -0.020534378, 0.001), (-0.048761062, -0.023625452, 0.001), (-0.048059326, -0.0262911, 0.001), (-0.04719657, -0.028635997, 0.001), (-0.04616926, -0.030720726, 0.001), (-0.044972684, -0.032583542, 0.001), (-0.04360063, -0.034250043, 0.001), (-0.042044822, -0.0357381, 0.001), (-0.04029417, -0.037060536, 0.001), (-0.038333576, -0.038226783, 0.001), (-0.036142033, -0.03924387, 0.001), (-0.03368941, -0.040117085, 0.001), (-0.030930705, -0.040850427, 0.001), (-0.027794648, -0.041446906, 0.001), (-0.024158092, -0.04190875, 0.001), (-0.0197759, -0.04223757, 0.001), (-0.014005275, -0.042434443, 0.001), (-6.7767436e-10, -0.0425, 0.001), (0.014005275, -0.042434443, 0.001), (0.0197759, -0.04223757, 0.001), (0.024158092, -0.04190875, 0.001), (0.027794648, -0.041446906, 0.001), (0.030930705, -0.040850427, 0.001), (0.03368941, -0.040117085, 0.001), (0.036142033, -0.03924387, 0.001), (0.038333576, -0.038226783, 0.001), (0.04029417, -0.037060536, 0.001), (0.042044822, -0.0357381, 0.001), (0.04360063, -0.034250043, 0.001), (0.044972684, -0.032583542, 0.001), (0.04616926, -0.030720726, 0.001), (0.04719657, -0.028635997, 0.001), (0.048059326, -0.0262911, 0.001), (0.048761062, -0.023625452, 0.001), (0.04930441, -0.020534378, 0.001), (0.049691256, -0.016809514, 0.001), (0.049922872, -0.011904484, 0.001), (0.001, 0, 0.001), (0.0009984574, 0.00023808968, 0.001), (0.0009938251, 0.00033619028, 0.001), (0.0009860882, 0.00041068756, 0.001), (0.0009752213, 0.000472509, 0.001), (0.00096118654, 0.000525822, 0.001), (0.0009439314, 0.00057271996, 0.001), (0.00092338515, 0.0006144145, 0.001), (0.0008994537, 0.0006516708, 0.001), (0.0008720126, 0.0006850009, 0.001), (0.0008408964, 0.00071476196, 0.001), (0.0008058834, 0.0007412107, 0.001), (0.00076667155, 0.0007645357, 0.001), (0.0007228406, 0.0007848774, 0.001), (0.0006737882, 0.00080234173, 0.001), (0.00061861414, 0.00081700855, 0.001), (0.000555893, 0.0008289381, 0.001), (0.00048316183, 0.00083817495, 0.001), (0.00039551797, 0.00084475137, 0.001), (0.0002801055, 0.0008486889, 0.001), (7.8251095e-12, 0.00085, 0.001), (-0.0002801055, 0.0008486889, 0.001), (-0.00039551797, 0.00084475137, 0.001), (-0.00048316183, 0.00083817495, 0.001), (-0.000555893, 0.0008289381, 0.001), (-0.00061861414, 0.00081700855, 0.001), (-0.0006737882, 0.00080234173, 0.001), (-0.0007228406, 0.0007848774, 0.001), (-0.00076667155, 0.0007645357, 0.001), (-0.0008058834, 0.0007412107, 0.001), (-0.0008408964, 0.00071476196, 0.001), (-0.0008720126, 0.0006850009, 0.001), (-0.0008994537, 0.0006516708, 0.001), (-0.00092338515, 0.0006144145, 0.001), (-0.0009439314, 0.00057271996, 0.001), (-0.00096118654, 0.000525822, 0.001), (-0.0009752213, 0.000472509, 0.001), (-0.0009860882, 0.00041068756, 0.001), (-0.0009938251, 0.00033619028, 0.001), (-0.0009984574, 0.00023808968, 0.001), (-0.001, 9.40642e-12, 0.001), (-0.0009984574, -0.00023808968, 0.001), (-0.0009938251, -0.00033619028, 0.001), (-0.0009860882, -0.00041068756, 0.001), (-0.0009752213, -0.000472509, 0.001), (-0.00096118654, -0.000525822, 0.001), (-0.0009439314, -0.00057271996, 0.001), (-0.00092338515, -0.0006144145, 0.001), (-0.0008994537, -0.0006516708, 0.001), (-0.0008720126, -0.0006850009, 0.001), (-0.0008408964, -0.00071476196, 0.001), (-0.0008058834, -0.0007412107, 0.001), (-0.00076667155, -0.0007645357, 0.001), (-0.0007228406, -0.0007848774, 0.001), (-0.0006737882, -0.00080234173, 0.001), (-0.00061861414, -0.00081700855, 0.001), (-0.000555893, -0.0008289381, 0.001), (-0.00048316183, -0.00083817495, 0.001), (-0.00039551797, -0.00084475137, 0.001), (-0.0002801055, -0.0008486889, 0.001), (-1.3553487e-11, -0.00085, 0.001), (0.0002801055, -0.0008486889, 0.001), (0.00039551797, -0.00084475137, 0.001), (0.00048316183, -0.00083817495, 0.001), (0.000555893, -0.0008289381, 0.001), (0.00061861414, -0.00081700855, 0.001), (0.0006737882, -0.00080234173, 0.001), (0.0007228406, -0.0007848774, 0.001), (0.00076667155, -0.0007645357, 0.001), (0.0008058834, -0.0007412107, 0.001), (0.0008408964, -0.00071476196, 0.001), (0.0008720126, -0.0006850009, 0.001), (0.0008994537, -0.0006516708, 0.001), (0.00092338515, -0.0006144145, 0.001), (0.0009439314, -0.00057271996, 0.001), (0.00096118654, -0.000525822, 0.001), (0.0009752213, -0.000472509, 0.001), (0.0009860882, -0.00041068756, 0.001), (0.0009938251, -0.00033619028, 0.001), (0.0009984574, -0.00023808968, 0.001)]
        uniform token subdivisionScheme = "none"
    }

    def Mesh "rim" (
        prepend apiSchemas = ["MaterialBindingAPI"]
    )
    {
        uniform bool doubleSided = 1
        int[] faceVertexCounts = [3, 3, 3, 3, 3, 3, 3, 3, 3, 3, 3, 3, 3, 3, 3, 3, 3, 3, 3, 3, 3, 3, 3, 3, 3, 3, 3, 3, 3, 3, 3, 3, 3, 3, 3, 3, 3, 3, 3, 3, 3, 3, 3, 3, 3, 3, 3, 3, 3, 3, 3, 3, 3, 3, 3, 3, 3, 3, 3, 3, 3, 3, 3, 3, 3, 3, 3, 3, 3, 3, 3, 3, 3, 3, 3, 3, 3, 3, 3, 3, 3, 3, 3, 3, 3, 3, 3, 3, 3, 3, 3, 3, 3, 3, 3, 3, 3, 3, 3, 3, 3, 3, 3, 3, 3, 3, 3, 3, 3, 3, 3, 3, 3, 3, 3, 3, 3, 3, 3, 3, 3, 3, 3, 3, 3, 3, 3, 3, 3, 3, 3, 3, 3, 3, 3, 3, 3, 3, 3, 3, 3, 3, 3, 3, 3, 3, 3, 3, 3, 3, 3, 3, 3, 3, 3, 3, 3, 3, 3, 3, 3, 3, 3, 3, 3, 3, 3, 3, 3, 3, 3, 3, 3, 3, 3, 3, 3, 3, 3, 3, 3, 3, 3, 3, 3, 3, 3, 3, 3, 3, 3, 3, 3, 3, 3, 3, 3, 3, 3, 3, 3, 3, 3, 3, 3, 3, 3, 3, 3, 3, 3, 3, 3, 3, 3, 3, 3, 3, 3, 3, 3, 3, 3, 3, 3, 3, 3, 3, 3, 3, 3, 3, 3, 3, 3, 3, 3, 3, 3, 3, 3, 3, 3, 3, 3, 3, 3, 3, 3, 3, 3, 3, 3, 3, 3, 3, 3, 3, 3, 3, 3, 3, 3, 3, 3, 3, 3, 3, 3, 3, 3, 3, 3, 3, 3, 3, 3, 3, 3, 3, 3, 3, 3, 3, 3, 3, 3, 3, 3, 3, 3, 3, 3, 3, 3, 3, 3, 3, 3, 3, 3, 3, 3, 3, 3, 3, 3, 3, 3, 3, 3, 3, 3, 3, 3, 3, 3, 3, 3, 3]
        int[] faceVertexIndices = [0, 1, 81, 0, 81, 80, 1, 2, 82, 1, 82, 81, 2, 3, 83, 2, 83, 82, 3, 4, 84, 3, 84, 83, 4, 5, 85, 4, 85, 84, 5, 6, 86, 5, 86, 85, 6, 7, 87, 6, 87, 86, 7, 8, 88, 7, 88, 87, 8, 9, 89, 8, 89, 88, 9, 10, 90, 9, 90, 89, 10, 11, 91, 10, 91, 90, 11, 12, 92, 11, 92, 91, 12, 13, 93, 12, 93, 92, 13, 14, 94, 13, 94, 93, 14, 15, 95, 14, 95, 94, 15, 16, 96, 15, 96, 95, 16, 17, 97, 16, 97, 96, 17, 18, 98, 17, 98, 97, 18, 19, 99, 18, 99, 98, 19, 20, 100, 19, 100, 99, 20, 21, 101, 20, 101, 100, 21, 22, 102, 21, 102, 101, 22, 23, 103, 22, 103, 102, 23, 24, 104, 23, 104, 103, 24, 25, 105, 24, 105, 104, 25, 26, 106, 25, 106, 105, 26, 27, 107, 26, 107, 106, 27, 28, 108, 27, 108, 107, 28, 29, 109, 28, 109, 108, 29, 30, 110, 29, 110, 109, 30, 31, 111, 30, 111, 110, 31, 32, 112, 31, 112, 111, 32, 33, 113, 32, 113, 112, 33, 34, 114, 33, 114, 113, 34, 35, 115, 34, 115, 114, 35, 36, 116, 35, 116, 115, 36, 37, 117, 36, 117, 116, 37, 38, 118, 37, 118, 117, 38, 39, 119, 38, 119, 118, 39, 40, 120, 39, 120, 119, 40, 41, 121, 40, 121, 120, 41, 42, 122, 41, 122, 121, 42, 43, 123, 42, 123, 122, 43, 44, 124, 43, 124, 123, 44, 45, 125, 44, 125, 124, 45, 46, 126, 45, 126, 125, 46, 47, 127, 46, 127, 126, 47, 48, 128, 47, 128, 127, 48, 49, 129, 48, 129, 128, 49, 50, 130, 49, 130, 129, 50, 51, 131, 50, 131, 130, 51, 52, 132, 51, 132, 131, 52, 53, 133, 52, 133, 132, 53, 54, 134, 53, 134, 133, 54, 55, 135, 54, 135, 134, 55, 56, 136, 55, 136, 135, 56, 57, 137, 56, 137, 136, 57, 58, 138, 57, 138, 137, 58, 59, 139, 58, 139, 138, 59, 60, 140, 59, 140, 139, 60, 61, 141, 60, 141, 140, 61, 62, 142, 61, 142, 141, 62, 63, 143, 62, 143, 142, 63, 64, 144, 63, 144, 143, 64, 65, 145, 64, 145, 144, 65, 66, 146, 65, 146, 145, 66, 67, 147, 66, 147, 146, 67, 68, 148, 67, 148, 147, 68, 69, 149, 68, 149, 148, 69, 70, 150, 69, 150, 149, 70, 71, 151, 70, 151, 150, 71, 72, 152, 71, 152, 151, 72, 73, 153, 72, 153, 152, 73, 74, 154, 73, 154, 153, 74, 75, 155, 74, 155, 154, 75, 76, 156, 75, 156, 155, 76, 77, 157, 76, 157, 156, 77, 78, 158, 77, 158, 157, 78, 79, 159, 78, 159, 158, 79, 0, 80, 79, 80, 159, 80, 81, 161, 80, 161, 160, 81, 82, 162, 81, 162, 161, 82, 83, 163, 82, 163, 162, 83, 84, 164, 83, 164, 163, 84, 85, 165, 84, 165, 164, 85, 86, 166, 85, 166, 165, 86, 87, 167, 86, 167, 166, 87, 88, 168, 87, 168, 167, 88, 89, 169, 88, 169, 168, 89, 90, 170, 89, 170, 169, 90, 91, 171, 90, 171, 170, 91, 92, 172, 91, 172, 171, 92, 93, 173, 92, 173, 172, 93, 94, 174, 93, 174, 173, 94, 95, 175, 94, 175, 174, 95, 96, 176, 95, 176, 175, 96, 97, 177, 96, 177, 176, 97, 98, 178, 97, 178, 177, 98, 99, 179, 98, 179, 178, 99, 100, 180, 99, 180, 179, 100, 101, 181, 100, 181, 180, 101, 102, 182, 101, 182, 181, 102, 103, 183, 102, 183, 182, 103, 104, 184, 103, 184, 183, 104, 105, 185, 104, 185, 184, 105, 106, 186, 105, 186, 185, 106, 107, 187, 106, 187, 186, 107, 108, 188, 107, 188, 187, 108, 109, 189, 108, 189, 188, 109, 110, 190, 109, 190, 189, 110, 111, 191, 110, 191, 190, 111, 112, 192, 111, 192, 191, 112, 113, 193, 112, 193, 192, 113, 114, 194, 113, 194, 193, 114, 115, 195, 114, 195, 194, 115, 116, 196, 115, 196, 195, 116, 117, 197, 116, 197, 196, 117, 118, 198, 117, 198, 197, 118, 119, 199, 118, 199, 198, 119, 120, 200, 119, 200, 199, 120, 121, 201, 120, 201, 200, 121, 122, 202, 121, 202, 201, 122, 123, 203, 122, 203, 202, 123, 124, 204, 123, 204, 203, 124, 125, 205, 124, 205, 204, 125, 126, 206, 125, 206, 205, 126, 127, 207, 126, 207, 206, 127, 128, 208, 127, 208, 207, 128, 129, 209, 128, 209, 208, 129, 130, 210, 129, 210, 209, 130, 131, 211, 130, 211, 210, 131, 132, 212, 131, 212, 211, 132, 133, 213, 132, 213, 212, 133, 134, 214, 133, 214, 213, 134, 135, 215, 134, 215, 214, 135, 136, 216, 135, 216, 215, 136, 137, 217, 136, 217, 216, 137, 138, 218, 137, 218, 217, 138, 139, 219, 138, 219, 218, 139, 140, 220, 139, 220, 219, 140, 141, 221, 140, 221, 220, 141, 142, 222, 141, 222, 221, 142, 143, 223, 142, 223, 222, 143, 144, 224, 143, 224, 223, 144, 145, 225, 144, 225, 224, 145, 146, 226, 145, 226, 225, 146, 147, 227, 146, 227, 226, 147, 148, 228, 147, 228, 227, 148, 149, 229, 148, 229, 228, 149, 150, 230, 149, 230, 229, 150, 151, 231, 150, 231, 230, 151, 152, 232, 151, 232, 231, 152, 153, 233, 152, 233, 232, 153, 154, 234, 153, 234, 233, 154, 155, 235, 154, 235, 234, 155, 156, 236, 155, 236, 235, 156, 157, 237, 156, 237, 236, 157, 158, 238, 157, 238, 237, 158, 159, 239, 158, 239, 238, 159, 80, 160, 159, 160, 239]
        rel material:binding = </chip_serving_plate_visual/blue_rim>
        point3f[] points = [(0.0695, 0, 0.0124), (0.06939279, 0.016547233, 0.0124), (0.069070846, 0.023365224, 0.0124), (0.06853313, 0.028542785, 0.0124), (0.06777788, 0.032839376, 0.0124), (0.066802464, 0.03654463, 0.0124), (0.065603234, 0.039804038, 0.0124), (0.06417527, 0.04270181, 0.0124), (0.06251203, 0.045291122, 0.0124), (0.060604874, 0.047607563, 0.0124), (0.058442302, 0.049675956, 0.0124), (0.056008898, 0.051514145, 0.0124), (0.053283673, 0.053135227, 0.0124), (0.050237425, 0.05454898, 0.0124), (0.046828277, 0.05576275, 0.0124), (0.04299368, 0.056782093, 0.0124), (0.03863456, 0.057611197, 0.0124), (0.033579748, 0.05825316, 0.0124), (0.0274885, 0.058710217, 0.0124), (0.019467333, 0.058983877, 0.0124), (5.4384514e-10, 0.059075, 0.0124), (-0.019467333, 0.058983877, 0.0124), (-0.0274885, 0.058710217, 0.0124), (-0.033579748, 0.05825316, 0.0124), (-0.03863456, 0.057611197, 0.0124), (-0.04299368, 0.056782093, 0.0124), (-0.046828277, 0.05576275, 0.0124), (-0.050237425, 0.05454898, 0.0124), (-0.053283673, 0.053135227, 0.0124), (-0.056008898, 0.051514145, 0.0124), (-0.058442302, 0.049675956, 0.0124), (-0.060604874, 0.047607563, 0.0124), (-0.06251203, 0.045291122, 0.0124), (-0.06417527, 0.04270181, 0.0124), (-0.065603234, 0.039804038, 0.0124), (-0.066802464, 0.03654463, 0.0124), (-0.06777788, 0.032839376, 0.0124), (-0.06853313, 0.028542785, 0.0124), (-0.069070846, 0.023365224, 0.0124), (-0.06939279, 0.016547233, 0.0124), (-0.0695, 6.5374617e-10, 0.0124), (-0.06939279, -0.016547233, 0.0124), (-0.069070846, -0.023365224, 0.0124), (-0.06853313, -0.028542785, 0.0124), (-0.06777788, -0.032839376, 0.0124), (-0.066802464, -0.03654463, 0.0124), (-0.065603234, -0.039804038, 0.0124), (-0.06417527, -0.04270181, 0.0124), (-0.06251203, -0.045291122, 0.0124), (-0.060604874, -0.047607563, 0.0124), (-0.058442302, -0.049675956, 0.0124), (-0.056008898, -0.051514145, 0.0124), (-0.053283673, -0.053135227, 0.0124), (-0.050237425, -0.05454898, 0.0124), (-0.046828277, -0.05576275, 0.0124), (-0.04299368, -0.056782093, 0.0124), (-0.03863456, -0.057611197, 0.0124), (-0.033579748, -0.05825316, 0.0124), (-0.0274885, -0.058710217, 0.0124), (-0.019467333, -0.058983877, 0.0124), (-9.419674e-10, -0.059075, 0.0124), (0.019467333, -0.058983877, 0.0124), (0.0274885, -0.058710217, 0.0124), (0.033579748, -0.05825316, 0.0124), (0.03863456, -0.057611197, 0.0124), (0.04299368, -0.056782093, 0.0124), (0.046828277, -0.05576275, 0.0124), (0.050237425, -0.05454898, 0.0124), (0.053283673, -0.053135227, 0.0124), (0.056008898, -0.051514145, 0.0124), (0.058442302, -0.049675956, 0.0124), (0.060604874, -0.047607563, 0.0124), (0.06251203, -0.045291122, 0.0124), (0.06417527, -0.04270181, 0.0124), (0.065603234, -0.039804038, 0.0124), (0.066802464, -0.03654463, 0.0124), (0.06777788, -0.032839376, 0.0124), (0.06853313, -0.028542785, 0.0124), (0.069070846, -0.023365224, 0.0124), (0.06939279, -0.016547233, 0.0124), (0.071, 0, 0.0131), (0.07089048, 0.016904367, 0.0131), (0.07056158, 0.023869509, 0.0131), (0.070012264, 0.029158818, 0.0131), (0.06924071, 0.03354814, 0.0131), (0.06824424, 0.03733336, 0.0131), (0.06701913, 0.040663116, 0.0131), (0.06556035, 0.043623433, 0.0131), (0.06386121, 0.046268627, 0.0131), (0.061912894, 0.04863506, 0.0131), (0.059703644, 0.0507481, 0.0131), (0.05721772, 0.05262596, 0.0131), (0.05443368, 0.054282032, 0.0131), (0.051321685, 0.055726293, 0.0131), (0.04783896, 0.05696626, 0.0131), (0.0439216, 0.058007605, 0.0131), (0.0394684, 0.058854602, 0.0131), (0.034304492, 0.05951042, 0.0131), (0.028081777, 0.059977345, 0.0131), (0.01988749, 0.06025691, 0.0131), (5.555828e-10, 0.06035, 0.0131), (-0.01988749, 0.06025691, 0.0131), (-0.028081777, 0.059977345, 0.0131), (-0.034304492, 0.05951042, 0.0131), (-0.0394684, 0.058854602, 0.0131), (-0.0439216, 0.058007605, 0.0131), (-0.04783896, 0.05696626, 0.0131), (-0.051321685, 0.055726293, 0.0131), (-0.05443368, 0.054282032, 0.0131), (-0.05721772, 0.05262596, 0.0131), (-0.059703644, 0.0507481, 0.0131), (-0.061912894, 0.04863506, 0.0131), (-0.06386121, 0.046268627, 0.0131), (-0.06556035, 0.043623433, 0.0131), (-0.06701913, 0.040663116, 0.0131), (-0.06824424, 0.03733336, 0.0131), (-0.06924071, 0.03354814, 0.0131), (-0.070012264, 0.029158818, 0.0131), (-0.07056158, 0.023869509, 0.0131), (-0.07089048, 0.016904367, 0.0131), (-0.071, 6.6785577e-10, 0.0131), (-0.07089048, -0.016904367, 0.0131), (-0.07056158, -0.023869509, 0.0131), (-0.070012264, -0.029158818, 0.0131), (-0.06924071, -0.03354814, 0.0131), (-0.06824424, -0.03733336, 0.0131), (-0.06701913, -0.040663116, 0.0131), (-0.06556035, -0.043623433, 0.0131), (-0.06386121, -0.046268627, 0.0131), (-0.061912894, -0.04863506, 0.0131), (-0.059703644, -0.0507481, 0.0131), (-0.05721772, -0.05262596, 0.0131), (-0.05443368, -0.054282032, 0.0131), (-0.051321685, -0.055726293, 0.0131), (-0.04783896, -0.05696626, 0.0131), (-0.0439216, -0.058007605, 0.0131), (-0.0394684, -0.058854602, 0.0131), (-0.034304492, -0.05951042, 0.0131), (-0.028081777, -0.059977345, 0.0131), (-0.01988749, -0.06025691, 0.0131), (-9.622976e-10, -0.06035, 0.0131), (0.01988749, -0.06025691, 0.0131), (0.028081777, -0.059977345, 0.0131), (0.034304492, -0.05951042, 0.0131), (0.0394684, -0.058854602, 0.0131), (0.0439216, -0.058007605, 0.0131), (0.04783896, -0.05696626, 0.0131), (0.051321685, -0.055726293, 0.0131), (0.05443368, -0.054282032, 0.0131), (0.05721772, -0.05262596, 0.0131), (0.059703644, -0.0507481, 0.0131), (0.061912894, -0.04863506, 0.0131), (0.06386121, -0.046268627, 0.0131), (0.06556035, -0.043623433, 0.0131), (0.06701913, -0.040663116, 0.0131), (0.06824424, -0.03733336, 0.0131), (0.06924071, -0.03354814, 0.0131), (0.070012264, -0.029158818, 0.0131), (0.07056158, -0.023869509, 0.0131), (0.07089048, -0.016904367, 0.0131), (0.072, 0, 0.0125), (0.07188894, 0.017142458, 0.0125), (0.071555406, 0.0242057, 0.0125), (0.07099835, 0.029569505, 0.0125), (0.07021593, 0.03402065, 0.0125), (0.06920543, 0.037859183, 0.0125), (0.06796306, 0.041235834, 0.0125), (0.06648373, 0.044237845, 0.0125), (0.06476067, 0.0469203, 0.0125), (0.06278491, 0.049320064, 0.0125), (0.060544543, 0.05146286, 0.0125), (0.058023605, 0.05336717, 0.0125), (0.05520035, 0.055046566, 0.0125), (0.052044526, 0.05651117, 0.0125), (0.04851275, 0.057768602, 0.0125), (0.044540215, 0.058824614, 0.0125), (0.040024295, 0.059683543, 0.0125), (0.03478765, 0.060348596, 0.0125), (0.028477294, 0.060822096, 0.0125), (0.020167597, 0.061105598, 0.0125), (5.634079e-10, 0.0612, 0.0125), (-0.020167597, 0.061105598, 0.0125), (-0.028477294, 0.060822096, 0.0125), (-0.03478765, 0.060348596, 0.0125), (-0.040024295, 0.059683543, 0.0125), (-0.044540215, 0.058824614, 0.0125), (-0.04851275, 0.057768602, 0.0125), (-0.052044526, 0.05651117, 0.0125), (-0.05520035, 0.055046566, 0.0125), (-0.058023605, 0.05336717, 0.0125), (-0.060544543, 0.05146286, 0.0125), (-0.06278491, 0.049320064, 0.0125), (-0.06476067, 0.0469203, 0.0125), (-0.06648373, 0.044237845, 0.0125), (-0.06796306, 0.041235834, 0.0125), (-0.06920543, 0.037859183, 0.0125), (-0.07021593, 0.03402065, 0.0125), (-0.07099835, 0.029569505, 0.0125), (-0.071555406, 0.0242057, 0.0125), (-0.07188894, 0.017142458, 0.0125), (-0.072, 6.772622e-10, 0.0125), (-0.07188894, -0.017142458, 0.0125), (-0.071555406, -0.0242057, 0.0125), (-0.07099835, -0.029569505, 0.0125), (-0.07021593, -0.03402065, 0.0125), (-0.06920543, -0.037859183, 0.0125), (-0.06796306, -0.041235834, 0.0125), (-0.06648373, -0.044237845, 0.0125), (-0.06476067, -0.0469203, 0.0125), (-0.06278491, -0.049320064, 0.0125), (-0.060544543, -0.05146286, 0.0125), (-0.058023605, -0.05336717, 0.0125), (-0.05520035, -0.055046566, 0.0125), (-0.052044526, -0.05651117, 0.0125), (-0.04851275, -0.057768602, 0.0125), (-0.044540215, -0.058824614, 0.0125), (-0.040024295, -0.059683543, 0.0125), (-0.03478765, -0.060348596, 0.0125), (-0.028477294, -0.060822096, 0.0125), (-0.020167597, -0.061105598, 0.0125), (-9.758511e-10, -0.0612, 0.0125), (0.020167597, -0.061105598, 0.0125), (0.028477294, -0.060822096, 0.0125), (0.03478765, -0.060348596, 0.0125), (0.040024295, -0.059683543, 0.0125), (0.044540215, -0.058824614, 0.0125), (0.04851275, -0.057768602, 0.0125), (0.052044526, -0.05651117, 0.0125), (0.05520035, -0.055046566, 0.0125), (0.058023605, -0.05336717, 0.0125), (0.060544543, -0.05146286, 0.0125), (0.06278491, -0.049320064, 0.0125), (0.06476067, -0.0469203, 0.0125), (0.06648373, -0.044237845, 0.0125), (0.06796306, -0.041235834, 0.0125), (0.06920543, -0.037859183, 0.0125), (0.07021593, -0.03402065, 0.0125), (0.07099835, -0.029569505, 0.0125), (0.071555406, -0.0242057, 0.0125), (0.07188894, -0.017142458, 0.0125)]
        uniform token subdivisionScheme = "none"
    }

    def Mesh "foot" (
        prepend apiSchemas = ["MaterialBindingAPI"]
    )
    {
        uniform bool doubleSided = 1
        int[] faceVertexCounts = [3, 3, 3, 3, 3, 3, 3, 3, 3, 3, 3, 3, 3, 3, 3, 3, 3, 3, 3, 3, 3, 3, 3, 3, 3, 3, 3, 3, 3, 3, 3, 3, 3, 3, 3, 3, 3, 3, 3, 3, 3, 3, 3, 3, 3, 3, 3, 3, 3, 3, 3, 3, 3, 3, 3, 3, 3, 3, 3, 3, 3, 3, 3, 3, 3, 3, 3, 3, 3, 3, 3, 3, 3, 3, 3, 3, 3, 3, 3, 3, 3, 3, 3, 3, 3, 3, 3, 3, 3, 3, 3, 3, 3, 3, 3, 3, 3, 3, 3, 3, 3, 3, 3, 3, 3, 3, 3, 3, 3, 3, 3, 3, 3, 3, 3, 3, 3, 3, 3, 3, 3, 3, 3, 3, 3, 3, 3, 3, 3, 3, 3, 3, 3, 3, 3, 3, 3, 3, 3, 3, 3, 3, 3, 3, 3, 3, 3, 3, 3, 3, 3, 3, 3, 3, 3, 3, 3, 3, 3, 3, 3, 3, 3, 3, 3, 3, 3, 3, 3, 3, 3, 3, 3, 3, 3, 3, 3, 3, 3, 3, 3, 3, 3, 3, 3, 3, 3, 3, 3, 3, 3, 3, 3, 3, 3, 3, 3, 3, 3, 3, 3, 3, 3, 3, 3, 3, 3, 3, 3, 3, 3, 3, 3, 3, 3, 3, 3, 3, 3, 3, 3, 3, 3, 3, 3, 3, 3, 3, 3, 3, 3, 3, 3, 3, 3, 3, 3, 3, 3, 3, 3, 3, 3, 3, 3, 3, 3, 3, 3, 3, 3, 3, 3, 3, 3, 3, 3, 3, 3, 3, 3, 3, 3, 3, 3, 3, 3, 3, 3, 3, 3, 3, 3, 3, 3, 3, 3, 3, 3, 3, 3, 3, 3, 3, 3, 3, 3, 3, 3, 3, 3, 3, 3, 3, 3, 3, 3, 3, 3, 3, 3, 3, 3, 3, 3, 3, 3, 3, 3, 3, 3, 3, 3, 3, 3, 3, 3, 3, 3, 3]
        int[] faceVertexIndices = [0, 1, 81, 0, 81, 80, 1, 2, 82, 1, 82, 81, 2, 3, 83, 2, 83, 82, 3, 4, 84, 3, 84, 83, 4, 5, 85, 4, 85, 84, 5, 6, 86, 5, 86, 85, 6, 7, 87, 6, 87, 86, 7, 8, 88, 7, 88, 87, 8, 9, 89, 8, 89, 88, 9, 10, 90, 9, 90, 89, 10, 11, 91, 10, 91, 90, 11, 12, 92, 11, 92, 91, 12, 13, 93, 12, 93, 92, 13, 14, 94, 13, 94, 93, 14, 15, 95, 14, 95, 94, 15, 16, 96, 15, 96, 95, 16, 17, 97, 16, 97, 96, 17, 18, 98, 17, 98, 97, 18, 19, 99, 18, 99, 98, 19, 20, 100, 19, 100, 99, 20, 21, 101, 20, 101, 100, 21, 22, 102, 21, 102, 101, 22, 23, 103, 22, 103, 102, 23, 24, 104, 23, 104, 103, 24, 25, 105, 24, 105, 104, 25, 26, 106, 25, 106, 105, 26, 27, 107, 26, 107, 106, 27, 28, 108, 27, 108, 107, 28, 29, 109, 28, 109, 108, 29, 30, 110, 29, 110, 109, 30, 31, 111, 30, 111, 110, 31, 32, 112, 31, 112, 111, 32, 33, 113, 32, 113, 112, 33, 34, 114, 33, 114, 113, 34, 35, 115, 34, 115, 114, 35, 36, 116, 35, 116, 115, 36, 37, 117, 36, 117, 116, 37, 38, 118, 37, 118, 117, 38, 39, 119, 38, 119, 118, 39, 40, 120, 39, 120, 119, 40, 41, 121, 40, 121, 120, 41, 42, 122, 41, 122, 121, 42, 43, 123, 42, 123, 122, 43, 44, 124, 43, 124, 123, 44, 45, 125, 44, 125, 124, 45, 46, 126, 45, 126, 125, 46, 47, 127, 46, 127, 126, 47, 48, 128, 47, 128, 127, 48, 49, 129, 48, 129, 128, 49, 50, 130, 49, 130, 129, 50, 51, 131, 50, 131, 130, 51, 52, 132, 51, 132, 131, 52, 53, 133, 52, 133, 132, 53, 54, 134, 53, 134, 133, 54, 55, 135, 54, 135, 134, 55, 56, 136, 55, 136, 135, 56, 57, 137, 56, 137, 136, 57, 58, 138, 57, 138, 137, 58, 59, 139, 58, 139, 138, 59, 60, 140, 59, 140, 139, 60, 61, 141, 60, 141, 140, 61, 62, 142, 61, 142, 141, 62, 63, 143, 62, 143, 142, 63, 64, 144, 63, 144, 143, 64, 65, 145, 64, 145, 144, 65, 66, 146, 65, 146, 145, 66, 67, 147, 66, 147, 146, 67, 68, 148, 67, 148, 147, 68, 69, 149, 68, 149, 148, 69, 70, 150, 69, 150, 149, 70, 71, 151, 70, 151, 150, 71, 72, 152, 71, 152, 151, 72, 73, 153, 72, 153, 152, 73, 74, 154, 73, 154, 153, 74, 75, 155, 74, 155, 154, 75, 76, 156, 75, 156, 155, 76, 77, 157, 76, 157, 156, 77, 78, 158, 77, 158, 157, 78, 79, 159, 78, 159, 158, 79, 0, 80, 79, 80, 159, 80, 81, 161, 80, 161, 160, 81, 82, 162, 81, 162, 161, 82, 83, 163, 82, 163, 162, 83, 84, 164, 83, 164, 163, 84, 85, 165, 84, 165, 164, 85, 86, 166, 85, 166, 165, 86, 87, 167, 86, 167, 166, 87, 88, 168, 87, 168, 167, 88, 89, 169, 88, 169, 168, 89, 90, 170, 89, 170, 169, 90, 91, 171, 90, 171, 170, 91, 92, 172, 91, 172, 171, 92, 93, 173, 92, 173, 172, 93, 94, 174, 93, 174, 173, 94, 95, 175, 94, 175, 174, 95, 96, 176, 95, 176, 175, 96, 97, 177, 96, 177, 176, 97, 98, 178, 97, 178, 177, 98, 99, 179, 98, 179, 178, 99, 100, 180, 99, 180, 179, 100, 101, 181, 100, 181, 180, 101, 102, 182, 101, 182, 181, 102, 103, 183, 102, 183, 182, 103, 104, 184, 103, 184, 183, 104, 105, 185, 104, 185, 184, 105, 106, 186, 105, 186, 185, 106, 107, 187, 106, 187, 186, 107, 108, 188, 107, 188, 187, 108, 109, 189, 108, 189, 188, 109, 110, 190, 109, 190, 189, 110, 111, 191, 110, 191, 190, 111, 112, 192, 111, 192, 191, 112, 113, 193, 112, 193, 192, 113, 114, 194, 113, 194, 193, 114, 115, 195, 114, 195, 194, 115, 116, 196, 115, 196, 195, 116, 117, 197, 116, 197, 196, 117, 118, 198, 117, 198, 197, 118, 119, 199, 118, 199, 198, 119, 120, 200, 119, 200, 199, 120, 121, 201, 120, 201, 200, 121, 122, 202, 121, 202, 201, 122, 123, 203, 122, 203, 202, 123, 124, 204, 123, 204, 203, 124, 125, 205, 124, 205, 204, 125, 126, 206, 125, 206, 205, 126, 127, 207, 126, 207, 206, 127, 128, 208, 127, 208, 207, 128, 129, 209, 128, 209, 208, 129, 130, 210, 129, 210, 209, 130, 131, 211, 130, 211, 210, 131, 132, 212, 131, 212, 211, 132, 133, 213, 132, 213, 212, 133, 134, 214, 133, 214, 213, 134, 135, 215, 134, 215, 214, 135, 136, 216, 135, 216, 215, 136, 137, 217, 136, 217, 216, 137, 138, 218, 137, 218, 217, 138, 139, 219, 138, 219, 218, 139, 140, 220, 139, 220, 219, 140, 141, 221, 140, 221, 220, 141, 142, 222, 141, 222, 221, 142, 143, 223, 142, 223, 222, 143, 144, 224, 143, 224, 223, 144, 145, 225, 144, 225, 224, 145, 146, 226, 145, 226, 225, 146, 147, 227, 146, 227, 226, 147, 148, 228, 147, 228, 227, 148, 149, 229, 148, 229, 228, 149, 150, 230, 149, 230, 229, 150, 151, 231, 150, 231, 230, 151, 152, 232, 151, 232, 231, 152, 153, 233, 152, 233, 232, 153, 154, 234, 153, 234, 233, 154, 155, 235, 154, 235, 234, 155, 156, 236, 155, 236, 235, 156, 157, 237, 156, 237, 236, 157, 158, 238, 157, 238, 237, 158, 159, 239, 158, 239, 238, 159, 80, 160, 159, 160, 239]
        rel material:binding = </chip_serving_plate_visual/foot_material>
        point3f[] points = [(0.041, 0, 0), (0.04087361, 0.0027342995, 0), (0.04049522, 0.005451741, 0), (0.039867166, 0.008135571, 0), (0.038993318, 0.010769242, 0), (0.03787906, 0.013336518, 0), (0.036531266, 0.015821569, 0), (0.034958247, 0.018209076, 0), (0.033169698, 0.020484315, 0), (0.031176645, 0.022633264, 0), (0.028991379, 0.02464267, 0), (0.02662737, 0.026500149, 0), (0.024099195, 0.028194243, 0), (0.021422442, 0.02971451, 0), (0.01861361, 0.031051578, 0), (0.015690021, 0.032197203, 0), (0.0126696965, 0.03314432, 0), (0.00957126, 0.033887092, 0), (0.006413813, 0.034420937, 0), (0.0032168229, 0.034742568, 0), (2.510526e-18, 0.03485, 0), (-0.0032168229, 0.034742568, 0), (-0.006413813, 0.034420937, 0), (-0.00957126, 0.033887092, 0), (-0.0126696965, 0.03314432, 0), (-0.015690021, 0.032197203, 0), (-0.01861361, 0.031051578, 0), (-0.021422442, 0.02971451, 0), (-0.024099195, 0.028194243, 0), (-0.02662737, 0.026500149, 0), (-0.028991379, 0.02464267, 0), (-0.031176645, 0.022633264, 0), (-0.033169698, 0.020484315, 0), (-0.034958247, 0.018209076, 0), (-0.036531266, 0.015821569, 0), (-0.03787906, 0.013336518, 0), (-0.038993318, 0.010769242, 0), (-0.039867166, 0.008135571, 0), (-0.04049522, 0.005451741, 0), (-0.04087361, 0.0027342995, 0), (-0.041, 4.267894e-18, 0), (-0.04087361, -0.0027342995, 0), (-0.04049522, -0.005451741, 0), (-0.039867166, -0.008135571, 0), (-0.038993318, -0.010769242, 0), (-0.03787906, -0.013336518, 0), (-0.036531266, -0.015821569, 0), (-0.034958247, -0.018209076, 0), (-0.033169698, -0.020484315, 0), (-0.031176645, -0.022633264, 0), (-0.028991379, -0.02464267, 0), (-0.02662737, -0.026500149, 0), (-0.024099195, -0.028194243, 0), (-0.021422442, -0.02971451, 0), (-0.01861361, -0.031051578, 0), (-0.015690021, -0.032197203, 0), (-0.0126696965, -0.03314432, 0), (-0.00957126, -0.033887092, 0), (-0.006413813, -0.034420937, 0), (-0.0032168229, -0.034742568, 0), (-7.531578e-18, -0.03485, 0), (0.0032168229, -0.034742568, 0), (0.006413813, -0.034420937, 0), (0.00957126, -0.033887092, 0), (0.0126696965, -0.03314432, 0), (0.015690021, -0.032197203, 0), (0.01861361, -0.031051578, 0), (0.021422442, -0.02971451, 0), (0.024099195, -0.028194243, 0), (0.02662737, -0.026500149, 0), (0.028991379, -0.02464267, 0), (0.031176645, -0.022633264, 0), (0.033169698, -0.020484315, 0), (0.034958247, -0.018209076, 0), (0.036531266, -0.015821569, 0), (0.03787906, -0.013336518, 0), (0.038993318, -0.010769242, 0), (0.039867166, -0.008135571, 0), (0.04049522, -0.005451741, 0), (0.04087361, -0.0027342995, 0), (0.043, 0, 0), (0.042867444, 0.00286768, 0), (0.0424706, 0.00571768, 0), (0.041811906, 0.008532428, 0), (0.04089543, 0.011294571, 0), (0.03972682, 0.013987079, 0), (0.03831328, 0.016593352, 0), (0.03666353, 0.019097323, 0), (0.03478773, 0.021483552, 0), (0.032697458, 0.023737326, 0), (0.030405592, 0.025844753, 0), (0.027926266, 0.027792837, 0), (0.025274767, 0.029569572, 0), (0.022467438, 0.031163998, 0), (0.019521592, 0.032566287, 0), (0.016455388, 0.033767797, 0), (0.0132877305, 0.034761116, 0), (0.0100381505, 0.03554012, 0), (0.006726682, 0.036100008, 0), (0.0033737412, 0.03643733, 0), (2.6329905e-18, 0.03655, 0), (-0.0033737412, 0.03643733, 0), (-0.006726682, 0.036100008, 0), (-0.0100381505, 0.03554012, 0), (-0.0132877305, 0.034761116, 0), (-0.016455388, 0.033767797, 0), (-0.019521592, 0.032566287, 0), (-0.022467438, 0.031163998, 0), (-0.025274767, 0.029569572, 0), (-0.027926266, 0.027792837, 0), (-0.030405592, 0.025844753, 0), (-0.032697458, 0.023737326, 0), (-0.03478773, 0.021483552, 0), (-0.03666353, 0.019097323, 0), (-0.03831328, 0.016593352, 0), (-0.03972682, 0.013987079, 0), (-0.04089543, 0.011294571, 0), (-0.041811906, 0.008532428, 0), (-0.0424706, 0.00571768, 0), (-0.042867444, 0.00286768, 0), (-0.043, 4.476084e-18, 0), (-0.042867444, -0.00286768, 0), (-0.0424706, -0.00571768, 0), (-0.041811906, -0.008532428, 0), (-0.04089543, -0.011294571, 0), (-0.03972682, -0.013987079, 0), (-0.03831328, -0.016593352, 0), (-0.03666353, -0.019097323, 0), (-0.03478773, -0.021483552, 0), (-0.032697458, -0.023737326, 0), (-0.030405592, -0.025844753, 0), (-0.027926266, -0.027792837, 0), (-0.025274767, -0.029569572, 0), (-0.022467438, -0.031163998, 0), (-0.019521592, -0.032566287, 0), (-0.016455388, -0.033767797, 0), (-0.0132877305, -0.034761116, 0), (-0.0100381505, -0.03554012, 0), (-0.006726682, -0.036100008, 0), (-0.0033737412, -0.03643733, 0), (-7.898972e-18, -0.03655, 0), (0.0033737412, -0.03643733, 0), (0.006726682, -0.036100008, 0), (0.0100381505, -0.03554012, 0), (0.0132877305, -0.034761116, 0), (0.016455388, -0.033767797, 0), (0.019521592, -0.032566287, 0), (0.022467438, -0.031163998, 0), (0.025274767, -0.029569572, 0), (0.027926266, -0.027792837, 0), (0.030405592, -0.025844753, 0), (0.032697458, -0.023737326, 0), (0.03478773, -0.021483552, 0), (0.03666353, -0.019097323, 0), (0.03831328, -0.016593352, 0), (0.03972682, -0.013987079, 0), (0.04089543, -0.011294571, 0), (0.041811906, -0.008532428, 0), (0.0424706, -0.00571768, 0), (0.042867444, -0.00286768, 0), (0.045, 0, 0.002), (0.04486128, 0.0030010603, 0.002), (0.044445977, 0.005983618, 0.002), (0.043756645, 0.008929285, 0.002), (0.042797543, 0.0118199, 0.002), (0.04157458, 0.014637642, 0.002), (0.040095292, 0.017365137, 0.002), (0.038368806, 0.01998557, 0.002), (0.036405765, 0.022482786, 0.002), (0.034218267, 0.024841389, 0.002), (0.031819806, 0.027046835, 0.002), (0.029225161, 0.029085528, 0.002), (0.026450336, 0.0309449, 0.002), (0.023512436, 0.032613486, 0.002), (0.020429572, 0.034081, 0.002), (0.017220754, 0.03533839, 0.002), (0.013905765, 0.03637791, 0.002), (0.010505041, 0.03719315, 0.002), (0.007039551, 0.037779078, 0.002), (0.0035306592, 0.038132086, 0.002), (2.7554553e-18, 0.03825, 0.002), (-0.0035306592, 0.038132086, 0.002), (-0.007039551, 0.037779078, 0.002), (-0.010505041, 0.03719315, 0.002), (-0.013905765, 0.03637791, 0.002), (-0.017220754, 0.03533839, 0.002), (-0.020429572, 0.034081, 0.002), (-0.023512436, 0.032613486, 0.002), (-0.026450336, 0.0309449, 0.002), (-0.029225161, 0.029085528, 0.002), (-0.031819806, 0.027046835, 0.002), (-0.034218267, 0.024841389, 0.002), (-0.036405765, 0.022482786, 0.002), (-0.038368806, 0.01998557, 0.002), (-0.040095292, 0.017365137, 0.002), (-0.04157458, 0.014637642, 0.002), (-0.042797543, 0.0118199, 0.002), (-0.043756645, 0.008929285, 0.002), (-0.044445977, 0.005983618, 0.002), (-0.04486128, 0.0030010603, 0.002), (-0.045, 4.684274e-18, 0.002), (-0.04486128, -0.0030010603, 0.002), (-0.044445977, -0.005983618, 0.002), (-0.043756645, -0.008929285, 0.002), (-0.042797543, -0.0118199, 0.002), (-0.04157458, -0.014637642, 0.002), (-0.040095292, -0.017365137, 0.002), (-0.038368806, -0.01998557, 0.002), (-0.036405765, -0.022482786, 0.002), (-0.034218267, -0.024841389, 0.002), (-0.031819806, -0.027046835, 0.002), (-0.029225161, -0.029085528, 0.002), (-0.026450336, -0.0309449, 0.002), (-0.023512436, -0.032613486, 0.002), (-0.020429572, -0.034081, 0.002), (-0.017220754, -0.03533839, 0.002), (-0.013905765, -0.03637791, 0.002), (-0.010505041, -0.03719315, 0.002), (-0.007039551, -0.037779078, 0.002), (-0.0035306592, -0.038132086, 0.002), (-8.266366e-18, -0.03825, 0.002), (0.0035306592, -0.038132086, 0.002), (0.007039551, -0.037779078, 0.002), (0.010505041, -0.03719315, 0.002), (0.013905765, -0.03637791, 0.002), (0.017220754, -0.03533839, 0.002), (0.020429572, -0.034081, 0.002), (0.023512436, -0.032613486, 0.002), (0.026450336, -0.0309449, 0.002), (0.029225161, -0.029085528, 0.002), (0.031819806, -0.027046835, 0.002), (0.034218267, -0.024841389, 0.002), (0.036405765, -0.022482786, 0.002), (0.038368806, -0.01998557, 0.002), (0.040095292, -0.017365137, 0.002), (0.04157458, -0.014637642, 0.002), (0.042797543, -0.0118199, 0.002), (0.043756645, -0.008929285, 0.002), (0.044445977, -0.005983618, 0.002), (0.04486128, -0.0030010603, 0.002)]
        uniform token subdivisionScheme = "none"
    }
}
